<?xml version="1.0" encoding="utf-8"?>
<!-- Generator: Adobe Illustrator 22.1.0, SVG Export Plug-In . SVG Version: 6.00 Build 0)  -->
<svg version="1.1" id="Layer_1" xmlns="http://www.w3.org/2000/svg" xmlns:xlink="http://www.w3.org/1999/xlink" x="0px" y="0px"
	 viewBox="0 0 500 500" style="enable-background:new 0 0 500 500;" xml:space="preserve">
<style type="text/css">
	.st0{fill:#FFFFFF;}
	.st1{fill:#EAAA53;}
	.st2{fill:#D6D6D5;}
	.st3{fill:#D6D6D6;}
	.st4{fill:#EBEBEA;}
	.st5{fill:#E9A247;}
	.st6{fill:#D7D7D7;}
	.st7{fill:#E9A34C;}
	.st8{fill:#E9A24E;}
	.st9{fill:#E9A548;}
	.st10{fill:#E9A348;}
	.st11{fill:#FDFDFD;}
	.st12{fill:#DEDEDE;}
	.st13{fill:#E7E6E6;}
	.st14{fill:#E4E4E4;}
	.st15{fill:#E9A449;}
	.st16{fill:#E1E0E0;}
	.st17{fill:#EAA248;}
	.st18{fill:#E5E5E5;}
	.st19{fill:#E9A347;}
	.st20{fill:#E1E1E0;}
	.st21{fill:#E3E3E2;}
	.st22{fill:#E5E5E3;}
	.st23{fill:#DFDFDF;}
	.st24{fill:#FFFFFE;}
	.st25{fill:#E4E3E3;}
</style>
<g>
	<g>
		<path class="st0" d="M11.3,178.8c158.7,0,317.3,0,476,0c1.9,0,2.4,0.4,2.4,2.4c-0.1,46.5-0.1,93,0,139.5c0,1.8-0.3,2.1-2.1,2.1
			c-158.1-0.1-316.1-0.1-474.2,0c-1.8,0-2.1-0.3-2.1-2.1C11.3,273.3,11.3,226,11.3,178.8z"/>
		<path class="st1" d="M63.8,254.3c0.9-8.9,3.1-17.4,7.3-25.4c2.7-5.3,6.3-9.9,11.1-13.6c3.2-2.5,6.8-4.1,10.9-4.7
			c2,0.4,4.1,0.3,6.1,0.1c5.7,0.8,9.5,4.3,12.7,8.8c2.2,3.1,4.3,6.4,6.6,9.4c3.2,4.2,7.2,6.6,12.7,6.4c2.7-0.1,4.8-1.2,5.6-3.7
			c3.3-10.5,2.3-20.7-9.9-25.7c-4-1.6-8.1-2.4-12.2-3.4c-1-0.7-2-0.4-3-0.2c-0.4-0.1-0.8-0.2-1.2-0.3c-1.3-0.6-2.7-0.4-4-0.1
			c-3.6,0-7.2,0-10.8,0c-1-0.3-2-0.5-3,0.1c-0.4,0.1-0.8,0.3-1.1,0.4c-0.7-0.2-1.3-0.5-2,0.1c-5.3,1.5-10.7,2.7-15.7,5.2
			c-19.8,10-31.6,26.1-36.7,47.4c-0.6,2.6-1,5.3-1.5,8c-0.5,4.4-0.5,8.9,0,13.3c0.8,4.3,1.1,8.7,2.3,13c1.3,5.1,2.9,10.1,5.2,15
			c-3-1.7-5.3-4.2-7.5-6.6c-7.7-8.3-13.2-17.9-16-28.8c-6.2-24.1-1.5-46,14.6-65.1c11.9-14,27.3-22.1,45.5-23.9
			c23.4-2.3,43.5,5.1,59.6,22.3c9.3,9.9,15.3,21.8,17.4,35.3c4.3,28.8-5.3,52.2-28.4,69.9c-4.1,3.1-8.6,5.5-13.4,7.5
			c-1.6,0.7-3.4,0.4-5,0.9c-2.5-0.3-5.1-0.2-7.6,0c-5.7-0.5-11.3-1.6-16.5-4.3c-12.2-6.4-18.4-17.1-21.1-30.1
			c-0.4-1.8-0.6-3.7-0.9-5.5c0.2-1,0.5-2-0.1-3c-0.7-1.3-0.4-2.8-0.4-4.2c0.3-2.2,0.3-4.4,0-6.6c0-1.4-0.3-2.8,0.3-4.2
			C64.3,256.7,64,255.5,63.8,254.3z"/>
		<path class="st1" d="M257.9,225.1c0,4.3,0,8.6,0,12.8c0,3.1,0.1,3.1,3,1.9c3-1.3,6-2.4,9.3-2.8c9.1-1.2,19.6,2.6,23.7,11.5
			c5.3,11.7-0.6,26.6-13.9,30.3c-8.1,2.2-16,2.1-23.8-1c-2.1-0.8-3.6-0.4-4.7,1.7c-0.7,1.4-1.4,3.5-3.4,2.8
			c-2.1-0.7-1.2-2.8-1.1-4.5c0.3-3.7,0.7-7.5,0.7-11.2c0.1-14.7,0-29.4,0.1-44.2c0-2.5-0.5-4.4-3.4-4.7c-0.9-0.1-1.5-0.6-1.7-1.6
			c-0.2-1.1,0.6-1.5,1.3-1.9c3.9-2.2,8.1-3.6,12.3-4.9c1.8-0.6,1.7,0.8,1.7,1.9C258,215.9,257.9,220.5,257.9,225.1z"/>
		<path class="st1" d="M232.8,249.3c-0.4,5.8-0.6,11.6-0.5,17.4c0,1.1,0.2,2.2,0.4,3.3c0.5,2.2,1.8,2.9,3.9,2.4
			c0.8-0.2,1.6-0.5,2.5-0.6c0.7-0.1,1.4-1,2.1-0.2c0.7,0.8,0.2,1.7-0.1,2.4c-1,2.2-2.8,3.7-5.1,4.4c-4.1,1.3-8.3,1.4-11.9-1.6
			c-1.6-1.4-2.9-1.4-4.9-0.3c-4.6,2.7-9.6,4.4-15.1,3.6c-3.5-0.6-5.6-3.1-5.9-6.7c-0.6-7.9,4.2-12.1,10.3-15.3
			c3.6-1.9,7.5-3.3,11.3-4.8c0.9-0.4,1.7-0.8,2.2-1.7c1.5-2.8,0.4-8.2-1.9-9.9c-2.8-2-7.2-1.5-9.8,1.1c-1.2,1.2-2,2.7-2.7,4.3
			c-1.5,3.7-3.6,5.1-7.4,5c-2.4-0.1-3.3-1.4-2.4-3.7c1.3-3.4,4.1-5.6,7.1-7.5c6.8-4.3,14.2-5.2,21.9-3.3c4.5,1.1,6.1,4,6.1,9.6
			C232.8,248,232.8,248.6,232.8,249.3z"/>
		<path class="st1" d="M184.9,243.1c0,9.3,0.1,18.7,0,28c0,2.3,0.7,3.5,3,3.9c1.3,0.2,2.5,0.6,3.7,1c0.9,0.3,2,0.7,1.9,1.7
			c-0.1,1.3-1.5,1.2-2.4,1.2c-1.9,0-3.8,0-5.6-0.1c-5.7-0.4-11.4-0.1-17.2,0.1c-0.9,0-2.4,0.6-2.6-0.8c-0.2-1.2,1.2-1.4,2.2-1.7
			c0.3-0.1,0.7-0.2,1-0.3c5.1-1.3,4.9-1.4,5.3-6.7c0.9-12.5,0.1-24.9,0.5-37.4c0.1-2.8-0.6-5.6-0.6-8.4c0-1.6-1.1-2.4-2.5-2.9
			c-1.1-0.4-2.2-1-2.2-2.5c0.1-1.6,1.4-1.8,2.5-2.1c3.4-0.9,6.4-2.7,9.7-4c2.5-1,3.2-0.6,3.2,2.2
			C184.9,223.9,184.9,233.5,184.9,243.1z"/>
		<path class="st2" d="M348.3,242c-2.6-0.2-5.2-0.7-7.9-0.6c-1.6,0.1-2.2,0.5-2.4,2.2c-1,8.4-0.2,16.9-0.4,25.4
			c0,1.9-0.1,3.7,0.4,5.6c0.5,1.8,1.4,2.8,3.3,2.9c1.3,0.1,2.7,0.3,4,1.3c-1,0.6-1.8,0.7-2.7,0.7c-5.1,0-10.3,0-15.4,0
			c-0.7,0-1.8,0.4-1.9-0.7c-0.1-1,1-0.7,1.6-0.9c4.5-1.3,5-1.9,5-6.6c0-8.6,0-17.3,0-25.9c0-3.3-0.5-3.7-3.9-3.8
			c-4.2-0.2-7.8,0.7-10.2,4.6c-0.2,0.4-0.6,0.7-0.9,0.9c-0.6,0.4-0.9,1.5-1.9,0.9c-1-0.6-0.5-1.5-0.2-2.3c1-2.7,2-5.4,3.1-8.1
			c0.5-1.2,0.9-2.5,2.2-0.3c1.3,2.2,4,1.6,5.9,1.6c7.6,0.3,15.2,0.1,22.8,0.1c1.4,0,2.5-0.5,3.1-1.8c0.3-0.5,0.7-1.2,1.3-1
			c0.8,0.2,1,1,1,1.6c0,2.8,0.5,5.6-0.5,8.4c-0.6,0.5-1.1,1.2-2,0.5c-0.8-1.3-0.3-3.3-2.1-4.1C349.5,241.9,348.8,242.2,348.3,242z"
			/>
		<path class="st2" d="M389.9,252.3c3.6,0.9,6.2,3,7.6,6.4c1.5,3.6,0.9,4.8-2.9,4.8c-4.1,0-8.2,0.1-12.3,0c-1.7,0-2.3,0.5-2.2,2.2
			c0.1,1.6,0.1,3.2,0.5,4.8c1.6,6.5,9.2,9.1,14.5,5.1c0.5-0.4,1-1,1.5-0.5c0.8,0.7-0.2,1.2-0.5,1.7c-3.6,4.8-14.1,5.8-18.4-0.5
			c-0.8-1.2-1.9-2.3-1.7-3.9c-0.3-0.7,0.3-1.5-0.5-2.1c-1.7-5.3,0.7-12,5.7-15.9c0.5-0.4,1.1-0.5,1.5-1c0.5-0.2,1-0.4,1.5-0.5
			c1,0.1,1.8-0.5,2.6-0.8C387.9,252.1,389,251.7,389.9,252.3z"/>
		<path class="st2" d="M361.7,268c0,2.1,0,4.1,0,6.2c0,2.6,1,3.6,3.7,3.8c0.6,0,1.2,0,1.8,0.1c0.5,0.1,1,0.3,0.9,1
			c-0.1,0.6-0.6,0.5-1,0.5c-4.3,0-8.6,0-12.8,0c-0.3,0-0.7,0.1-0.8-0.4c-0.1-0.5,0.2-0.9,0.6-1c3.2-0.9,3.2-3.4,3.1-6
			c0-2.9-0.1-5.8,0-8.7c0.1-2.1,0-4.1-1.9-5.6c-0.8-0.6-0.8-1.3,0.1-1.8c1.7-1,2.8-2.5,4.1-3.8c0.5-0.5,1.1-0.9,1.8-0.6
			c0.8,0.3,0.3,1,0.4,1.6c0.2,0.8-0.4,1.9,0.4,2.4c0.9,0.5,1.4-0.8,2.1-1.2c2-1.1,3.8-2.6,6.4-1.8c1.6,0.5,2.6,1.2,2.4,3
			c-0.1,1.8-1.4,2.4-2.9,2.8c-1.1,0.3-2.2-0.2-3.2-0.7c-2.9-1.4-5-0.1-5.2,3.1C361.6,263.2,361.7,265.6,361.7,268z"/>
		<path class="st2" d="M447.7,280c-5.8,0-8.5-3.3-7.6-8.8c0.6-4.2,0.2-8.4,0.2-12.6c0-1.3-0.8-1.8-2-1.8c-0.5,0-1.1,0.2-1.3-0.4
			c-0.2-0.6,0.3-1,0.7-1.2c2.8-1.1,4.8-3.2,6.2-5.8c0.2-0.3,0.6-0.7,1.1-0.5c0.5,0.2,0.5,0.7,0.4,1.1c-0.5,3.2,1.4,3.5,3.8,3.3
			c1.4-0.1,2.9,0,4.4,0c1,0,1.5,0.6,1.6,1.6c0.1,1.2-0.6,1.4-1.6,1.4c-1.8,0-3.6,0-5.4,0c-2.1,0-3.2,0.9-3.2,3c0,4.5-0.1,8.9,0,13.4
			c0.1,3.3,2.5,4.8,6.5,4.1c1-0.2,2.6-1.2,2.9,0.1c0.3,1.2-1.4,2-2.7,2.2C450.2,279.3,449,280.5,447.7,280z"/>
		<path class="st3" d="M415.6,255.3c-3.9,1.1-5.2,3.7-4.7,7.7c0.4,2.9,0.2,6,0,9c-0.2,3.4,0,6.3,4.3,6.5c-0.2,0.8-0.6,0.9-1,0.9
			c-3.3,0-6.7,0-10,0c-0.5,0-1.1,0.1-1.2-0.5c0-0.2,0.3-0.7,0.5-0.8c2.2-0.5,2.3-2.3,2.5-4c0.5-4.6,0.6-9.2,0-13.8
			c-0.1-1-0.4-1.8-1.5-2.1c-1.1-0.3-1.4-1.2-0.4-1.8c1.9-1.2,3.2-3.1,5-4.3c1.5-1,2-0.6,1.9,1c-0.2,2.3,0.7,2.2,2.2,1.1
			c0.9-0.6,2-1,2.9-1.5c0.5-0.2,0.6,0.1,0.7,0.5C416.8,254.1,416.2,254.7,415.6,255.3z"/>
		<path class="st2" d="M415.6,255.3c-0.2-1,0.5-1.5,1-2.1c0.4-0.6,1.2-0.5,1.5-1c3.6,0,7.2,0,9.4,3.6c0.9,1.5,1.4,3.1,1.4,4.8
			c0,4.8,0,9.5,0,14.3c0,1.5,0.3,2.7,2,3c0.5,1-0.1,1.4-0.9,1.4c-1.1,0-2.1,0.5-3.1,0.1c-0.5,0-1,0-1.5,0c-1,0.1-2,0-3-0.1
			c-0.9-0.1-1.7-0.2-1.2-1.5c1.6-0.2,2.9-1.1,3-2.7c0.1-5,0.3-10.1-0.1-15c-0.3-3.7-2.4-4.9-6.2-4.9
			C417.2,255.3,416.4,255.3,415.6,255.3z"/>
		<path class="st2" d="M476.7,280c-8.7,2.2-16.7-1.6-17.5-11.3c-0.5-6.3,1.1-11.6,6.8-15.1c0.3-0.2,0.6-0.2,1-0.3
			c0.5-0.3,1.2,0.1,1.5-0.5l0,0c0.7-0.2,1.2,0,1.7,0.5c0,1-1,1.4-1.3,2.2c-4,4.9-4.8,10.5-2.9,16.4c1.7,5.1,3.7,6.5,9,6.3
			C475.8,278.5,476.8,278.8,476.7,280z"/>
		<path class="st2" d="M476.7,280c-0.5-0.5-1-1-1.5-1.5c2.2-2.6,4.1-5.4,4.8-8.8c1-5-1-12.4-5.7-14.9c-0.3-0.3-0.5-0.6-0.5-1
			c0-0.2,0.1-0.5,0.3-0.6c0.6-0.3,1.3-0.5,2-0.3l0,0c0.4,0.6,1,0.3,1.5,0.5c9.9,4.4,10.6,17.8,4.1,23.9
			C480.4,278.6,478.7,279.5,476.7,280z"/>
		<path class="st4" d="M426.9,279.5c1.2-1,3.3,0.4,4.1-1.5c1-0.1,2.2,0.1,2.2,1.2c0,1.1-1.3,0.9-2.1,0.8
			C429.7,279.8,428.2,280.5,426.9,279.5z"/>
		<path class="st5" d="M35.5,276.4c-1-0.9-0.6-2.1-0.5-3.1c0.2-3.4-0.7-6.9,0.5-10.2C35.5,267.5,35.5,271.9,35.5,276.4z"/>
		<path class="st4" d="M421.3,277.9c0.8,2.1,3,0.3,4.1,1.6c-1.4,0.8-2.9,0.6-4.4,0.2c-0.4-0.1-1.1-0.6-1.1-0.8
			C420,278.1,420.6,278,421.3,277.9z"/>
		<path class="st6" d="M468.5,254.8c0.2-0.8,1.1-0.9,1.5-1.6c0-0.4,0.2-0.7,0.5-1c1.2,0,2.4,0,3.6,0c0.3,0.3,0.3,0.7,0,1l0,0
			c-0.8,0.8-1.9,0.5-2.8,1C470.5,254.6,469.7,255.5,468.5,254.8z"/>
		<path class="st7" d="M102.3,315.8c2.5-0.6,5.1-0.6,7.6,0C107.4,316.1,104.8,316.1,102.3,315.8z"/>
		<path class="st8" d="M63.3,262c0.7,2.2,0.7,4.4,0,6.6C63.3,266.5,63.3,264.2,63.3,262z"/>
		<path class="st9" d="M99.1,210.8c-2,0.6-4.1,0.7-6.1-0.1C95,210.7,97.1,210.7,99.1,210.8z"/>
		<path class="st10" d="M106.3,201.9c1.3-0.9,2.7-0.5,4.1-0.3c0,0,0.1,0.1,0,0.2c0,0.1-0.1,0.1-0.1,0.2
			C109,201.9,107.7,201.9,106.3,201.9z"/>
		<path class="st11" d="M389.9,252.3c-1.2,0-2.4,0-3.6,0c-0.2,0.2-0.4,0.2-0.5,0C387.2,251.5,388.6,251.4,389.9,252.3z"/>
		<path class="st12" d="M351.9,246.6c0.7-0.2,1.4-0.3,2-0.5C353.6,247.6,353.1,248.3,351.9,246.6z"/>
		<path class="st10" d="M92.6,202c1-1,2-0.6,3-0.1C94.6,201.9,93.6,201.9,92.6,202z"/>
		<path class="st13" d="M418.2,252.3c-0.1,1-0.8,1-1.5,1c-0.2-0.2-0.3-0.3-0.5-0.5C416.7,252,417.5,252.3,418.2,252.3z"/>
		<path class="st14" d="M474.2,253.3c0-0.3,0-0.7,0-1c0.7,0.1,1.5-0.2,2.1,0.5C475.6,253.1,474.9,253.4,474.2,253.3z"/>
		<path class="st15" d="M63.8,254.3c0.7,1.2,0.9,2.4-0.2,3.6C63.6,256.7,63.7,255.5,63.8,254.3z"/>
		<path class="st14" d="M470.6,252.3c0,0.4-0.1,0.8-0.5,1c-0.5-0.2-1-0.3-1.5-0.5C469.1,252,469.9,252.3,470.6,252.3z"/>
		<path class="st16" d="M375.5,270.2c1.7,0.3,0.8,1.3,0.5,2.1C375.3,271.7,375.6,270.9,375.5,270.2z"/>
		<path class="st15" d="M63.7,272.9c1,1,0.6,2,0.1,3C63.7,274.9,63.7,273.9,63.7,272.9z"/>
		<path class="st17" d="M111.5,202.3c1.1-0.6,2.1-0.8,3,0.2C113.5,202.5,112.5,202.4,111.5,202.3z"/>
		<path class="st18" d="M385.8,252.2c0.2,0,0.3,0,0.5,0c-0.5,1.1-1.2,1-2.1,0.5C384.6,252.2,385.3,252.3,385.8,252.2z"/>
		<path class="st19" d="M89.5,202.5c0.6-0.9,1.3-0.7,2-0.1C90.8,202.4,90.1,202.4,89.5,202.5z"/>
		<path class="st20" d="M348.3,242c0.7-0.3,1.4-0.9,1.5,0.5C349.3,242.5,348.7,242.6,348.3,242z"/>
		<path class="st21" d="M468.5,252.8c-0.1,1.3-0.9,0.8-1.5,0.5C467.4,252.7,468,252.8,468.5,252.8z"/>
		<path class="st22" d="M477.8,253.3c-0.7,0.3-1.4,0.8-1.5-0.5C476.8,252.8,477.4,252.7,477.8,253.3z"/>
		<path class="st23" d="M382.7,253.3c-0.1,1-0.8,1-1.5,1C381.5,253.6,382,253.3,382.7,253.3z"/>
		<path class="st0" d="M257.5,257c0-3.5,0-7,0-10.5c0-1.1,0.1-1.9,1.3-2.4c7.1-2.9,22.1-0.7,25,10.7c1.7,6.9-0.3,15.9-5.4,19.6
			c-5.6,4.1-15.2,3.1-19.5-2.3c-1.1-1.4-1.5-3-1.5-4.8C257.5,263.8,257.5,260.4,257.5,257z"/>
		<path class="st24" d="M222.3,261.9c0,2.6-0.2,5.1-0.8,7.6c-0.9,3.2-4.3,5.2-8.1,4.9c-2.6-0.2-4.8-2-5.1-4.9
			c-0.3-3.3,1.2-6.2,3.7-8.3c2-1.8,4.4-3,6.9-3.8c2.6-0.9,3.2-0.5,3.5,2.2C222.4,260.3,222.3,261.1,222.3,261.9z"/>
		<path class="st11" d="M381.2,259.4c1.2-2.8,3.3-4.6,6.3-5.5c1.9-0.5,3.6,0.1,5,1.3c2.5,2.2,1.7,5.2-1.6,5.9
			c-3,0.7-6.1,0.1-9.2,0.3C380.9,261,380.5,260.3,381.2,259.4z"/>
		<path class="st25" d="M381.2,259.4c-0.1,0.7,0.2,1.4,0.5,2.1c-0.7,0-1.3-0.3-1.5-1.1C380.2,259.7,380.6,259.5,381.2,259.4z"/>
		<path class="st0" d="M468.5,254.8c0.9-0.4,1.7-0.7,2.6-1.1c1.1-0.3,2.2-0.6,3.1,0.5c2.5,0.4,3.7,2.4,4.7,4.3
			c3,5.9,2.8,11.7-0.8,17.4c-0.7,1.1-1.6,1.9-2.8,2.5c-4.4,1.1-6.9,0.1-8.9-4.1C463,267.5,463.6,260.9,468.5,254.8z"/>
		<path class="st14" d="M474.2,254.3c-1-0.6-2-0.5-3.1-0.5c0.9-0.9,2.1-0.3,3.1-0.5C474.2,253.6,474.2,253.9,474.2,254.3z"/>
	</g>
</g>
</svg>
