<?xml version="1.0" encoding="utf-8"?>
<!-- Generator: Adobe Illustrator 22.1.0, SVG Export Plug-In . SVG Version: 6.00 Build 0)  -->
<svg version="1.1" id="Layer_1" xmlns="http://www.w3.org/2000/svg" xmlns:xlink="http://www.w3.org/1999/xlink" x="0px" y="0px"
	 viewBox="0 0 500 500" style="enable-background:new 0 0 500 500;" xml:space="preserve">
<style type="text/css">
	.st0{fill:#FDFDFC;}
	.st1{fill:#2E9DD8;}
	.st2{fill:#DB2126;}
	.st3{fill:#F8E906;}
	.st4{fill:#312E79;}
	.st5{fill:#DE1574;}
	.st6{fill:#F8EB11;}
	.st7{fill:#FBE807;}
	.st8{fill:#DF1575;}
	.st9{fill:#F4EB14;}
	.st10{fill:#DE1672;}
	.st11{fill:#DF1777;}
	.st12{fill:#DE176F;}
	.st13{fill:#DF236C;}
	.st14{fill:#4F9CC4;}
	.st15{fill:#21A3D5;}
	.st16{fill:#22A2D6;}
	.st17{fill:#3696D2;}
	.st18{fill:#25A1CB;}
	.st19{fill:#48403E;}
	.st20{fill:#E34852;}
	.st21{fill:#F8E907;}
	.st22{fill:#484134;}
	.st23{fill:#E52D40;}
	.st24{fill:#FDE800;}
	.st25{fill:#FEE600;}
	.st26{fill:#EFE923;}
	.st27{fill:#F3EA11;}
	.st28{fill:#322F80;}
	.st29{fill:#372E7E;}
	.st30{fill:#312D73;}
	.st31{fill:#352F74;}
	.st32{fill:#33307D;}
	.st33{fill:#493D8C;}
	.st34{fill:#4D428D;}
	.st35{fill:#DB127C;}
	.st36{fill:#353172;}
	.st37{fill:#302F81;}
	.st38{fill:#343084;}
	.st39{fill:#433A61;}
	.st40{fill:#35307A;}
	.st41{fill:#E0107D;}
	.st42{fill:#E6136F;}
	.st43{fill:#FFFFFF;}
	.st44{fill:#414342;}
	.st45{fill:#4D4145;}
</style>
<g>
	<g>
		<path class="st0" d="M6.5,250.2c0-82.7,0-165.3,0-248c0-1.5,0.3-1.9,1.9-1.9c161.4,0,322.8,0,484.1,0c1.5,0,1.9,0.3,1.9,1.9
			c0,165.4,0,330.9,0,496.3c0,1.5-0.3,1.9-1.9,1.9c-161.4,0-322.8,0-484.1,0c-1.5,0-1.9-0.3-1.9-1.9C6.5,415.8,6.5,333,6.5,250.2z"
			/>
		<path class="st1" d="M383.9,155.6c6,4.1,11.3,9,16.4,14.2c15.8,16.4,25.8,35.9,31.6,57.8c3.1,11.6,4.8,23.4,5.7,35.4
			c0.8,11.6,0.9,23.3-0.2,34.9c-1.4,15.7-4.5,31.1-9.8,46.1c-7.3,20.6-18.6,38.6-34.6,53.5c-11.6,10.8-24.9,19-39.5,25.3
			c-15.9,6.9-32.4,11.2-49.5,13.5c-11.2,1.5-22.5,2.3-33.8,2.3c-47.6,0-95.1,0-142.7,0c-0.8,0-1.6,0.2-2.4-0.3
			c-0.3-0.5-0.5-1.1-0.5-1.7c0.1-9.4-0.1-18.8,0.1-28.3c0-0.1,0-0.3,0.1-0.4c0.1-0.2,0.2-0.5,0.3-0.7c1.2-0.8,2.5-0.5,3.8-0.5
			c39.9,0,79.8,0.1,119.7-0.1c16.2-0.1,32.3-2.4,48-6.4c12.3-3.2,24.2-7.6,35.5-13.4c23.1-11.9,41.2-29,54-51.6
			c8.9-15.7,14.4-32.5,17.5-50.2c1.7-10.1,2.5-20.2,3-30.5c0.3-6.4,0-12.7-0.2-19.1c-0.6-13.3-2.5-26.5-6-39.5
			c-3.7-13.4-9-26.1-16.4-37.9c-0.5-0.7-1.1-1.4-0.9-2.4C383.2,155.4,383.5,155.5,383.9,155.6z"/>
		<path class="st2" d="M348.1,120.7c0.5,1.1,1.9,1.4,2.5,2.4c0.6,0.6,1.1,1.3,1.7,2c2,2.9,3.8,5.9,5.5,8.9c0.9,1.9,1.9,3.8,2.8,5.7
			c0.4,0.7,1,1.5,0.1,2.3c-0.8,0.3-1.5,0-2.1-0.4c-16-7.2-32.9-11.5-50.3-14c-5-0.7-9.9-1.1-14.9-1.8c-0.9-0.3-1.8-0.3-2.8-0.2
			c-4.8,0.2-9.6-0.6-14.5-0.4c-49.3,0-98.5,0-147.8,0c-0.7,0-1.4-0.1-2,0.2c-0.6,0.3-0.6,0.9-0.6,1.4c0,1,0,2,0,3
			c0,81.3,0,162.6,0,243.9c0,0.8,0,1.6-0.1,2.4c-0.1,9.3,0,18.6,0,28c0,1,0.2,2-0.5,2.9l-0.1,0c-0.2,0.2-0.4,0.3-0.7,0.4
			c-2.2,0.3-4.4,0.1-6.7,0.2c-7,0-14,0-21,0.1c-0.9,0-1.7-0.2-2.5-0.5c-0.1-0.2-0.3-0.3-0.4-0.5c-0.6-0.9-0.5-1.9-0.5-2.9
			c0-0.3,0-0.5,0-0.8c0-20.4,0-40.8,0-61.1c0-1.1-0.1-2.3,0.1-3.4c0.3-0.9,0.3-1.9,0.3-2.8c0-79.6,0-159.2,0-238.9
			c0-0.8,0-1.6-0.1-2.4c0-0.6,0.1-1.1,0.7-1.3c1.1-0.4,2.3-0.3,3.4-0.3c48.1,0,96.2,0,144.3,0c17.1,0,34.1,1.6,50.8,5.1
			c18.2,3.9,35.5,10.1,51.5,19.9C345.6,118.8,347,119.6,348.1,120.7z"/>
		<path class="st3" d="M348.1,120.7c-2.5-0.5-4.2-2.3-6.3-3.5c-16.4-9.6-34.1-15.6-52.6-19.3c-16.9-3.3-34-4.5-51.2-4.5
			c-47,0-94,0-141,0c-0.9,0-1.8,0-2.6-0.1c0-0.5,0.4-0.6,0.8-0.7c0.7-0.1,1.4,0,2,0c47,0,93.9,0,140.9,0c1.2,0,2.4,0.1,3.6,0.2
			c-0.3-0.1-0.7,0-1-0.1c-0.9-0.2-1.8-0.2-2.6-0.2c-47.6,0-95.2,0-142.7,0c-0.3,0-0.7,0-1,0.1c-0.4,0.2-1-0.2-1.2,0.5
			c-0.6,0.2-0.8,0.7-1,1.2C92,95.5,92,96.6,92,97.7c0,24.9,0,49.8,0,74.7c0,1.2,0.1,2.4-0.1,3.6c-0.4,1.3-0.3,2.7-0.3,4
			c0,72.9,0,145.9,0,218.8c0,1.3,0.4,2.7-0.6,3.9c-0.7,0.6-1.2,0.1-1.8-0.3c-6.7-6.1-13-12.7-19.5-19.1c-2.3-2.3-4.5-4.6-6.8-6.9
			c0.1-3.8,0-7.7,0-11.5c0-98.3,0-196.5,0-294.8c0-1.8,0-3.7-0.1-5.5c-0.1-1.6,0.6-1.8,1.8-1c0.2,0.7,0.1,1.3,0.1,2
			c0,102.5,0,205.1,0,307.6c-0.1,1-0.6,2-0.2,3c0.1,0.3,0.4-0.1,0.2,0c-0.1,0.1-0.2,0-0.2-0.1c-0.3-0.9,0-1.8,0.3-2.7
			c0-102.5,0-205,0-307.5c0-2.6,0.3-2.9,2.9-2.9c0.5,0,1.1,0,1.6,0c45.8,0,91.6,0,137.4,0c1.8,0,3.5-0.1,5.1,0.8
			c1.4,0.8,2.5-0.5,3.7-0.4c-0.1,0.1-0.5,0-0.8,0c-0.4-1.1,0.5-1,1-0.9c3.6,0.4,7.3-0.2,10.9,0.5c1.8,0.3,3.8-0.1,5.6,0.2
			c7.7,0.3,15.3,1.5,22.9,2.9c16.4,3,32.2,7.8,47.2,15.3c18,9,33.2,21.4,45.2,37.7C347.8,119.7,348.1,120.1,348.1,120.7z"/>
		<path class="st4" d="M125.2,407.3c0-10.3,0-20.6,0-30.9c1.1-0.9,2.5-0.6,3.7-0.6c27,0,54,0,81.1,0c4.7,0,9.3-0.7,14-0.4
			c0.5,0.1,0.6,0.4,0.5,0.8c-1.1,1.3-2.8,0.2-4,0.9c1.3-0.6,2.8,0.3,4-0.8c1.9,0.8,3.8-0.7,5.6,0.2c0.1,0.5-0.4,0.4-0.6,0.6
			c3-0.6,6-0.2,8.9,0.2c0.3,0.1-0.1-0.4,0-0.1c0,0.1,0,0.1-0.2,0.1c-2.5-0.6-5.1-0.4-7.7-0.9c-1.2-0.4-2.3-0.3-3.5,0
			c-0.8,0.2-1.8,0.4-1.9-0.9c1.8-0.9,3.7-0.6,5.6-0.8c9.9-1,19.7-2.4,29.5-4.6c2.6-0.6,5.2-1.5,7.9-1.8c1.1-0.1,2.4,0.4,3.3-0.7
			c3-1.5,6.2-2.3,9.3-3.4c13.6-4.8,26.3-11.3,38.1-19.8c0.7-0.5,1.2-1.1,2.1-1c0.2,0.1,0.4,0.3,0.4,0.6c0,0.1-0.1,0.2-0.2,0.2
			c0.1,0,0.2-0.1,0.3-0.1c0-0.1,0.4,0,0.2-0.2c-0.1-0.1-0.3-0.2-0.5-0.3c-0.2-0.9,0.6-1.2,1.1-1.5c6.8-5.5,13.1-11.6,19-18.2
			c0.7-0.4,1.1-1.1,1.3-1.8c5.2-6.6,9.9-13.5,13.8-21c2.9-5.5,5.3-11.1,7.6-16.8c3.4-8.5,5.6-17.3,7.4-26.1
			c1.7-8.1,2.9-16.4,3.3-24.7c0.1-2.4,0.3-4.7,0.6-7.1c0.4-1.6,0.2-3.3,0.1-4.9c0-3.1,0-6.3,0-9.4c0.1-1.7,0.3-3.4-0.2-5.1
			c-0.6-9.1-1.4-18.2-3-27.3c0-0.8,0.1-1.6-0.2-2.3c-2.1-8.2-3.8-16.5-6.8-24.3c-1.2-3.2-2.8-6.3-3.6-9.7c0-0.2,0.1-0.4,0.2-0.6
			c0.4-0.3,0.8-0.1,1.2,0c2,1.1,4.3,1.7,6,3.3c0.8,2.3,3,2.2,4.9,2.7c2.7,1.1,5.1,2.5,7.1,4.5c0.4,0.4,0.9,0.7,1.3,1.1
			c0.3,0.4,0.8,0.7,0.8,1.3c7.3,11.3,12.9,23.4,16.8,36.4c3.3,11.3,5.4,22.9,6.5,34.6c0.7,7.8,1.1,15.5,1,23.3
			c-0.3,23.2-3.6,45.8-12.1,67.5c-11.6,29.4-30.9,52.2-58.7,67.6c-19.8,11-41,17.3-63.4,20.3c-12.3,1.6-24.7,2.1-37.1,2
			c-36.2-0.1-72.5-0.1-108.7-0.1C126.6,407.3,125.9,407.3,125.2,407.3z"/>
		<path class="st5" d="M124.8,407.3c0.1-0.1,0.2-0.1,0.3-0.1c0,10.3,0,20.7,0,31c-0.4-0.3-0.8-0.5-1.1-0.8
			c-8.7-8.8-17.4-17.5-26.1-26.3c-0.1-0.1-0.2-0.3-0.4-0.5c0.1-1.3,1.1-0.9,1.8-0.9c7-0.1,14,0,21,0c0.3,0,0.5,0.1,0.7-0.1
			c-7.3,0.2-14.6,0-21.8,0.1c-0.8,0-2,0.3-1.7-1.2c2.4-0.4,4.7-0.1,7.1-0.1c5.3,0,10.5,0,15.8,0c0.6,0,1.3-0.1,1.6,0
			c-7.9,0-16.1,0-24.8,0c0.8-1,1.5-0.8,2.1-0.8c8.2,0,16.5-0.1,24.7,0.1C124.4,407.6,124.6,407.5,124.8,407.3z"/>
		<path class="st6" d="M232.2,63.4c-4.6,0.4-9.1-0.8-13.7-0.4c-1.3,0.1-2.7-0.4-3.9,0.4c-0.9,0.8-2,0.6-3,0.3
			c-0.2-0.1-0.3-0.3-0.3-0.5c0.3-0.5,0.9-0.4,1.4-0.3c-0.7-0.1-1.3,0.3-1.9,0.6c-28.3,0.1-56.6,0-84.9,0c-19.4,0-38.7,0-58.1,0
			c-0.7,0-1.5-0.1-2.2,0.1c-0.3,0.2-0.5,0.5-0.9,0.3c-1-0.2-1.7-0.4-1.4,1.2c0.2,1.6,0.2,3.2,0.2,4.8c0,100.6,0,201.3,0,301.9
			c0,1.6,0.9,3.3-0.4,4.8c-0.5-0.6-0.3-1.4-0.3-2.1c0-103.1,0-206.2,0-309.3c0-2.9,0-2.9,2.9-2.9c48,0,95.9,0,143.9,0
			c7.2,0,14.3,0.5,21.5,0.9C231.3,63.1,231.8,63.3,232.2,63.4z"/>
		<path class="st7" d="M92.3,93.5c0-0.7,0.4-0.6,0.8-0.4c0.8,1.2,0.6,2.6,0.6,3.9c0,26.3,0,52.6,0,79c0,45.5,0,91,0,136.5
			c0,29.6-0.2,59.2-0.1,88.8c0,0.9-0.3,1.9,0.4,2.8c0,1,0,1.9,0,2.9c-0.1-0.1-0.2-0.1-0.4-0.2c-0.3-0.9-1.6-1.3-1.2-2.5
			c0.3-0.9,0.1-1.8,0.1-2.6c0-74,0-148.1,0-222.1c0-0.7-0.2-1.5,0-1.8c0,0.3,0,1,0,1.7c0,74.2,0,148.4,0,222.6
			c0,0.7,0.7,1.8-0.6,2.2c-0.4-0.4-0.4-0.9-0.4-1.5c0.1-74.8-0.1-149.5,0.1-224.3c0.1-27.2,0-54.4,0.1-81.7
			C91.7,95.5,91.6,94.4,92.3,93.5z"/>
		<path class="st8" d="M380.8,153.3c-2.6-1.1-4.6-3.2-7.2-4.2c-1.7-0.9-3.6-1.3-4.9-2.8c-2-1.1-4.1-2.2-6.1-3.3
			c-0.2-0.4-0.2-0.7-0.1-1.1c-0.4,0.2-0.4,0.6-0.8,0.7c0,0.1,0,0.2,0,0.2c-0.5,0-0.8-0.3-0.9-0.8c-0.6-2.9-2.5-5.2-3.6-7.9
			c0.9-0.5-0.6-2.1,1-2.1l-0.9-1c-0.4,0.2-1,0.2-1-0.3c-0.2-1.1-0.6-2.2,0.5-3.1c3.9,2.6,7.2,6,10.6,9.3c4.5,4.5,8.6,9.3,12.4,14.5
			C380.3,152,380.8,152.5,380.8,153.3z"/>
		<path class="st9" d="M92.3,93.5c-0.5,2-0.4,4-0.4,6c0,101.5,0,203,0,304.5c0.3,0.2,0.5,0.6,0.8,0.8c0,0.8,1,1,0.8,1.9
			c-1.5-1.3-3-2.7-4.2-4.3c0.5,0.1,0.9,0.2,1.4,0.4c0.5-0.2,0.6-0.7,0.6-1.2c0-0.6,0-1.2,0-1.8c0-73.7,0-147.5,0-221.2
			c0-0.9-0.2-1.8,0.2-2.6c0-26.7,0-53.4,0-80.1C91.5,95.1,90.9,93.9,92.3,93.5z"/>
		<path class="st10" d="M124.8,407.3c-0.2,0.3,0,1.3-0.5,0.9c-0.8-0.8-1.5-0.4-2.2-0.4c-7.4,0-14.8,0-22.1,0c-0.7,0-1.3,0-2,0
			c0,0.1,0,0.2,0,0.4c8.4,0,16.7,0,25.1,0c0,0.2,0,0.3,0,0.5c-8.5,0-17,0-25.5,0c-0.5,0.2-0.2,0.7-0.5,1.1c-0.1,0.1-0.3,0.2-0.4,0.3
			c-0.9-0.7-1.8-1.4-2.4-2.5C104.4,407.4,114.6,407.4,124.8,407.3z"/>
		<path class="st11" d="M356.9,127.6c-0.3,0.7,0.1,1.5-0.3,2.3c-0.3,0.6,0.1,1,0.9,0.7c0.5-0.2,1-0.3,1.5-0.4
			c0.1,0.9-0.5,1.1-1.5,0.9c0.9,0.8,1.9,0.8,2.1,2c-0.5-0.3-1-0.5-1.7-0.9c0.3,0.9,0.9,2-0.6,2c-1.8-3-3.6-5.9-5.3-8.9
			c-0.2-0.4-0.3-0.8,0-1.2C353.8,125.1,355.4,126.2,356.9,127.6z"/>
		<path class="st12" d="M123.6,409.8c-0.6,0.6-1.4,0.4-2.1,0.4c-7.6,0-15.2,0-22.8,0c-0.5,0-0.9,0.1-1.2,0.6
			c-0.3-0.3-0.6-0.6-0.8-0.8c0,0,0.1-0.1,0.1-0.1c0.2-0.1,0.4-0.2,0.6-0.2c8.5,0,17,0,25.5,0C123.1,409.6,123.4,409.6,123.6,409.8z"
			/>
		<path class="st13" d="M352,124c0,0.4,0,0.8,0,1.2c-0.7-0.6-1.1-1.3-1.4-2.1C351.2,123.2,351.6,123.7,352,124z"/>
		<path class="st14" d="M382.9,155.7c-0.4-0.3-0.6-0.8-0.8-1.3c0.7,0.2,1.3,0.6,1.7,1.3C383.6,155.7,383.3,155.7,382.9,155.7z"/>
		<path class="st15" d="M236.9,408.1c-20.2,0-40.5,0-60.7,0c0-0.1,0-0.1,0-0.2c20.3,0,40.5,0,60.8,0
			C236.9,407.9,236.9,408,236.9,408.1z"/>
		<path class="st16" d="M172.4,408.5c0.1,0,0.2,0,0.2,0c0.1,0.1,0.1,0.2,0.2,0.3c-0.5,0-1,0.1-1.6,0.1c-14.1,0-28.2,0-42.2,0
			c-0.7,0-1.5,0.3-2.1-0.4c0.5-0.3,1.1-0.2,1.6-0.2c14.1,0,28.2,0,42.4,0C171.3,408.3,171.9,408.2,172.4,408.5z"/>
		<path class="st17" d="M172.4,408.5c-15.2,0-30.4,0-45.5,0c0.6-0.7,1.4-0.4,2.1-0.4c13.8,0,27.6,0,41.3,0
			C171,408.1,171.8,407.9,172.4,408.5z"/>
		<path class="st18" d="M282.4,436.9c-0.8,0-1.5,0-2.9,0C280.9,436.5,281.7,436.6,282.4,436.9z"/>
		<path class="st19" d="M360.9,142c0.3,0.3,0.6,0.6,0.9,0.8c3.6,9.1,7.2,18.3,9.2,27.9c0.4,2.2,1,4.3,1.5,6.5c0.3,0.6-0.1,1.4,0.3,2
			c0.4,4.1,1.3,8.2,1.7,12.4c0.5,5.1,1,10.2,1.2,15.3c0.4,1.6-0.2,3.3,0.3,4.9c0,3.2,0,6.4,0,9.6c-0.5,1.6,0.1,3.3-0.3,4.9
			c-0.3,8.6-1.1,17.2-2.6,25.7c-1.6,9.5-3.9,19-7.1,28.1c-2.4,6.8-5,13.5-8.4,19.8c-4.2,7.9-8.9,15.5-14.8,22.3
			c-0.2,0.7-0.9,1.1-1.2,1.6c-6,7.3-13.1,13.5-20.3,19.5l0,0c-4,2.7-8,5.6-12.1,8c-8.2,4.9-16.7,9.1-25.7,12.2
			c-3.9,1.4-7.8,2.8-11.8,4.1c-0.8,0.7-2,0.4-2.9,0.8c-10.1,2.5-20.2,4.7-30.5,5.8c-4.3,0.4-8.6,1-12.9,1.3
			c-0.3,0.2-0.6,0.2-0.9,0.1c-4.7,0.2-9.4,0.6-14.2,0.6c-27.9,0.1-55.7,0-83.6,0c-0.5,0-0.9,0-1.4-0.1c0-0.9-0.1-1.8-0.1-2.6
			c0-82.2,0-164.4,0-246.6c0-0.7-0.8-2,0.8-2.2c0.2,0.2,0.4,0.3,0.6,0.4c0.7,0.2,1.3,0.1,2,0.1c48.4,0,96.9,0,145.3,0
			c0.4,0,0.8,0,1.2,0c0.2,0,0.5-0.1,0.7-0.1c0.2-0.1,0.4-0.3,0.5-0.4c4.9-0.3,9.7,0.5,14.6,0.4c0.8,0.4,1.7,0,2.5,0.3
			c17.2,1.4,34.1,4.3,50.5,9.8C349.7,137.3,355.3,139.6,360.9,142z"/>
		<path class="st7" d="M240.6,92.7c0.9,0,1.9,0,3.2,0c-1.1,0.6-1.8,0.4-2.5,0.4c-48.2,0-96.3,0-144.5,0c-0.8,0-1.8-0.3-2.6,0.3
			c-0.3,0.2-0.4,0.5-0.3,0.9c0.2,0.7,0.1,1.5,0.1,2.2c0,79.9,0,159.9,0,239.8c0,0.7,0.1,1.5-0.1,2.2c0,12.8,0,25.5-0.1,38.3
			c0,8.9,0,17.8-0.1,26.8c-0.3,0-0.5-0.1-0.6-0.4c-0.1-0.6,0-1.2,0-1.8c0-75.1,0-150.2,0-225.3c0-27,0-54,0-81
			c0-0.8-0.4-1.8,0.6-2.4c0.1-0.1,0.3-0.3,0.4-0.4c0.8,0.4,1.6,0.2,2.4,0.2c47.2,0,94.4,0,141.5,0C239,92.5,239.9,92.3,240.6,92.7z"
			/>
		<path class="st20" d="M94,338.6c0-1.2-0.1-2.4-0.1-3.7c0-79.5,0-158.9,0-238.4c0-0.7,0.1-1.5,0.1-2.2c0.5,0.7,0.3,1.4,0.3,2.1
			c0,79.9,0,159.8,0,239.7C94.3,337,94.5,337.8,94,338.6z"/>
		<path class="st21" d="M93.5,176c0,75,0,150.1,0,225.1c0,0.8-0.3,1.8,0.4,2.5c0,0.1,0,0.3,0,0.4c-0.3,0.1-0.7,0.3-0.8-0.2
			c-0.1-0.5,0-1.1,0-1.6c0-75.4,0-150.8,0-226.2C93.2,175.8,93.4,175.8,93.5,176z"/>
		<path class="st22" d="M126,125.2c0-0.1,0-0.2,0-0.3c0.7,0,1.5-0.1,2.2-0.1c48.7,0,97.4,0,146.1,0c0.7,0,1.3,0.1,2,0.1
			c0,0.1,0,0.2,0,0.4c-0.6,0.5-1.4,0.4-2.1,0.4c-49,0-98.1,0-147.1,0C126.7,125.6,126.3,125.5,126,125.2z"/>
		<path class="st23" d="M293.5,125.5c-0.8,0-1.7,0.2-2.5-0.3C291.8,125.3,292.7,124.9,293.5,125.5z"/>
		<path class="st24" d="M211.4,63.4c1.1,0,2.2,0,3.3,0c0.9,0,1.9,0,2.8,0c-1,0.7-2.4,0-3.3,1.4c-0.3,0.5-1.9,0.5-2.6-0.2
			c-1-0.9-2.1-0.9-3.2-0.9c-46.7,0-93.5,0-140.2,0c-3,0-3,0-3,3c0,101.6,0,203.2,0,304.9c0,0.9,0.4,1.9-0.4,2.7
			c0-103.5,0-207,0-310.6c0.1-0.1,0.3-0.3,0.4-0.4c0.7-0.4,1.5-0.2,2.2-0.2c47.3,0,94.6,0,142,0C209.9,63.2,210.7,63,211.4,63.4z"/>
		<path class="st25" d="M91.5,176c0,75.1,0,150.1,0,225.2c0,0.6,0.2,1.3-0.1,1.8c-0.3,0.7-0.5,0.1-0.8-0.2c0.6-0.9,0.4-2,0.4-3
			c0-73.8,0-147.6,0-221.3C91.1,177.7,90.7,176.8,91.5,176z"/>
		<path class="st26" d="M240.6,92.7c-47.9,0-95.9,0-143.8,0c-0.8,0-1.8,0.3-2.5-0.4c47.9,0,95.9,0,143.8,0
			C239,92.3,239.9,92,240.6,92.7z"/>
		<path class="st27" d="M93.5,176l-0.2,0c0,0-0.2,0-0.2,0c0-27.6,0-55.3,0-82.9c0-0.7,0.4-0.6,0.8-0.4c-0.5,0.9-0.4,1.8-0.4,2.8
			C93.5,122.3,93.5,149.2,93.5,176z"/>
		<path class="st6" d="M64.6,374.4c0.1,0.8,0.2,1.7,0.2,2.5C64.1,376.1,64,375.3,64.6,374.4z"/>
		<path class="st28" d="M127.4,376.9c28.2,0,56.5,0,84.7,0c0,0.1,0,0.1,0,0.2c-28.3,0-56.5,0-84.8,0
			C127.3,377,127.3,377,127.4,376.9z"/>
		<path class="st29" d="M126.3,377.5c0,9.6,0,19.2,0,28.9c-0.1,0-0.1,0-0.2,0c0-9.6,0-19.2,0-28.9
			C126.2,377.5,126.2,377.5,126.3,377.5z"/>
		<path class="st30" d="M230.9,376c2.6,0.8,5.5,0,8.4,1.5c-1.6,0.4-2.9-0.3-4.2-0.2c-1.8,0-3.5,0.2-5.3,0c-0.1,0-0.9,0.1-0.3-0.4
			c0.1-0.1,0.4,0,0.6,0C230.3,376.5,230.6,376.3,230.9,376z"/>
		<path class="st31" d="M368.7,146.3c1.8,0.7,3.4,1.6,4.9,2.8C371.1,149.5,369.4,148.5,368.7,146.3z"/>
		<path class="st32" d="M230.9,376c0,0.5-0.3,0.8-0.8,0.8c-0.6-0.6-1.4-0.5-2-0.3c-1.3,0.5-2.5,0.2-3.7-0.1c0-0.2,0-0.4,0-0.6
			c0.3,0,0.6-0.1,0.9-0.1C227.1,376.8,229,375.6,230.9,376z"/>
		<path class="st32" d="M224.4,376.7c-1.4,0.9-2.9,0.5-4.7,0.5C221.4,376.3,222.9,376.4,224.4,376.7z"/>
		<path class="st33" d="M376,211.8c-0.6-1.6-0.3-3.3-0.3-4.9C376.4,208.5,375.8,210.2,376,211.8z"/>
		<path class="st34" d="M375.7,226.4c0.1-1.6-0.3-3.3,0.3-4.9C375.8,223.1,376.4,224.8,375.7,226.4z"/>
		<path class="st35" d="M361.8,142.6c0.1-0.6,0.2-1.2,0.7-1.7c0.8,0.7,0.4,1.4,0.1,2.1C362.3,142.9,362.1,142.8,361.8,142.6z"/>
		<path class="st36" d="M268.7,368.7c0.9-0.5,1.8-0.9,2.9-0.8C271,369.6,269.7,368.6,268.7,368.7z"/>
		<path class="st37" d="M359,299.2c0.2-0.6,0.4-1.2,0.7-2C360,298.4,360,298.4,359,299.2z"/>
		<path class="st28" d="M321.1,344.3c0-0.3,0-0.6,0-0.8c0,0,0,0,0,0c0.6,0.1,1.2-0.2,1.8,0.5C322.4,344.5,321.7,344.2,321.1,344.3
			L321.1,344.3z"/>
		<path class="st38" d="M376.2,230.8c-0.1-0.8-0.4-1.6,0-2.5C376.6,229.3,376.4,230.1,376.2,230.8z"/>
		<path class="st39" d="M341.5,324c0.1-0.8,0.7-1.2,1.2-1.6C342.8,323.3,342.2,323.7,341.5,324z"/>
		<path class="st40" d="M372.8,179.3c-0.6-0.6-0.4-1.3-0.3-2C373,177.8,372.7,178.6,372.8,179.3z"/>
		<path class="st28" d="M321.1,344.3c0,0.4-0.1,0.8-0.7,0.7c-0.1,0-0.3-0.2-0.2-0.2C320.3,344.3,320.8,344.4,321.1,344.3
			L321.1,344.3z"/>
		<path class="st41" d="M123.6,409.8c-8.9,0-17.9,0-26.8,0c0.4-0.3-0.5-1.5,0.8-1.2c0.3,1.2,1.3,0.8,2,0.8c7.3,0,14.6,0,21.9,0
			C122.2,409.4,123,409.1,123.6,409.8z"/>
		<path class="st42" d="M124.8,410.2c0,8.5,0,17,0,25.5c-0.1,0-0.2,0-0.4,0c0-8.5,0-17,0-25.5C124.5,410,124.6,410,124.8,410.2z"/>
		<path class="st10" d="M124.8,410.2c-0.1,0-0.2,0-0.4,0c-0.1-0.3-0.2-0.6-0.2-0.9c0,0,0.2-0.1,0.3-0.1
			C124.9,409.4,124.7,409.8,124.8,410.2z"/>
		<path class="st3" d="M211.4,63.4c-48.8,0-97.6,0-146.3,0c-0.5-0.1-0.9-0.4-0.1-0.5c0.8-0.2,1.7,0.1,2.6,0.1c48,0,95.9,0,143.9,0
			l0,0C211.4,63.1,211.4,63.3,211.4,63.4z"/>
		<path class="st3" d="M211.4,63c0.5-0.5,1-0.5,1.7-0.2C212.5,63.2,211.9,62.9,211.4,63C211.4,63,211.4,63,211.4,63z"/>
		<path class="st21" d="M92.7,404.9c-0.5,0-0.8-0.3-0.8-0.8c0.7-0.7,0.4-1.7,0.4-2.5c0-74.2,0-148.4,0-222.7c0-0.8,0-1.6,0-2.4
			c0.1,0,0.3,0,0.4,0C92.7,252.6,92.7,328.7,92.7,404.9z"/>
		<path class="st43" d="M232.4,270.1c0-11.7,0-23.3,0-35c0-1.2,0-1.9,1.6-1.9c12.3,0.1,24.7-0.1,37,0.2c7.7,0.2,15,2,21.4,6.5
			c8.9,6.2,12.8,15.1,13.5,25.6c0.5,7.2-0.1,14.2-3,20.9c-4.5,10.7-13.1,16.5-24,19.3c-4.4,1.1-9,1.3-13.5,1.3
			c-10.4,0-20.7,0-31.1,0c-1.6,0-2-0.4-2-2C232.5,293.4,232.4,281.7,232.4,270.1z"/>
		<path class="st44" d="M126,125.2c0.3,0,0.5,0,0.8,0c0.8,0.4,1.6,0.2,2.4,0.2c48.3,0,96.5,0,144.8,0c0.8,0,1.6-0.2,2.4,0.2
			c-0.6,0.7-1.4,0.4-2.1,0.4c-48.9,0-97.7,0-146.6,0C127.2,126,125.9,126.9,126,125.2z"/>
		<path class="st45" d="M276.4,125.6c-49.1,0-98.2,0-147.3,0c-0.8,0-1.6,0.3-2.3-0.4c49.9,0,99.7,0,149.6,0
			C276.4,125.3,276.4,125.5,276.4,125.6z"/>
	</g>
</g>
</svg>
