<?xml version="1.0" encoding="utf-8"?>
<!-- Generator: Adobe Illustrator 22.1.0, SVG Export Plug-In . SVG Version: 6.00 Build 0)  -->
<svg version="1.1" id="Layer_1" xmlns="http://www.w3.org/2000/svg" xmlns:xlink="http://www.w3.org/1999/xlink" x="0px" y="0px"
	 viewBox="0 0 500 500" style="enable-background:new 0 0 500 500;" xml:space="preserve">
<style type="text/css">
	.st0{fill:#FFFFFF;}
	.st1{fill:#F58521;}
	.st2{fill:#F9A055;}
	.st3{fill:#FCBC84;}
	.st4{fill:#FEDCBD;}
	.st5{fill:#FCBE87;}
	.st6{fill:#23428E;}
	.st7{fill:#F68521;}
	.st8{fill:#FEFEFF;}
	.st9{fill:#FFFEFF;}
</style>
<g>
	<g>
		<path class="st0" d="M293.9,18.5c62.3,0,124.7,0,187,0c1.1,0,1.3,0.2,1.3,1.3c0,153.7,0,307.4,0,461.1c0,1.1-0.2,1.3-1.3,1.3
			c-153.7,0-307.4,0-461.1,0c-1.1,0-1.3-0.2-1.3-1.3c0-154.1,0-308.2,0-462.3c84.1,0,168.2,0,252.3,0c0.1,0.1,0.1,0.3,0,0.4
			c-1.2,0.4-2.4,0.4-3.6,0.5c-12.6,0.7-24.9,2.6-37.2,5.4c-14,3.2-27.6,7.8-40.7,13.6c-10.6,4.6-20.7,10.1-30.4,16.3
			c-9,5.7-17.5,11.9-25.6,18.8c-1.3,1.1-2.6,2.3-3.9,3.4c-0.8,0.7-0.7,1.2,0,1.8c1.2,1.2,2.5,2.4,3.7,3.7
			c5.7,5.7,11.4,11.4,17.1,17.1c1.2,1.2,1.3,1.3,2.6,0.2c6.5-5.5,13.2-10.6,20.3-15.3c12.7-8.4,26.2-15.3,40.5-20.5
			c11.9-4.4,24-7.7,36.5-9.7c6.3-1,12.6-1.8,18.9-2.2c5.6-0.4,11.2-0.6,16.8-0.5c6.4,0.2,12.9,0.6,19.3,1.3
			c11.8,1.3,23.3,3.7,34.6,7.1c9,2.7,17.8,6.1,26.4,10c9.8,4.5,19.1,9.8,28,15.8c6.2,4.2,12.2,8.7,17.8,13.7c0.3,0.3,0.7,0.5,1,0.8
			c0.6,0.5,1.2,0.4,1.7-0.1c5-5.1,10.2-9.9,15-15.2c1.9-2,3.9-3.9,5.8-5.9c1.1-1.1,1.2-1.2-0.1-2.3c-6.3-5.6-12.9-10.7-19.7-15.6
			c-9.6-6.8-19.8-12.9-30.4-18.1c-16.9-8.4-34.7-14.6-53.2-18.6c-8.4-1.8-16.9-3.2-25.5-4.1c-3.7-0.4-7.5-0.6-11.2-0.9
			c-0.5,0-0.9,0-1.4-0.3C293.8,18.8,293.8,18.7,293.9,18.5z"/>
		<path class="st1" d="M293.9,18.8c21.5,1.1,42.4,5,62.8,11.9c29.6,10,56.1,25.5,79.5,46.2c0.8,0.7,0.7,1,0,1.7
			c-7.3,7.2-14.5,14.5-21.7,21.8c-0.8,0.8-1.2,0.7-2,0c-12.5-10.9-26.2-20.1-41-27.5c-16.3-8.2-33.5-14.1-51.5-17.5
			c-13.1-2.5-26.4-3.7-39.8-3.6c-29,0.4-56.7,6.7-82.9,19.2c-16.4,7.8-31.4,17.7-45.1,29.6c-0.6,0.5-0.9,0.5-1.5,0
			c-7.4-7.4-14.7-14.8-22.2-22.1c-0.7-0.7-0.5-1,0.1-1.5c14.7-13,30.8-24,48.3-33c19.6-10.1,40.3-17.1,62-21.3
			c10.5-2,21.2-3.2,31.9-3.8c0.5-0.2,1.1-0.1,1.7-0.1c0.6,0,1.1,0,1.7,0c0.9-0.1,1.7,0.2,2.6-0.1c3.8,0,7.7,0,11.5,0
			c0.7,0.3,1.5,0.1,2.3,0.1c0.6,0,1.3,0,1.9,0C293,18.7,293.4,18.6,293.9,18.8z"/>
		<path class="st2" d="M276.8,18.5c-0.8,0.6-1.7,0.2-2.5,0.3c-0.1-0.1-0.1-0.1-0.1-0.2c0-0.1,0.1-0.1,0.1-0.1
			C275.1,18.5,275.9,18.5,276.8,18.5z"/>
		<path class="st2" d="M290.6,18.8c-0.8,0-1.6,0.3-2.3-0.2c0.7,0,1.5,0,2.2,0C290.6,18.6,290.6,18.6,290.6,18.8
			C290.6,18.7,290.6,18.8,290.6,18.8z"/>
		<path class="st3" d="M290.6,18.8c0-0.1,0-0.2,0-0.2c0.7,0,1.3,0,2,0c0.1,0,0.1,0.1,0.1,0.2c0,0.1,0,0.1-0.1,0.1
			C291.9,18.8,291.2,18.8,290.6,18.8z"/>
		<path class="st4" d="M272.5,18.8c-0.6,0-1.1,0-1.7,0c0-0.1,0-0.2,0-0.2c0.6,0,1.1,0,1.7,0c0.1,0.1,0.1,0.1,0.1,0.2
			C272.6,18.8,272.6,18.8,272.5,18.8z"/>
		<path class="st5" d="M272.5,18.8c0-0.1,0-0.2,0-0.2c0.6,0,1.1,0,1.7,0c0,0.1,0,0.2,0,0.3C273.7,18.8,273.1,18.8,272.5,18.8z"/>
		<path class="st4" d="M292.5,18.8c0-0.1,0-0.2,0-0.2c0.5,0,0.9,0,1.4,0c0,0.1,0,0.1,0,0.2C293.5,18.8,293,18.8,292.5,18.8z"/>
		<path class="st6" d="M109.8,95.5c0.4,0.4,0.7,0.6,0.9,0.9c7.4,7.3,14.7,14.7,22.1,22c0.6,0.6,0.6,0.9,0.1,1.6
			c-10.5,12-19.4,25.1-26.7,39.2c-8.5,16.4-14.5,33.7-18.2,51.8c-2.8,14-4.1,28.1-3.9,42.4c0.5,28.7,6.8,56.1,19.2,82.1
			c7.8,16.4,17.7,31.4,29.6,45.1c0.6,0.7,0.4,1-0.1,1.6c-7.3,7.3-14.7,14.6-21.9,22c-0.7,0.7-1.1,0.7-1.7-0.1
			c-9.9-11.3-18.7-23.3-26.4-36.3c-14.1-24-23.6-49.7-28.5-77.1c-2.9-16.5-4-33.1-3.3-49.8c1.3-31.7,8.7-61.9,22.4-90.5
			c9.4-19.6,21.3-37.5,35.7-53.8C109.4,96.2,109.6,95.8,109.8,95.5z"/>
		<path class="st1" d="M282.5,481.7c-35.8,0.1-69.8-7.7-102-23.4c-18.8-9.2-36-20.8-51.7-34.7c-0.7-0.7-0.8-1-0.1-1.7
			c7.3-7.3,14.6-14.5,21.9-21.9c0.6-0.6,1-0.8,1.8-0.1c19.1,16.6,40.7,29.2,64.6,37.6c13.9,4.9,28.3,8.1,43,9.8
			c16.2,1.9,32.4,1.8,48.6-0.4c39-5.3,73.4-20.8,103.4-46.3c1.7-1.5,1.7-1.5,3.4,0.2c7,7,13.9,14,20.9,21c0.8,0.8,0.7,1.2-0.1,1.9
			c-30,26.4-64.4,44-103.3,52.7c-13.5,3-27.3,4.8-41.1,5.3C288.6,481.8,285.5,481.7,282.5,481.7z"/>
		<path class="st7" d="M193.2,178.4c0.4,0.6,0.7,1.1,1,1.5c6.9,7,13.9,13.9,20.9,20.8c1.1,1.1,1.6,2.2,1.8,3.8
			c0.5,4.3,1.5,8.5,3.4,12.4c3.1,6.3,8.5,9.8,14.8,12.1c5.7,2.1,11.6,2.9,17.6,3.4c9.4,0.7,18.7,0.1,28.1-0.2
			c9.4-0.3,18.9-0.8,28.3-0.5c10.5,0.3,21,0.5,31.4,3c11.2,2.7,21.3,7.6,29.5,15.9c6,6.2,9.8,13.6,12.4,21.7
			c2.4,7.5,3.8,15.2,3.5,23.2c-0.3,9.8-3.6,18.7-8.5,27.2c-0.5,0.9-1,1.9-1.8,2.7c-5.6-5.6-11.1-11.3-16.9-16.8
			c-2.4-2.3-3.9-4.4-2.5-7.8c0.7-10.7-1-20.7-8.2-29c-4.5-5.2-10.7-7.8-17.1-9.6c-6.2-1.7-12.5-2.4-18.9-2.6
			c-11.6-0.4-23.2,0.5-34.8,0.8c-13.5,0.3-27.1,0.8-40.5-1.1c-9.1-1.3-17.9-3.6-25.9-8.5c-11.1-6.8-17.5-16.8-20.8-29.2
			c-2.2-8.1-3.2-16.2-2.3-24.6C188.4,190.7,190.3,184.6,193.2,178.4z"/>
		<path class="st6" d="M449.3,250.2c-0.4,40.3-13.3,76-39,107.1c-1.3,1.6-1.3,1.5-2.7,0.2c-4.9-4.9-9.8-9.8-14.7-14.7
			c-0.8-0.8-0.7-1.2-0.1-2c16-19.6,26.5-41.7,30.4-66.7c6.7-42.5-3.5-80.8-30.4-114.4c-0.7-0.9-0.7-1.3,0.1-2.1
			c5.1-5.1,10.2-10.2,15.3-15.3c0.7-0.7,1-0.4,1.5,0.1c5.1,6,9.7,12.3,13.9,19c11.8,18.7,19.5,38.9,23.2,60.6
			C448.6,231.3,449.4,240.7,449.3,250.2z"/>
		<path class="st6" d="M115.7,250.2c0-26.2,5.8-51,17.5-74.4c6-12,13.3-23.1,21.9-33.3c0.7-0.8,1-0.8,1.8-0.1
			c5,5.1,10.1,10.2,15.2,15.2c0.7,0.7,0.7,1.1,0.1,1.9c-15.4,18.8-25.5,40.1-30,64c-5.6,30.4-1.9,59.6,11.2,87.7
			c5,10.7,11.3,20.5,18.8,29.6c0.7,0.8,0.6,1.2-0.1,1.9c-5.1,5-10.2,10.1-15.2,15.2c-0.8,0.8-1.1,0.7-1.8-0.1
			c-16.7-19.9-28.3-42.3-34.5-67.5C117.2,276.7,115.7,264.2,115.7,250.2z"/>
		<path class="st7" d="M282.4,416.8c-40.5-0.2-76.3-13.2-107.5-39.1c-1-0.8-0.9-1.2,0-2.1c5-5,10-10,15-15c0.7-0.7,1-0.9,1.9-0.2
			c20.2,16.6,43.3,27,69.2,30.9c30,4.5,58.6-0.1,85.7-13.6c9.5-4.7,18.2-10.5,26.4-17.2c0.9-0.8,1.3-0.6,2.1,0.2
			c4.9,5,9.9,10,14.9,14.9c1,1,0.8,1.4-0.2,2.2c-16.6,13.9-35.1,24.3-55.6,31c-14,4.6-28.3,7.2-43,8
			C288.3,416.9,285.4,416.8,282.4,416.8z"/>
		<path class="st7" d="M237,313.7c1.6,3.2,3.3,6.3,5.5,9c8.1,10,18.5,16,31.1,18.3c14.2,2.6,28.1,0.8,41.8-3.5
			c8.5-2.7,16.7-6,24-11.3c0.6-0.4,0.9-0.4,1.4,0.1c5.5,5.6,11.1,11.1,16.7,16.7c0.8,0.8,0.1,1-0.4,1.4
			c-7.8,5.8-16.3,10.2-25.3,13.8c-14.8,5.9-30.2,9.2-46.1,9.7c-14,0.4-27.6-1.6-40.4-7.5c-11.9-5.4-21.3-13.8-28.5-24.6
			c-0.6-0.9-0.6-1.4,0.2-2.2c6.4-6.3,12.7-12.6,19-18.9C236.2,314.4,236.6,314.1,237,313.7z"/>
		<path class="st7" d="M207.7,158.5c5.4-4.2,11.1-7.5,17-10.4c12.6-6.2,25.9-10.4,39.8-12.5c16.3-2.4,32.4-2.3,48.3,2.9
			c15.4,5,27.5,14.3,36.5,27.7c0.6,0.9,0.6,1.4-0.2,2.2c-6.4,6.4-12.8,12.7-19.2,19.2c-0.7,0.7-1,0.7-1.5-0.2
			c-7.3-14.2-19.1-22.6-34.5-26c-13.3-2.9-26.5-1.5-39.5,2.1c-9.3,2.5-18.3,6-26.4,11.5c-2.1,1.4-2.1,1.4-3.9-0.4c-5-5-10-10-15-15
			C208.7,159.1,208.2,158.8,207.7,158.5z"/>
		<path class="st6" d="M291.9,300.5c0-8.9,0-17.4,0-25.9c0-1.3,0.4-1.5,1.6-1.5c3.9,0.1,7.9,0.1,11.8,0c0.9,0,1.3,0.2,1.3,1.2
			c0,15.8,0,31.7,0,47.5c0,1-0.3,1.3-1.3,1.2c-4,0-8.1,0-12.1,0c-0.9,0-1.4-0.3-1.9-1c-5.8-8.6-11.7-17.2-17.7-25.9
			c-0.3,0.5-0.2,0.9-0.2,1.4c0,8.1,0,16.2,0,24.3c0,1.1-0.3,1.3-1.3,1.3c-4-0.1-8-0.1-11.9,0c-1,0-1.4-0.2-1.4-1.3
			c0-15.8,0-31.6,0-47.3c0-1.1,0.3-1.3,1.3-1.3c4,0.1,8,0.1,11.9,0c0.9,0,1.4,0.3,1.9,1c5.8,8.5,11.6,17,17.3,25.5
			C291.4,299.8,291.6,300,291.9,300.5z"/>
		<path class="st6" d="M282.7,177.4c7.3,0,14.6,0,21.9,0c1.2,0,1.5,0.3,1.4,1.5c-0.1,3.2-0.1,6.5,0,9.7c0,1-0.3,1.3-1.2,1.3
			c-4.3-0.1-8.6,0-12.9-0.1c-1.3,0-1.5,0.4-1.5,1.6c0,11.5,0,23,0.1,34.6c0,1.2-0.3,1.5-1.5,1.4c-4.2-0.1-8.3-0.1-12.5,0
			c-1.2,0-1.6-0.2-1.6-1.5c0.1-11.4,0-22.8,0.1-34.3c0-1.4-0.3-1.8-1.7-1.8c-4.3,0.1-8.5,0-12.8,0.1c-0.9,0-1.2-0.3-1.2-1.2
			c0.1-3.3,0.1-6.6,0-9.8c0-1.1,0.3-1.4,1.4-1.4C268,177.5,275.3,177.4,282.7,177.4z"/>
		<path class="st6" d="M354.3,105.7c2.9,2.2,3.6,5.3,4.1,8.4c0.5,3.4,1,6.7,1.5,10.4c-2.1-0.7-4.1-1.4-6-2c-1.6-0.5-3.2-1.2-4.8-1.6
			c-1.1-0.3-1.3-0.9-1.5-1.9c-0.6-4.1-1.3-8.1-2-12.2c-0.3-1.7-1.2-2.9-2.7-3.6c-0.8-0.4-1.3-0.3-1.6,0.7c-1.3,3.9-2.7,7.7-3.9,11.5
			c-0.3,1-0.7,1.2-1.7,0.8c-2.8-1-5.5-2-8.3-2.9c-0.8-0.3-1.1-0.5-0.8-1.5c3.7-10.7,7.4-21.3,11.1-32c0.2-0.6,0.2-1.2,1.2-0.8
			c6.8,2.5,13.7,4.6,20.4,7.3c2.9,1.2,5.5,2.9,6.5,6.1c1.7,5.3-1.7,13.4-9.6,13.3C355.6,105.7,355.1,105.7,354.3,105.7z"/>
		<path class="st6" d="M309.1,110.2c-2.9,0-5.8-0.4-8.6-1.3c-7.5-2.4-11.9-9.3-11.2-17.7c0.2-2.2,0.4-4.4,1.1-6.5
			c2-6.9,7.2-11.2,14.4-11.9c4.2-0.4,8.4,0.1,12.4,1.8c5.4,2.3,8.5,6.5,9.4,12.3c0.6,4,0.2,8-1,11.9
			C323.2,106.2,317.4,110.2,309.1,110.2z"/>
		<path class="st6" d="M197.7,102.7c-0.2,0.5-0.6,0.6-0.9,0.8c-4.4,3.1-8.8,6.1-13.3,9.1c-0.9,0.6-1,1.1-0.3,1.9
			c0.7,0.8,1.3,1.7,1.8,2.7c0.4,0.8,0.8,0.8,1.5,0.3c4.1-2.9,8.2-5.7,12.3-8.6c0.9-0.6,1.3-0.5,1.8,0.3c0.9,1.4,1.8,2.8,2.9,4.2
			c0.6,0.7,0.4,1.1-0.3,1.6c-4.1,2.8-8.2,5.7-12.4,8.5c-0.8,0.6-0.9,0.9-0.3,1.7c0.9,1.2,1.8,2.5,2.6,3.8c0.5,0.9,0.9,0.8,1.7,0.3
			c4.6-3.2,9.2-6.4,13.8-9.6c0.7-0.5,1.1-0.6,1.6,0.2c1.1,1.7,2.3,3.4,3.5,5.1c0.5,0.7,0.3,1-0.3,1.4c-7.9,5.4-15.7,10.8-23.5,16.3
			c-0.5,0.4-0.8,0.4-1.2-0.2c-6.5-9.4-13-18.9-19.5-28.3c-0.4-0.6-0.4-0.9,0.2-1.3c7.7-5.3,15.4-10.6,23.1-15.9
			c0.6-0.4,0.9-0.5,1.3,0.2c1.1,1.7,2.3,3.4,3.5,5.1C197.5,102.4,197.6,102.5,197.7,102.7z"/>
		<path class="st6" d="M236.6,101.9c-2.5,0.2-5.3,0.6-8.1,0.5c-3-0.1-5.8-0.6-8.1-2.6c-4.2-3.8-4.3-10.4,0.2-14.3
			c5.1-4.5,11.1-6.6,18-5.9c3.7,0.4,6,2.9,7.6,6c0.3,0.5,0.1,0.7-0.4,0.9c-2.8,1.1-5.6,2.3-8.4,3.5c-0.5,0.2-0.8,0.1-1.1-0.4
			c-2.1-3.3-5.2-2.7-7.6-1.3c-1.1,0.7-1.8,1.7-1.4,3.1c0.4,1.4,1.5,1.5,2.7,1.5c3.4-0.1,6.7-0.8,10.1-0.7c1.3,0,2.5,0,3.8,0.2
			c4.2,0.6,7.2,2.9,8.5,7c1.4,4.4,0.5,8.4-2.7,11.7c-3.6,3.8-8.3,5.3-13.2,6.3c-3.5,0.8-6.9,0.8-10-1.3c-2.1-1.4-3.6-3.2-4.8-5.4
			c-0.4-0.7-0.4-1.1,0.5-1.4c2.7-1,5.3-2.1,7.9-3.3c0.8-0.4,1.2-0.2,1.6,0.6c2.1,3.3,5.3,4.1,8.7,2.1c1.7-1,2.6-2.7,2.2-4.3
			c-0.4-1.4-1.8-2.3-3.7-2.4C238.1,101.8,237.5,101.9,236.6,101.9z"/>
		<path class="st6" d="M284.9,84.3c0,5.5-3.2,9.3-9.1,10.7c-2.6,0.6-5.2,0.8-7.8,1.1c-1.1,0.1-1.2,0.5-1.1,1.4
			c0.5,3.5,0.8,7,1.3,10.4c0.2,1.1,0.1,1.7-1.4,1.8c-2.8,0.2-5.7,0.7-8.5,1c-0.7,0.1-1.2,0.1-1.3-0.9c-1.3-11.3-2.7-22.6-4-33.8
			c-0.1-0.7-0.1-1,0.7-1.1c6.6-0.7,13.2-1.9,19.8-2.2C280.9,72.4,284.9,76.8,284.9,84.3z"/>
		<path class="st6" d="M399.2,119.3c-0.3-0.2-0.5-0.3-0.8-0.5c-2.4-1.6-4.9-3.1-7.2-4.8c-0.9-0.6-1.3-0.7-2,0.3
			c-4.4,6.8-9,13.6-13.4,20.4c-0.7,1-1.1,1-2,0.4c-2.2-1.6-4.5-3.1-6.8-4.5c-1.1-0.7-1.3-1.1-0.5-2.3c4.5-6.7,8.9-13.5,13.4-20.2
			c0.6-0.9,0.6-1.2-0.4-1.8c-2.6-1.6-5.1-3.3-7.6-5c-0.5-0.3-0.8-0.6-0.4-1.3c1.4-2,2.7-4,4-6.1c0.3-0.5,0.6-0.7,1.2-0.3
			c8.9,6,17.9,11.9,26.9,17.8c0.4,0.3,0.7,0.5,0.3,1c-1.4,2.1-2.8,4.3-4.3,6.4C399.6,119.1,399.5,119.4,399.2,119.3z"/>
		<path class="st8" d="M354.9,94.7c0,2.2-1.7,3.7-3.9,3.5c-2.2-0.2-4.1-1.1-6.2-1.7c-0.6-0.2-0.8-0.4-0.6-1.1
			c0.7-1.8,1.3-3.6,1.9-5.4c0.1-0.4,0.2-0.7,0.8-0.5c2,0.8,4.2,1.3,6.1,2.3C354.4,92.6,354.9,93.5,354.9,94.7z"/>
		<path class="st0" d="M315.5,90c0,2.4-0.3,4.8-1.1,7.1c-1.2,3.3-3.7,4.8-7.2,4.5c-3.4-0.3-5.9-2.5-6.5-5.7
			c-0.6-3.3-0.2-6.6,0.9-9.8c1.2-3.5,4.1-5.2,7.5-4.8c3.9,0.5,6.2,2.9,6.5,6.7C315.6,88.7,315.5,89.4,315.5,90z"/>
		<path class="st9" d="M269.3,80.5c0.5,0,1.3,0.1,2,0.2c1.4,0.3,2.5,1.6,2.7,3.2c0.2,1.6-0.6,3-2.1,3.8c-1.6,0.8-3.4,0.8-5.2,1.1
			c-0.7,0.1-0.8-0.3-0.8-0.8c-0.2-2.1-0.5-4.2-0.7-6.3c-0.1-0.6,0.1-0.8,0.7-0.8C266.9,80.8,267.9,80.6,269.3,80.5z"/>
	</g>
</g>
</svg>
