<?xml version="1.0" encoding="utf-8"?>
<!-- Generator: Adobe Illustrator 22.1.0, SVG Export Plug-In . SVG Version: 6.00 Build 0)  -->
<svg version="1.1" id="Layer_1" xmlns="http://www.w3.org/2000/svg" xmlns:xlink="http://www.w3.org/1999/xlink" x="0px" y="0px"
	 viewBox="0 0 500 500" style="enable-background:new 0 0 500 500;" xml:space="preserve">
<style type="text/css">
	.st0{fill:#FFFFFF;}
	.st1{fill:#4569B2;}
	.st2{fill:#4E4E4E;}
	.st3{fill:#F3BA2B;}
	.st4{fill:#1D8D45;}
	.st5{fill:#D12F2D;}
	.st6{fill:#CD2E2A;}
	.st7{fill:#1C8843;}
	.st8{fill:#4E4E4F;}
	.st9{fill:#C82A27;}
	.st10{fill:#4F4F4F;}
	.st11{fill:#CB2A29;}
	.st12{fill:#505050;}
	.st13{fill:#4969B2;}
	.st14{fill:#D32E2B;}
	.st15{fill:#D5322E;}
	.st16{fill:#FCFCFC;}
	.st17{fill:#FEFEFE;}
</style>
<g>
	<g>
		<circle class="st0" cx="251" cy="251" r="353.6"/>
		<path class="st1" d="M102.5,245c-0.9-3.9-3-7.3-5-10.7c-14.3-23.8-28.7-47.5-43-71.3c-3.6-6-7.6-11.7-10.5-18
			c-1.2-2.6,1.1-3.1,2.4-4c3.7-2.6,6.6-6,8.6-10c1.7-3.4,1-4.4-2.7-4.6c-2.6-0.1-5.3,0.1-7.9-0.1c-1.6-0.1-3.8,0.5-4.3-2.1
			c9.9-1.9,19.8-0.7,29.7-0.8c0.9,0.3,1.6,0.9,2.1,1.8c3.8,6.7,8,13.2,12,19.8c9.9,16.6,20,33.2,30,49.8c9.2,15.7,18.8,31,28,46.7
			c2.9,4.9,5.7,9.8,9,14.4c4.2,8,9.4,15.4,13.9,23.3c0.9,1.6,2.2,3,1.6,5c-4.8,9.4-10.7,18.1-16.1,27.2c-2.2,3.6-3.8,7.7-7,10.7
			c-1.3-0.9-1.5-2.2-1.4-3.5c0.6-6.3-2.1-11.5-5.4-16.6c-3.6-5.6-6.7-11.4-10.3-16.9C118.2,271.7,109.9,258.6,102.5,245z"/>
		<path class="st2" d="M269.9,224.2c-7.3,0-14.6-0.2-21.9,0.1c-3.4,0.1-4.5-1-4-4.2c0.4-3.2-1.4-7.4,0.8-9.6c2-1.9,6-0.5,9.2-0.6
			c9.5-0.1,19,0,28.5,0c1.6,0,3.4-0.4,3.6,2.2c1.6,16.4-2.7,34.2-20.2,44c-21.3,11.9-55.2,5-64.7-28.2c-6.2-21.6,2.7-44.1,20.7-54.7
			c16.4-9.7,38-7.6,51.5,4.9c3.4,3.1,3.4,3.1,0.2,6.5c-1.7,1.8-3.6,3.5-5.2,5.4c-1.8,2.3-3.1,2.5-5.5,0.3c-8.6-7.7-18.7-9.1-29.3-5
			c-12.1,4.6-19.5,17.6-18.4,31.4c1.2,14.2,9.2,24.8,21.8,27.8c15.2,3.5,27.7-2.9,32-15C269.7,227.8,270.4,226.3,269.9,224.2z"/>
		<path class="st2" d="M451.9,224.2c-7.3,0-14.6-0.2-21.9,0.1c-3.4,0.1-4.4-1-4-4.2c0.4-3.2-1.4-7.4,0.8-9.6c2-1.9,6-0.5,9.2-0.6
			c9.2-0.1,18.3,0,27.5,0c4.5,0,4.5,0,4.8,4.7c0.8,14.1-2.6,26.7-13.4,36.6c-17,15.7-52.1,14.6-67.3-12.8
			c-13.8-24.8-3.8-57.1,21.4-67.6c16.3-6.8,31.9-4.7,45.8,6.6c4.3,3.5,4.3,3.6,0.6,7.5c-1.5,1.6-3.2,3-4.5,4.7
			c-2.1,2.8-3.6,2.6-6.2,0.3c-11.3-9.9-28.5-8.9-38.8,1.9c-14.5,15.1-10.9,46.5,13.4,52.5c15.2,3.8,28.1-2.9,32.4-15.9
			C451.9,227.1,452.3,225.9,451.9,224.2z"/>
		<path class="st2" d="M300,213.9c0-13.7,0.1-27.3-0.1-41c0-2.9,0.5-4.1,3.8-4c11,0.5,22-0.8,32.9,0.8c19.5,2.8,33.4,17.3,35.3,37
			c0.9,9.5,0.5,18.9-3.4,27.9c-6.6,15-18.3,23-34.3,24.2c-10.3,0.8-20.6,0.2-31,0.4c-2.8,0.1-3.3-1-3.3-3.5
			C300,241.9,300,227.9,300,213.9z"/>
		<path class="st3" d="M126.7,283.8c4.8,7.9,9.6,15.8,14.4,23.7c2.8,4.5,1.6,9.7,2,14.5c-7.9,15.9-17.7,30.8-26.9,45.9
			c-3.9,6.4-10.7,9.6-18.2,9.8c-9.5,0.2-19,0.4-28.4-0.2c-1-2.1,0.9-3.4,1.7-4.8c8.5-14.4,17.3-28.7,25.9-43
			c8.3-13.5,16.3-27.2,24.5-40.8C123,286.9,123.7,284.2,126.7,283.8z"/>
		<path class="st4" d="M126.7,283.8c-6,8.3-10.6,17.5-16.2,26.1c-4.3,6.7-7.7,13.8-12.5,20.1c-11.5,2.1-22.8,5.6-34.4,7.4
			c-2.9,0.5-5.7,1.7-8.7,0.5c5.4-10.3,11.7-20,17.6-30c9.2-15.4,18.4-30.7,27.6-46.1c3.1-5.2,3.6-10.9,2.4-16.8
			c1.6,0.2,2,1.6,2.6,2.7C112.3,259.7,119.5,271.8,126.7,283.8z"/>
		<path class="st5" d="M112.9,195.1c-6.7-9.8-12.4-20.3-18.6-30.4c-3.9-6.5-8.2-12.8-11.6-19.6c4.2-4,4.7-9.6,5.9-14.7
			c0.5-2.2,0.5-4.6,2.7-6c3.5-1.2,7,0.9,10.5-0.2c6.9,1.3,12,5.1,15.6,11.1c5.2,8.8,10.8,17.4,15.6,26.4c0.7,1.6,0.8,3.1,0,4.8
			c-4.7,10.1-10.9,19.1-18.1,27.6C114.5,194.6,113.8,195,112.9,195.1z"/>
		<path class="st6" d="M112.9,195.1c6.7-8.9,13.7-17.7,18.5-27.9c0.8-1.8,1.8-3.5,1.8-5.6c8.7,13.2,16.3,26.9,24.6,40.4
			c2.4,4,4.7,8,7,12c-4,7.3-9.9,13.2-15.4,19.3c-2.6,2.9-5,6.2-8.3,8.5c-7.5-11.1-14-22.8-20.9-34.3
			C117.6,203.5,114.8,199.6,112.9,195.1z"/>
		<path class="st7" d="M54.9,338c6.2-1.3,12.4-2.9,18.7-3.8c7.5-1.1,14.5-3.5,21.8-5.4c1.5-0.4,2.6-0.8,2.7,1.3
			c-3.9,8-9,15.3-13.5,23c-4.8,8.2-9.9,16.3-14.9,24.5c-9.1,0.6-18.3,0.4-27.4,0.2c-5.9-0.2-8.5-4.6-5.6-9.6
			C42.5,357.9,48.3,347.7,54.9,338z"/>
		<path class="st8" d="M346.1,323.5c-5.9,9.6-15,13.3-25.1,10.6c-8.9-2.4-14.6-10.5-15.2-20.5c-0.7-13.4,9-24.5,22.4-23.5
			c11.1,0.8,19.7,10.7,18.9,21.8c-0.2,2.4-1.5,2.2-3,2.2c-8.3,0-16.7,0-25,0c-1.6,0-3.3-0.4-5.1,0.5c0.1,5.7,2.8,9.8,7.9,12.1
			c5,2.3,9.8,1.6,14-2c1.4-1.2,2.5-3.8,3.7-3.7C341.7,320.9,343.7,322.4,346.1,323.5z"/>
		<path class="st9" d="M166.2,284.2c-5.4-9.3-11.5-18.2-16.4-27.8c-0.6-1.7,0.8-2.4,1.7-3.2c7.3-7.2,15-14,20.8-22.6
			c0.4-0.6,1-0.9,1.7-0.6c1.9,2.8,3.9,5.5,5.6,8.4c4.2,7.2,5.2,14.7,1,22.1C176.2,268.6,171.7,276.7,166.2,284.2z"/>
		<path class="st2" d="M447.8,290c12.4-0.1,21.8,9.4,22,22.2c0.2,12.7-9.2,22.6-21.5,22.7c-12.5,0.1-21.8-9.4-21.9-22.3
			C426.1,299.9,435.4,290.1,447.8,290z"/>
		<path class="st10" d="M362.2,296.7c5.4-5.8,11.4-8,18.7-5.9c5.9,1.7,9.3,5.8,10.1,11.7c1.2,9.4,0.4,19,0.6,28.5
			c0.1,3.3-2.3,2.5-4.2,2.7c-2.3,0.2-3.8-0.2-3.7-3.1c0.2-6.7,0.1-13.3,0-20c0-1.7-0.1-3.3-0.3-5c-0.6-3.9-2.5-6.7-6.6-7.9
			c-4.3-1.2-7.9-0.3-11,2.8c-2.7,2.8-3.9,6.2-3.9,10c0,6.7-0.2,13.3,0.1,20c0.1,3.4-1.8,3.2-4.1,3.2c-2.4,0-4-0.1-4-3.4
			c0.2-11.7,0.1-23.3,0-35c0-2.4,0-4.2,3.3-4.1c2.8,0.1,5.1,0.2,4.4,3.9C361.8,295.4,362,295.8,362.2,296.7z"/>
		<path class="st2" d="M252.7,306.3c0-7.3,0-14.6,0-22c0-5,0-5-4.8-5c-3.2,0-6.3-0.2-9.5,0c-2.9,0.2-3.3-1.3-3.2-3.6
			c0.1-2.1-0.2-3.8,3-3.8c12.1,0.1,24.3,0.1,36.4,0c2.9,0,3.2,1.3,3.2,3.6c-0.1,2.1,0.1,4-3,3.8c-3-0.2-6,0-9,0
			c-5.5,0-5.5,0-5.5,5.3c0,15,0,30,0,44.9c0,4.1-0.1,4-4.2,4.1c-2.6,0.1-3.5-0.8-3.5-3.4C252.8,322.3,252.7,314.3,252.7,306.3z"/>
		<path class="st11" d="M174,230c-2.7,4.5-6,8.6-9.7,12.2c-4.8,4.7-9.7,9.5-14.5,14.2c-3.4-4.6-6.3-9.4-8.8-14.6
			c-0.1-1.5,1-2.3,1.9-3.3c6.2-6.8,12.7-13.2,17.9-20.8c1-1.5,2.6-2.5,3.9-3.7C167.9,219.3,171.6,224.3,174,230z"/>
		<path class="st10" d="M403.4,311.8c0-3.2-0.1-6.3,0-9.5c0.2-2.7-0.7-3.8-3.6-3.8c-3.3,0.1-5.2-3.2-3.7-6.2c0.9-1.9,2.7-1.1,4-1
			c2.7,0.1,3.5-1,3.3-3.5c-0.2-2,0.1-4-0.1-6c-0.4-3.3,1.7-3.3,4-3.4c2.6-0.1,4.2,0.3,3.8,3.4c-0.2,2.1,0.1,4.3-0.1,6.5
			c-0.1,2.2,0.9,3,2.9,2.8c1.2-0.1,2.3,0,3.5,0c4.1,0.1,4.2,0.3,4.2,4.2c0,2.4-0.8,3.1-3.2,3.2c-7.4,0.4-7.4,0.5-7.4,7.8
			c0,4.3-0.1,8.6,0,13c0.2,5.8,1.5,7,7.5,7.3c3.4,0.2,2.7,3.2,3.3,5.1c0.6,1.8-1.3,2-2.6,2.1c-9.1,1.1-15.7-2-16-12.7
			C403.4,318.1,403.4,314.9,403.4,311.8C403.4,311.8,403.4,311.8,403.4,311.8z"/>
		<path class="st12" d="M287.1,297.7c4.3-5.5,9-8.4,15.5-7.3c2,0.4,2.9,1,2,3.3c-1,2.9-1.4,5.1-5.8,4.6c-6.4-0.8-11.5,5-11.7,12.2
			c-0.2,6.3-0.1,12.6,0,18.9c0,2.6,0,4.4-3.6,4.3c-3-0.1-4.5-0.5-4.4-4.1c0.2-11.5,0.2-22.9,0-34.4c0-3,0.7-4.1,3.9-4.1
			c3,0,4.4,0.8,3.9,3.9C286.8,295.7,287,296.4,287.1,297.7z"/>
		<path class="st13" d="M40,124.2c4,1.7,8.1,0.4,12.2,0.9c1.9,0.2,4.6-1.1,5.3,1.1c0.6,2-0.3,4.5-1.7,6.5c-3,4.5-6.3,8.8-11.5,11
			c-0.3,0.1-0.3,0.9-0.4,1.4c-2.9-3.6-5.1-7.7-7.3-11.7C34.2,128.6,35.2,126.1,40,124.2z"/>
		<path class="st14" d="M102,124.2c-3.5,1.9-7.3,0.4-11,0.8c-6.7,2.5-13.5,2.4-20.2,0.1c-0.8-0.3-0.7-1.1-1.1-1.7
			C80.5,123.5,91.3,122.4,102,124.2z"/>
		<path class="st15" d="M70.8,125.1c6.7,0,13.5-0.1,20.2-0.1c-0.9,5.9-2.3,11.7-4.3,17.4c-0.6,1.7-1.1,4.1-4,2.7
			C78.4,138.6,74.3,132,70.8,125.1z"/>
		<path class="st0" d="M316,214c0-8.3,0.1-16.7-0.1-25c-0.1-2.9,0.5-4.2,3.8-4c5.1,0.4,10.3-0.2,15.4,0.8
			c11.1,2.2,18.5,9.1,20.6,20.3c1.1,6.1,1.1,12.2-0.6,18.3c-3,10.7-11.2,17.7-22.2,18.4c-4.6,0.3-9.3,0.1-14,0.3
			c-2.6,0.1-3-1.1-2.9-3.3C316,231.3,316,222.7,316,214z"/>
		<path class="st16" d="M326.6,307.4c-3,0-6-0.1-9,0c-2.5,0.1-3.5-0.8-2.3-3.2c2.1-4.4,5.7-6.8,10.6-7.1c4.8-0.3,9.8,2.5,11.6,6.3
			c1.3,2.8,0.7,3.8-2.4,3.9C332.3,307.5,329.5,307.4,326.6,307.4z"/>
		<path class="st17" d="M434.1,312.6c-0.1-8.5,6-15.3,13.7-15.4c7.7-0.1,13.9,6.5,14.1,15c0.2,8.8-6,15.7-13.9,15.7
			C440.2,327.8,434.2,321.2,434.1,312.6z"/>
	</g>
</g>
</svg>
