<?xml version="1.0" encoding="utf-8"?>
<!-- Generator: Adobe Illustrator 22.1.0, SVG Export Plug-In . SVG Version: 6.00 Build 0)  -->
<svg version="1.1" id="Layer_1" xmlns="http://www.w3.org/2000/svg" xmlns:xlink="http://www.w3.org/1999/xlink" x="0px" y="0px"
	 viewBox="0 0 500 500" style="enable-background:new 0 0 500 500;" xml:space="preserve">
<style type="text/css">
	.st0{fill:#FFFFFF;}
	.st1{fill:#FDFDFD;}
	.st2{fill:#FEFDFA;}
	.st3{fill:#949599;}
	.st4{fill:#FCFBFA;}
	.st5{fill:#F5843E;}
	.st6{fill:#FDFCFC;}
	.st7{fill:#FEFDFB;}
	.st8{fill:#FDFDFB;}
	.st9{fill:#959699;}
	.st10{fill:#F4873A;}
	.st11{fill:#F4883B;}
	.st12{fill:#949699;}
	.st13{fill:#949598;}
	.st14{fill:#F4873B;}
	.st15{fill:#95969A;}
	.st16{fill:#FDFCFA;}
	.st17{fill:#FEFBF7;}
	.st18{fill:#F68C42;}
	.st19{fill:#EF8D4B;}
	.st20{fill:#F2893B;}
	.st21{fill:#EB8D4B;}
	.st22{fill:#949597;}
	.st23{fill:#929395;}
	.st24{fill:#949496;}
	.st25{fill:#8C8C8F;}
	.st26{fill:#8E8F91;}
	.st27{fill:#8F9092;}
	.st28{fill:#8E8E90;}
	.st29{fill:#8B8D8F;}
	.st30{fill:#EB8035;}
	.st31{fill:#8B8C8F;}
	.st32{fill:#E48642;}
	.st33{fill:#909193;}
	.st34{fill:#8F9193;}
	.st35{fill:#FBFCFE;}
	.st36{fill:#F3883A;}
	.st37{fill:#ED7F32;}
	.st38{fill:#FAF1E1;}
	.st39{fill:#EC8030;}
	.st40{fill:#E78E4E;}
	.st41{fill:#EC8E4D;}
	.st42{fill:#FCF3E6;}
	.st43{fill:#8C8E90;}
	.st44{fill:#E99F70;}
	.st45{fill:#F9F0E1;}
	.st46{fill:#E79462;}
	.st47{fill:#EE8E50;}
	.st48{fill:#E89058;}
	.st49{fill:#ECD7B9;}
	.st50{fill:#F4DCC4;}
	.st51{fill:#F7ECDA;}
	.st52{fill:#DF9D73;}
	.st53{fill:#E2AB6D;}
	.st54{fill:#F08C4C;}
	.st55{fill:#E2A16F;}
	.st56{fill:#E29567;}
	.st57{fill:#E09C6A;}
	.st58{fill:#E4AD89;}
	.st59{fill:#E1A16D;}
	.st60{fill:#E6A57E;}
	.st61{fill:#F8D0A8;}
	.st62{fill:#A64D4E;}
	.st63{fill:#E93A3D;}
	.st64{fill:#8B8A8D;}
	.st65{fill:#8B8E90;}
	.st66{fill:#919294;}
	.st67{fill:#8F8F93;}
	.st68{fill:#919193;}
	.st69{fill:#909093;}
	.st70{fill:#EC3538;}
	.st71{fill:#EB353A;}
	.st72{fill:#EC343A;}
	.st73{fill:#EB3537;}
	.st74{fill:#CC3437;}
	.st75{fill:#EC353A;}
	.st76{fill:#D33537;}
	.st77{fill:#DB3C3F;}
	.st78{fill:#EC3536;}
	.st79{fill:#E73535;}
	.st80{fill:#B34144;}
	.st81{fill:#AA494C;}
	.st82{fill:#D2393B;}
	.st83{fill:#B93B3F;}
	.st84{fill:#DB3D42;}
	.st85{fill:#B83B40;}
	.st86{fill:#ED3342;}
	.st87{fill:#D33A3B;}
	.st88{fill:#B83F42;}
	.st89{fill:#D93D45;}
	.st90{fill:#D1343C;}
	.st91{fill:#DC2A30;}
	.st92{fill:#EB3637;}
	.st93{fill:#E93842;}
	.st94{fill:#CC3B37;}
	.st95{fill:#CF3A39;}
	.st96{fill:#AF3C45;}
	.st97{fill:#F48739;}
	.st98{fill:#F58836;}
	.st99{fill:#F18947;}
	.st100{fill:#EE8D4E;}
	.st101{fill:#EC8F56;}
	.st102{fill:#E79C67;}
	.st103{fill:#E2A476;}
	.st104{fill:#E1A37B;}
	.st105{fill:#DD9A6D;}
	.st106{fill:#EA9058;}
	.st107{fill:#DA9866;}
	.st108{fill:#E09561;}
	.st109{fill:#E1A477;}
	.st110{fill:#DDA87D;}
	.st111{fill:#F4883A;}
	.st112{fill:#EC8C4A;}
	.st113{fill:#F3873E;}
	.st114{fill:#E89E6B;}
	.st115{fill:#E09259;}
	.st116{fill:#E19E67;}
	.st117{fill:#FEFEFE;}
	.st118{fill:#8F9093;}
	.st119{fill:#8E8F93;}
	.st120{fill:#8D8E90;}
	.st121{fill:#8D8F91;}
	.st122{fill:#8C8D8F;}
	.st123{fill:#F9EFE2;}
	.st124{fill:#DE9965;}
	.st125{fill:#DF9F73;}
	.st126{fill:#909092;}
	.st127{fill:#8D8F90;}
	.st128{fill:#FCF9F5;}
	.st129{fill:#E79664;}
	.st130{fill:#F58739;}
	.st131{fill:#F6EADA;}
	.st132{fill:#F9ECD7;}
	.st133{fill:#E3833F;}
	.st134{fill:#F8E7D2;}
	.st135{fill:#E0A67D;}
	.st136{fill:#F08F40;}
	.st137{fill:#ED8135;}
	.st138{fill:#F09250;}
	.st139{fill:#EF8B48;}
	.st140{fill:#F3893B;}
	.st141{fill:#ED3439;}
	.st142{fill:#E9393C;}
	.st143{fill:#E02B30;}
	.st144{fill:#DA2B2E;}
	.st145{fill:#EB3436;}
	.st146{fill:#E52F32;}
	.st147{fill:#D73538;}
	.st148{fill:#ED363C;}
	.st149{fill:#E63736;}
	.st150{fill:#B33B3E;}
	.st151{fill:#EC333F;}
	.st152{fill:#EA2D2E;}
	.st153{fill:#ED333F;}
	.st154{fill:#FCF8F7;}
	.st155{fill:#E83A39;}
	.st156{fill:#E72D2E;}
	.st157{fill:#EB3533;}
	.st158{fill:#D6363B;}
	.st159{fill:#AB3C42;}
	.st160{fill:#EB3632;}
	.st161{fill:#EB3631;}
	.st162{fill:#E9383D;}
	.st163{fill:#EC353B;}
	.st164{fill:#E43034;}
	.st165{fill:#ED3241;}
	.st166{fill:#EC3632;}
	.st167{fill:#F5863C;}
	.st168{fill:#E8813D;}
	.st169{fill:#F28B48;}
	.st170{fill:#FCF8F2;}
	.st171{fill:#E99A65;}
	.st172{fill:#E39350;}
	.st173{fill:#E58341;}
	.st174{fill:#EE8D4B;}
	.st175{fill:#DF9F6D;}
	.st176{fill:#F08134;}
	.st177{fill:#F48B2E;}
	.st178{fill:#F38A2F;}
	.st179{fill:#EC3539;}
	.st180{fill:#ED3535;}
	.st181{fill:#ED343B;}
	.st182{fill:#DC3F44;}
	.st183{fill:#EC3A3F;}
	.st184{fill:#E8383C;}
	.st185{fill:#E8383E;}
	.st186{fill:#D83E41;}
	.st187{fill:#D1373A;}
	.st188{fill:#E02C34;}
	.st189{fill:#EB3434;}
	.st190{fill:#E9383C;}
	.st191{fill:#CB323A;}
	.st192{fill:#ED353C;}
	.st193{fill:#ED3941;}
	.st194{fill:#CF3437;}
	.st195{fill:#CF3337;}
	.st196{fill:#DF262C;}
	.st197{fill:#EE3940;}
	.st198{fill:#ED362D;}
	.st199{fill:#EC3942;}
	.st200{fill:#EE3241;}
	.st201{fill:#EC3532;}
	.st202{fill:#FBF8F8;}
	.st203{fill:#E33C40;}
	.st204{fill:#D32C30;}
	.st205{fill:#A93E40;}
	.st206{fill:#EC3740;}
	.st207{fill:#EA3833;}
	.st208{fill:#CD3133;}
	.st209{fill:#DE272B;}
	.st210{fill:#E0252C;}
	.st211{fill:#D2333A;}
	.st212{fill:#DF2B31;}
	.st213{fill:#DB2B2E;}
	.st214{fill:#E02B31;}
</style>
<g>
	<g>
		<path class="st0" d="M331.1,173c53.2,0,106.4,0,159.6,0c1.1,0,1.5,0.2,1.5,1.4c0,50.7,0,101.4,0,152.2c0,1.2-0.3,1.4-1.4,1.4
			c-160.2,0-320.4,0-480.6,0c-1.2,0-1.5-0.3-1.5-1.5c0.1-11.6,0-23.3,0-34.9c0.4-0.9,0.9-1,2-0.9c1.9,0.2,3.1,1.8,5,2
			c0.7,0.1,1.4,0.2,1.9-0.4c0.3-0.3,0.6-0.4,1-0.3c1.5,0.4,3.1,0.1,4.6,0.1c45.3,0,90.7,0,136,0c1.5,0,3,0,4.5,0.5
			c1.5,0.4,3,0,4.4-0.3c1.1-0.3,2.1-0.4,3.2-0.2c1.6,0.3,3.1-0.5,4.6-0.1c-0.1-0.2-0.1-0.4,0.1-0.5c0.9-0.4,1.9-0.3,2.9-0.3
			c47.7,0,95.5,0,143.2,0c1.3,0,2.7,0,4,0c1.2,0.5,2.3,0.3,3.5,0.1c1.7,1.1,3.6,0.8,5.4,0.8c37,0,74,0,110.9,0c13,0,25.9,0,39.3,0
			c-0.1,0-0.4-0.3-0.3-0.1c0,0.1,0,0.1-0.1,0.1c-0.4,0.1-0.7,0-1.1,0c-49.7,0-99.4,0-149.1,0c-0.5,0-1.3,0.6-1.6-0.5
			c0.9-0.7,1.9-0.4,2.8-0.4c36.2,0,72.3,0,108.5,0c13.1,0,26.3,0,39.4,0c2.4,0,2.4-0.1,2.4-2.4c0-36.4,0-72.8,0-109.2
			c0-0.6,0.1-1.2-0.2-1.7c-0.6-0.6-1.3-0.4-2-0.4c-4.7,0-9.3,0-14,0c-44.4,0-88.8,0-133.2,0c-1.4,0-2.9,0.4-4.1-0.7
			c-0.1-0.1-0.4,0.1-0.6,0.1C330.6,175.9,330.3,174.8,331.1,173z"/>
		<path class="st1" d="M175.9,291.5c0,0.2,0.3,0.6-0.2,0.6c-1.9-0.1-3.6,0.6-5.6,0.2c-1.3-0.3-2.7,0.6-4.2,0.7
			c-1.1,0.1-2.2,0.2-3.3-0.3c-0.5-0.3-1-0.2-1.6-0.2c-46.6,0-93.2,0-139.9,0c-1.1,0-2.3,1-3.3-0.7c-0.1,1.9-0.9,2-2.1,1.4
			c-0.5-0.3-1.1-0.4-1.7-0.3c-0.3,0.1-0.7,0.2-0.7-0.1c-0.3-2.4-2.7-0.7-3.6-1.9c-0.4-0.5-0.4,0.9-1.1,0.7c0-0.5,0-1.1,0-1.6
			c0.6-0.3,0.3-0.6,0-1c0-38.2,0-76.4,0-114.6c0-1.2,0.3-1.4,1.4-1.4c56.2,0,112.5,0,168.7,0c0.6,0.5,1.2,0.3,1.9,0.3
			c46.9,0,93.7,0,140.6,0c0.6,0,1.3,0.1,1.9-0.3c1.3,0,2.6,0,3.9,0c0.4,0.3,0.3,0.7,0.3,1.1c0-0.4,0-0.8,0.3-1.1c1.2,0,2.4,0,3.5,0
			c0.1,1.2-0.4,2.7,1,3.5c-0.2,1.5-0.2,3-0.2,4.5c0,35,0,69.9,0,104.9c0,1,0,1.9,0,2.9c0,0.5-0.3,1-0.4,1.5
			c-0.1,0.4-0.2,0.8,0.4,0.8c0.4,0,0.9,0,1.2,0.4c0.6,0.6,1.3,0.3,2,0.3c49.9,0,99.8,0,149.7,0c0.7,0,1.4-0.2,2,0.2
			c-0.1,0.6-0.6,0.5-0.8,0.4c-1.5-0.5-3-0.3-4.5-0.3c-48.5,0-96.9,0-145.4,0c-1.1,0-2.1-0.1-3.2,0.3c-1.4,0.6-2.4-0.8-3.7-0.9
			c-0.2-0.4-0.4-1-1.1-0.5c-0.4,0.3-0.9,0.3-1.3-0.1c-0.1-0.2-0.1-0.4,0-0.6c1.3-1,0.1-2,0-3c0-0.2,0.1-0.4,0.2-0.5
			c0.3-1,0.2-1.9,0.2-2.9c0-34,0-67.9,0-101.9c0-1,0-1.9,0-2.9c0-0.2,0-0.3,0.1-0.5c0.3-0.5,0.8-1,0.4-1.7c-1-0.7-1.9-0.2-2.7,0.4
			c-1.1,0.1-2.3,0.1-3.4,0.1c-48.7,0-97.5,0-146.2,0c-3.5,0-3.2-0.2-3.2,3.2c0,35.7,0,71.4,0,107.1c0,0.3,0,0.5,0,0.8
			c0,2.5,0,2.5,2.4,2.7C175,291.1,175.5,291.1,175.9,291.5z"/>
		<path class="st2" d="M323.1,173c-0.1,0.3-0.2,0.6-0.6,0.6c-0.4,0-0.9,0-1.3,0c-46.8,0-93.7,0-140.5,0c-0.6,0-1.6,0.5-1.9-0.6
			C226.9,173,275,173,323.1,173z"/>
		<path class="st2" d="M327.6,173c-0.1,0.8,0.2,1.6-0.3,2.7c-0.5-1.1-0.3-1.9-0.3-2.7C327.2,173,327.4,173,327.6,173z"/>
		<path class="st0" d="M8.7,288.9c0.6,0.1,1.1,0.3,0.9,0.9c-0.2,0.5-0.6,0.1-0.9,0C8.7,289.6,8.7,289.2,8.7,288.9z"/>
		<path class="st3" d="M333.1,291.5c-0.5,0-1,0-1.5,0c-0.2-0.2-0.2-0.3,0-0.4c0.7-0.1,1.4,0,2.1,0c50.6,0,101.3,0,151.9,0
			c-50.7,0-101.5,0-152.2,0c-1.1,0.1-1.7-0.1-1.7-1.5c0.1-36.5,0-73,0-109.5c0-3.4,0.1-2.9,3-2.9c49.7,0,99.5,0,149.2,0
			c0.7,0,1.4,0,2.1,0c0.2-0.1,0.4-0.1,0.6,0c0,37.4,0,74.8,0,112.2c0,2,0,2-2.1,2c-49.8,0-99.6,0-149.5,0
			C334.4,291.4,333.8,291.5,333.1,291.5z"/>
		<path class="st4" d="M60.7,310.9c-1.4-12.8-1.7-11.2-2.8-10.7c0.2,0.6,1,0.7,1,1.5c-1.4-0.5-1.2,0.3-1.2,1.3
			c0.1,3.6,0.3,7.2-0.4,10.7c-0.2,1.1,0.2,1.2,0.9,0.7c0.4-0.2,0.8-0.5,1.1-0.2c0.4,0.4,0.4,1,0.1,1.4c-0.8,1.3-1.4,2.6-1.2,4.2
			c0,0.3-0.1,0.6-0.5,0.6c-0.8,0-0.7,0.6-0.6,1.1c0.1,0.3,0.8,0.6,0.1,0.8c-0.4,0.2-1,0.2-1.3-0.2c-0.3-0.3-0.1-1.3-0.8-0.7
			c-0.5,0.3-0.5,1.1-0.2,1.7c0.2,0.5,0.3,0.9,0.3,1.4c0,0.4-0.4,0.7-0.6,0.4c-0.9-1.1-2.4,0.1-3.5-0.9c-0.4-0.3-1.7,0.2-2.5,0.4
			c-1.4,0.3-3.1-0.8-4.4,0.6c-0.1,0.1-0.5,0-0.8,0c-1.7,0.1-3.2-1-5-0.8c-0.8,0.1-0.9-1-0.8-1.7c-1.2,0.1-0.7,1.5-1.5,1.7
			c-0.8,0.2-1.3-0.6-1.9-0.9c-0.4,0.4,0.6,0.7,0,1.1c-0.4,0.3-0.8,0.2-1.2,0c-1.4-0.7-2.8-1.3-4.1,0.3c-0.4,0.5-0.8,0.1-1.1-0.2
			c-0.6-0.6-0.9-1.4-0.9-2.1c-0.1-2.9,0-5.8,0.1-8.7c0-0.4,0.3-1-0.3-1c-0.7-0.1-0.4,0.6-0.4,1c-0.1,0.3-0.1,0.6-0.1,0.9
			c-0.7,0-0.6-0.5-0.7-0.8c-0.8-2-2.5-1.3-3.8-1.2c-1.1,0.1-2,0.8-2.3,2.1c-0.2,0.7,0,1.1,0.5,1.7c1.5,1.6,1.3,3.2-0.4,4.5
			c-0.5,0.4-0.3,0.9-0.2,1.3c0.1,0.5,0.4,0.6,0.8,0.5c0.4-0.1,0.7-0.1,1.1-0.1c0.4,0,1.1-0.2,1.1,0.5c0,0.6-0.5,1-1.1,1
			c-0.5,0.1-1.1,0.1-1.6,0c-1.7-0.3-3.4,1.1-5.1-0.1c-0.4-0.3-0.6,0.3-0.8,0.6c-0.5,0.5-1,0.6-1.6,0.3c-0.7-0.3-0.5-0.8-0.5-1.3
			c-0.1-3.3,1.2-6.4,0.9-9.7c-0.3-3.3-0.1-6.6-0.1-10c0-0.9,0.3-1.9-1.1-2.1c-0.7-0.1,0-0.5,0-0.8c0.1-0.7,1-1.6-0.7-1.8
			c-0.6-0.1-0.8-1.1-1.1-1.8c-0.1-0.2,0.1-0.5,0.4-0.6c0.3-0.1,0.6,0,0.8,0.4c0.2,0.4-0.1,1,0.4,1.4c0.7-1.6,1.6-2.4,3.3-1.3
			c0.4,0.3,1.3-0.1,1.6-0.2c1.1-0.4,1.7,0.4,2.4,0.7c0.6-0.1-0.4-1.1,0.5-0.9c0.7,0.1,1.5,0.4,1.5,1.4c0,0.4,0.5,0.9-0.2,1.2
			c-1.1,0.6-1.6,1.9-0.8,2.7c0.8,0.8,0.9,1.6,0.7,2.7c-0.4,1.8-0.1,2.1,1.7,2.1c0.5,0,1.1,0,1.6,0c1.5,0.1,2.2-0.6,2.1-2.1
			c0-0.9-0.1-1.8,0-2.7c0.1-0.5-0.7-1.8,0.9-1.2c0.4,0.1,0.3-0.6,0.1-0.9c-0.9-1.2,0.4-2.2,0.6-3.2c0.1-0.6,1.2,0.4,2.1,0.1
			c1.5-0.6,3.2,1,4.8-0.1c1.1,1,2.2-0.1,3.2-0.1c0.6,0,1.5-0.6,1.7,0.8c0.1,0.8,2.1,0.6,2.5-0.2c0.2-0.4,0.4-0.6,0.8-0.6
			c0.4,0,0.8,0.2,0.7,0.5c-0.3,1.3,1,2.4,0.6,3.7c-1.3,4.2-0.3,8.6-0.6,12.9c-0.1,0.8,0,1.4,1.1,1.5c0.8,0.1,1.6,0.5,2.1,1.4
			c0.7,1.1,2.8,1.7,3.5,0.9c0.7-0.8,1-2.1,1.1-3.2c0.1-0.8,0-1.7,0.3-2.5c0.6-1.8,0-3.6-0.3-5.3c-0.1-0.6-0.4-1.1-0.3-1.7
			c0.3-2.3-0.3-4.7-0.2-7c0-0.4,0.1-0.7,0.4-0.9c0.6-0.5,1,0.2,1.5,0.2c0.4,0.1,1.2,1.9,1.3-0.2c0-0.3,0.4-0.3,0.7-0.3
			c1.5,0.3,3.4-0.4,4.3,0.2c1.5,1,2.4,0.7,3.6,0c0.1-0.1,0.4,0.1,0.6,0.2c2.7,1.6,5.6,1.2,8.4,0.4c1.1-0.3,2,0.4,3,0.5
			c1.2,0.1,2-0.3,2.8-1c0.3-0.3,0.6-0.2,0.8-0.2c0.9,0.3,1.8,0.8,2.9,0.7c0.4,0,0.5,0.3,0.5,0.7c0,0.5,0.1,0.9-0.5,1.2
			c-0.8,0.5-0.5,0.4,0,1.2c0.5,0.8,2,1,1.4,3c-0.6,2.1-1,4.5-1.1,6.8c0,0.4,0.1,0.8,0.5,0.9c0.6,0.1,0.7,0.5,0.6,1
			c-0.2,0.7-0.1,1.3,0.6,1.7c0.2,0.1,0.4,0.7,0.3,0.8c-1.4,1.4-0.3,2.5,0.3,3.6c0.2,0.5,0.6,0.9,0.2,1.4c-0.7,0-0.2-0.8-0.7-0.9
			c-0.1,0.6-0.2,1.3-1.1,1c-0.3-0.1-0.5,0.1-0.6,0.4c0,0.4,0.3,0.3,0.6,0.4c0.3,0,0.5,0.1,0.8,0.1c0.4,0,1-0.3,1.1,0.2
			c0.1,0.4-0.3,0.9-0.5,1.3c-0.3,0.5-0.7,0.3-1.1,0.2c-0.8-0.2-1.6-0.1-2.4-0.4c-0.3-0.1-1.8-0.3-1,1.1c0.1,0.1-0.1,0.6-0.3,0.7
			c-0.9,0.4-2.3,0.9-2.9,0.8c-2.4-0.4-2.4-0.6-5.1-0.2c-0.9,0.1-1.9,0-2.9,0c-0.6,0-1.5-0.4-1.6,0.9c0,0.5-3.6,0.5-4.3,0.1
			c-1.4-0.8-0.3-1.9-0.3-2.9c0-0.4,0.3-1,0.3-1.5c0-6.1,0-12.1,0-18.2c0-0.5,0.7-1.7-0.9-1.2c-0.4,0.1-0.3-0.5-0.1-0.9
			C60.1,299.9,60.5,299.2,60.7,310.9c0.2,12.3,0.4,12.7,0.6,12.8C61.1,323.5,60.9,323.2,60.7,310.9z"/>
		<path class="st5" d="M175.9,291.5c-0.7,0-1.5-0.2-2.2-0.1c-1.6,0.2-1.9-0.5-1.9-2c0-36.8,0-73.6,0-110.4c0-2.1,0-2.1,2.1-2.1
			c50.2,0,100.5,0,150.7,0c0.4,0,0.7,0,1.1-0.1c1.5-0.6,1.6,0.4,1.6,1.5c0,35.5,0,71,0,106.5c0,0.8,0.2,1.7-0.3,2.5
			c0,0.1,0,0.2,0,0.3c0.5,0.9,0.6,1.7,0,2.6c0,0.2,0,0.4,0,0.6c0.2,0.4-0.1,0.5-0.4,0.6c-1.3,0-2.6,0-3.9,0c-48.3,0-96.6,0-144.9,0
			C177.2,291.4,176.5,291.5,175.9,291.5z"/>
		<path class="st6" d="M140.8,297.9c0.9-0.8,1.9-1,3.2-0.7c1.5,0.4,3-0.7,4.6-0.5c2.2,0.3,4.5,1,6.7,0.5c2.6-0.6,5.3-0.7,8-0.5
			c2.6,0.2,5.2-0.2,7.7,0.4c0.7,0.2,1.1-0.1,1.6-0.3c0.5-0.2,0.5,0.1,0.8,0.6c0.7,1.4-1.2,2.9,0.5,4c0.5,0.3,1.1,0.2,1.5,0.8
			c-0.6,0.3-1,0.8-1.1,1.5c-0.2,0.2-0.4,0.2-0.6,0.2c-1.4-0.9-1.2-2.5-1.9-3.8c-0.7-1.3-1.5-1.6-2.9-0.7c-0.1,0.5,0.1,1,0.3,1.5
			c0.1,0.1,0.1,0.3,0.2,0.4c0.1,0.5,0.2,1.1,0.5,1.5c0.1,0.1,0.1,0.3,0.2,0.4c0.1,0.5,0.5,0.9,0.6,1.4c0.6,1.8,1.2,3.6,1.9,5.4
			c0.3,1.1,0.7,2.1,1.2,3.1c0.1,0.1,0.1,0.3,0.2,0.4c0.1,0.7,0.4,1.3,0.6,1.9c0.5,2,1.6,3.9,2.2,5.8c0.2,0.8,0.9,1,1.6,1
			c1,0.1,1.8-0.3,2.1-1.3c0.2-0.5,0.5-1,0.7-1.6c0-0.1,0.1-0.3,0.2-0.4c0.3-0.5,0.4-1,0.5-1.6c0-0.1,0.1-0.3,0.1-0.4
			c0.3-0.6,0.4-1.3,0.6-1.9c1.2-3.4,2.4-6.8,3.7-10.1c0.4-0.6,0.5-1.3,0.7-2c0.2-0.8,0.6-1.5,0.8-2.3c0.2-0.6,0.9-1.3-0.1-1.8
			c-0.9-0.4-2,0.1-2.4,1c-0.3,0.7-0.2,1.7-1.1,1.9c-0.2,0-0.3-0.1-0.4-0.2c-0.1-1.3,0.2-2.5,0.3-3.8c0-0.6,0.4-0.9,0.8-1.1
			c0.4-0.2,0.4,0.3,0.6,0.6c0.1,0.1,0.2,0.4,0.4,0.1c1.7-1.6,3.6-0.8,5.3-0.3c1.4,0.4,1.6,1.9,1.4,3.1c-0.1,1.2-1.3,1.4-2.4,1.5
			c-0.9,0.1-1.9,0.1-1.3,1.6c0.3,0.7,0,1.6,0,2.3c0,1.2-0.6-0.4-1.2,0c1.9,2.6-1.1,5.5,0.5,8.3c-0.7-0.4-0.3-1-0.7-1.4
			c-0.6-0.6-1.5-0.6-1.4,0.1c0.1,1.1-0.7,1.2-1.2,1.7c-1.4,1.5-2,3.1-1.5,5.1c0.2,1,0.4,2.3-1.1,2.9c-0.5,0.2-0.6,0.7-0.7,1.2
			c0,0.3,0.1,0.6,0.4,0.6c0.5,0.1,0.8-0.3,1-0.6c0.1-0.1,0.3-0.3,0.6-0.3c0.2,1.3-0.9,1.5-1.7,1.6c-1.9,0.2-3.8,0-5.6,0.1
			c-0.8,0-1-0.7-1.4-1.2c-1.1-1.3-1.3-2.9-1.3-4.4c0.1-1.6-0.5-2.2-1.8-2.3c-0.1-0.6,0.7-0.4,0.6-1c-0.6-0.2-1.4-0.1-1.6-1.1
			c-0.1-0.5-0.8-0.4-1.1,0.1c-0.2,0.3-0.4,0.6-0.7,0.4c-0.3-0.2-0.2-0.5-0.1-0.9c0.2-0.8,0.2-1.5,0-2.5c-0.6,0.4-1.2,0.7-1.1,1.3
			c0.2,1.1-0.9,2.1-0.1,3.3c0.3,0.4-0.1,0.7-0.7,0.6c-0.7-0.1-1.1-0.4-1.6-1.4c-0.1,1.3-0.7,2.2,0.7,2.6c0.5,0.1,0.5,0.6,0.3,0.9
			c-0.2,0.4-0.5,1-1.1,0.7c-0.6-0.4-0.9-0.1-1.2,0.3c-0.4,0.5-0.2,1,0.3,1.4c0.4,0.4,0.9,0.8,0.8,1.5c-0.1,0.6,0,1.2-1,1
			c-0.7-0.2-1.3,0.3-2,0.5c-1,0.3-2,1-2.8-0.3c-0.2-0.3-0.7-0.3-1,0c-0.4,0.3-0.9,0.3-1.3,0.4c-2.7,0.5-5.4-0.1-8,0
			c-1.2,0-1.5-0.6-1.1-1.5c0.5-1,0.4-1.3-0.7-1c-0.5,0.2-0.9-0.2-1.4-0.1c-0.3-0.3-0.9-0.5-0.7-1.1c0.2-0.6,0.8-0.6,1.3-0.6
			c0.3,0,0.5,0.1,0.8,0.2c3.4,2.1,7.1,2.3,10.8,1.2c3.4-1,5.5-3.6,6.6-6.9c1.2-3.7,1.1-7.5-0.4-11.1c-0.1-0.5-0.4-0.9-0.7-1.2
			c-2.8-4.6-10.7-5.7-15.3-2.9c-0.5,0.3-1.1,0.7-1.7,0.9c-1.1,0.2-1.8,0.9-2.2,1.9c-0.4,1.1-0.9,0.9-1.4,0.1
			c-0.2-0.3-0.3-0.7-0.7-0.9C140.6,301,140.9,299.4,140.8,297.9z"/>
		<path class="st7" d="M282.6,318.9c-0.2,0.3-0.5,0.6-0.7,0.9c-0.2,0.4-0.5,0.5-0.9,0.3c-0.4-0.2-0.7-0.4-0.7-0.9
			c0.1-1,0.1-1.9,0.2-2.9c-0.8-0.2-0.3,1.2-1.1,0.7c-0.5-0.3-0.9-0.9-0.7-1.5c0.4-1.2-1.6-1.8-0.8-3.1c-0.9,1.3,0,3-0.7,4.3
			c-0.1,0-0.3,0-0.4,0c0-1.4,0-2.8,0-4.2c0-1.1-0.8-1.6-1.4-1.9c-0.6-0.3-0.9,0.5-1.3,0.9c-0.1,0.1-0.2,0.4-0.2,0.5
			c0.9,2.6,0.2,5.3,0.4,7.9c0,0.5-0.2,1.2,0.7,1.2c0.8,0,0.6-0.7,0.6-1.2c0-0.8,0-1.6,0.3-2.4c0.3,1.6,0.6,3.2,0.1,4.8
			c-0.1,0.3-0.5,0.5,0,0.7c0.4,0.2,0.9,0.3,0.7,0.9c-0.4,0.7-1.2,0.3-1.7,0.5c-0.7,0.2-0.6-0.3-0.7-0.7c0-0.1-0.1-0.3-0.3-0.7
			c-0.2,1-2.4,0.3-1.3,2.2c0.3,0.4-0.5,0.6-0.8,0.3c-0.8-0.7-1.7-0.5-2.5-0.1c-0.2,0.1-0.5,0.3-0.7,0c-0.1-0.2-0.1-0.5,0-0.7
			c0.8-1.5,0.8-1.5-1.1-1.5c-0.3-0.9-1.8-0.5-1.9-1.7c0-0.1-0.5,0.3-0.7,0.5c-0.4,0.4,0,0.7,0.3,0.9c0.3,0.3,0.9,0.4,0.6,0.9
			c-0.3,0.5-0.6-0.1-0.9-0.1c-0.4,0-0.5,0.3-0.7,0.5c-0.9,1.2-1.7,1.3-2.7,0c-0.4-0.4-0.8-0.6-1.1-0.3c-0.9,1-2.1,0.4-3.1,0.5
			c-1.4,0.2-2.7,1-4.2,0.6c-0.4-0.1-1.6,0.5-0.9-0.8c0-0.1-0.1-0.3-0.2-0.3c-0.3-0.1-0.6-0.1-0.7,0.2c-0.9,1.9-2.2,1-3.4,0.6
			c-0.1,0-0.2-0.1-0.3-0.2c-0.5-0.3-1.5,0.3-1.5-0.7c0-1.1,1.2-0.3,1.9-1.1c-0.9-0.2-1.7-0.4-2.4,0.1c-0.5,0.4-1.1,0.2-1.2-0.3
			c-0.2-1.2-1.5-2.3-0.6-3.7c0.3-0.4,0.2-1,0.3-1.5c0.5-0.1,0.6,0.3,0.8,0.6c0.2,0.4,0.4,0.7,0.7,1.1c0.5,0.9,1.3,1.5,2.1,2
			c0.3,0.3,0.6,0.5,1,0.7c0.3,0.2,0.7,0.3,0.5,0.8c-0.2,0.3-0.4,0.5-0.1,0.9c-0.1-0.5,0-0.9,0.5-1.1c2.2,0.4,4.4,0.5,6.6,0.4
			c0.8,0.1,1.5,0,2.3-0.3c0.1-0.1,0.3-0.1,0.4-0.1c0.5-0.1,0.9-0.4,1.4-0.7c3.5-2.2,4.9-5.4,5.3-9.3c0.3-3.3,0-6.4-1.7-9.2
			c-0.2-0.4-0.4-0.8-0.7-1.1c-0.1-0.2-0.3-0.3-0.4-0.5c-0.4-0.5-0.9-0.9-1.5-1.2c-0.6-0.5-1.5-0.5-1.9-1.4c0,0,0-0.1,0-0.1
			c-0.1,0.1-0.3,0.2-0.4,0.2c-1.4,0.1-2.8-0.6-4.2-0.5c-1.1,0.1-2.1,0.1-3.1,0.4c-0.6,0.1-1.2,0.4-1.8-0.1c-0.3-0.8-1.1-1.2-1.8-1.6
			c0.4-0.5,1-0.5,1.2-0.3c1.6,1.4,3.3,0.5,4.9,0.2c0.8-0.2,1.6,0.1,2.4,0.1c1.7,0,3.5,0.7,5.2-0.2c1.1,1.2,2.2-1,3.4,0.2
			c-0.6,0.5-1.9,0.6-1.7,1.7c0.1,0.8,0.9,1.4,1.6,1.7c0.7,0.3,1-0.4,1.4-0.8c-0.2-0.5-0.5-0.4-0.8-0.4c-0.4,0-0.8,0-0.9-0.5
			c-0.1-0.6,0.4-0.6,0.7-0.9c1.2-1.1,2.9-0.5,4.2-1.2c0.2-0.1,0.6,0.1,0.7,0.3c0.4,1.6,1.2,0.9,2,0.4c1-0.6,2.2,0.1,3.2-0.6
			c0.3-0.2,1.1,0.3,1.2,1c-0.7,0,0.1,1.5-1.2,1.1c-0.8-0.2-0.4,0.7-0.6,1.1c-1-0.1-1.6-1-2.7-0.9c-1,0.1-1.6,0.4-1.6,1.5
			c0,6.8,0,13.5,0,20.3c0,0.6,0,1.3,0.8,1.3c1,0,1.1-0.7,1.1-1.5c0-4.5,0-9,0-13.5c0-0.6,0-1.3,0-1.9c0-0.6,0-1.3,0.6-1.5
			c0.7-0.2,1,0.4,1.4,0.9c1.1,1.7,2.1,3.4,3.1,5.1c0.2,0.5,0.4,0.9,0.7,1.3c1.3,2.2,2.9,4.1,4,6.4
			C282.4,317.8,282.9,318.3,282.6,318.9z"/>
		<path class="st8" d="M146.6,321.1c-1.4-0.2-1.2,0.5-0.7,1.3c-0.7,0-1.6-0.2-0.9,1c0.3,0.7-0.1,0.8-0.7,0.9c-0.5,0-1.1,0-1.6,0
			c-0.1,0.9-1.8,2.1-2.7,1.8c-1.6-0.6-3.1-1.1-4.8-1.3c-0.7-0.1-1.3-0.7-2.2-0.7c-0.6,0-0.8-0.7-0.2-1.2c0.3-0.2,0.5-0.4,0.3-0.8
			c-0.2-0.4-0.5-0.5-0.9-0.4c-1.4,0.4-1.1-0.5-0.8-1.2c0.2-0.4,0.4-0.6,0.1-1c-0.3-0.3-0.6-0.5-1-0.2c-0.4,0.3-0.8,0.5-1.1,0.1
			c-0.3-0.3-0.2-0.8-0.1-1.2c0.3-1.4,0-1.8-1.3-1.4c-0.8,0.3-0.6-0.1-0.7-0.6c-0.1-0.6,0.2-1.2-0.3-1.9c-0.8,0.6,0,1.7-0.9,2.3
			c-0.4-1.5,0.1-3-0.5-4.4c-0.6,1.5-0.1,3.2-0.6,4.7c-0.7-1.5-0.1-3.2-0.5-4.7c-0.7,0-0.5,0.5-0.5,0.8c0,2.7,0,5.5,0,8.2
			c0,0.4,0,0.8,0.3,1.2c0.3,0.4,0.1,0.8-0.2,1c-1,0.5-2,1.1-3,1.4c-0.7,0.2-1.9,0.3-1.5-1.2c0-0.1,0-0.3,0-0.3
			c-2-0.5-0.6-1.9-0.7-2.8c-0.2-1.5-0.1-3-0.8-4.5c-0.7-1.7-0.2-3.7-0.2-5.6c0-1.4,0.1-2.6,0.7-4c0.6-1.4,0.4-3.3,0.1-4.9
			c-0.1-1-0.7,0.4-1.2,0.1c0-0.4-0.2-1,0.3-1.2c1.7-0.6,1-1.7,0.6-2.7c-0.4-0.9,0-1.7,0.8-1.2c1.2,0.7,2.4-0.2,3.5,0.2
			c0.3,0.7,1.2,0.6,1.6,1.1c0.4,0.4,0.7,0.8,0.5,1.4c-0.1,0.4-0.4,0.6-0.8,0.4c-0.5-0.3-1-0.7-1.6-0.8c-1.8-0.3-2.4,0.2-2.4,2
			c0,6.4,0,12.9,0,19.3c0,0.3,0,0.5,0.1,0.8c0.1,0.6,0.5,0.9,1.1,0.9c0.6,0,1-0.4,1.1-1c0.1-1.2,0.1-2.4,0.1-3.5c0-3.6,0-7.3,0-10.9
			c0-0.5,0-1,0-1.4c0.1-0.6,0-1.3,0.6-1.5c0.7-0.2,1,0.4,1.4,0.9c1.2,1.8,2.2,3.7,3.4,5.5c0.7,1.2,1.4,2.4,2.2,3.6
			c0.3,0.5,0.5,1,0.8,1.5c1.3,1.9,2.4,3.9,3.8,5.8c0.3,0.5,0.6,1,1.2,1.2c0.3,0.1,0.6,0.1,1,0.1c1.3,0.1,1.8-0.5,1.8-1.8
			c0-4.1,0-8.1,0-12.2c0-2.6,0-5.1,0-7.7c0-0.6-0.1-1.3,0.3-1.9c0.3-0.3,0.8-0.4,0.9,0c0.2,0.7,1.1,1.2,0.9,2.1
			c-1,4.9-0.3,9.9-0.5,14.9c0,0.9,0.3,1.8,0.7,2.6c0.4,1.1,0.7,2.1-0.1,3.2c0.5-0.4,0.5-0.9,0.5-1.4c-0.3-5.3-0.1-10.7-0.1-16
			c0-0.9-0.2-1.7-0.5-2.5c0.2-1.1-0.5-2-0.8-2.9c-0.2-0.4-0.9-0.7-0.3-1.2c0.4-0.4,0.9-0.6,1.4-0.2c0,0.2,0,0.4,0,0.6
			c0.4,0.7,0.8,1.5,0.7,2.4c-0.1,0.3,0,0.7,0.4,0.8c1.2,0.2,1.4,1.2,1.9,2.2c0.6-1.5,1.1-2.8,2.8-2.8c0.3,0.7-0.3,1-0.6,1.3
			c-0.5,0.5-0.9,1-1.1,1.7c-0.5,0.9-1,1.8-1.3,2.9c-0.3,0.6-0.5,1.3-0.4,2c0,2.4-0.2,4.9,0.6,7.2c0.4,1,0.8,2.1,1.4,3
			c0.1,0.1,0.2,0.3,0.2,0.4c0.2,0.3,0.3,0.6,0.6,0.9c0.1,0.2,0.3,0.3,0.4,0.5C146.6,320.6,146.7,320.8,146.6,321.1z"/>
		<path class="st9" d="M351.7,298.6c2.9,0.2,5.2,1.2,6.2,4.2c0.9,2.9,0,5.5-2.5,7.5c-0.1,0.1-0.3,0.1-0.7,0.3
			c3.1,1.3,2.8,3.8,3.1,6.1c0.2,1.8-0.4,3.7,1.1,5.2c0.4,0.5,0,0.6-0.5,0.6c-0.9,0-1.8,0-2.7,0c-1,0-1-0.8-1-1.5
			c-0.1-1.9-0.1-3.7-0.3-5.6c-0.2-2.2-1.2-3.1-3.3-3.2c-2.4-0.1-4.8,0-7.2-0.1c-1,0-1.2,0.4-1.1,1.3c0,2.6,0,5.2,0,7.7
			c0,1.2-0.5,1.5-1.5,1.4c-0.9-0.1-2,0.3-1.9-1.3c0.1-7.2,0-14.5,0-21.7c0-1.6,1.1-1,1.9-1.1C344.7,298.8,348.2,298.8,351.7,298.6z"
			/>
		<path class="st3" d="M471.9,323.1c-3.9-0.2-6.7-2.1-8.6-5.6c-2.4-4.6-2-13,2.3-16.8c3.7-3.3,8.1-3.5,12.5-2.1
			c4.3,1.4,6.4,4.8,6.9,9c0.5,4.7-0.1,9.1-3.7,12.6c-1.8,1.7-3.9,2.7-6.5,2.8C473.8,323,472.8,323.1,471.9,323.1z"/>
		<path class="st10" d="M263.8,302.4c1.5,2,2,4.3,2.1,6.8c0.2,4.4-0.7,8.5-4.2,11.5c-0.5,0.4-1.2,0.7-1.7,1.1
			c-0.4,0.2-1,0.3-1.4,0.6l0,0c-0.7,0.2-1.5,0.3-2.3,0.6c-2.5,0.4-5,0.1-7.4-0.6l0,0c-0.2-0.2-0.4-0.4-0.7-0.6
			c-0.3-0.4-0.7-0.5-1.1-0.6c-0.9-0.6-1.7-1.2-2.2-2.2c-0.1-0.4-0.3-0.8-0.6-1c-0.2-0.2-0.4-0.5-0.6-0.7c-0.9-2.7-1.5-5.5-1.1-8.4
			c0.6-4.6,2.7-8.1,6.9-10.2c3.2-0.9,6.4-0.8,9.6,0l0,0c0.7,0.4,1.3,0.8,2,1.2c0.5,0.5,1,1,1.6,1.3c0.1,0.1,0.2,0.2,0.3,0.3
			C263.4,301.8,263.5,302.2,263.8,302.4z"/>
		<path class="st3" d="M404.2,298.7c0.5,0.4,0.3,0.9,0.3,1.3c0,7.1,0,14.1,0,21.2c0,1.2-0.3,1.5-1.5,1.6c-1.8,0.1-2.7-0.6-3.5-2
			c-3.3-5.5-6.8-10.9-10.2-16.3c-0.1-0.2-0.2-0.5-0.6-0.5c-0.4,0.4-0.2,0.9-0.2,1.3c0,5.1,0,10.2,0,15.3c0,2.4-0.5,2.7-2.9,1.9
			c0.3-0.5,0.2-1.2,0.2-1.7c0-6.9,0-13.7,0-20.6c0-0.9,0.1-1.4,1.1-1.5c1.8-0.4,2.8,0.3,3.7,1.9c3.1,5.3,6.4,10.5,9.7,15.8
			c0.3,0.5,0.5,1.1,1.1,1.3c0.4-0.5,0.2-1,0.2-1.5c0-5.3,0-10.5,0-15.8c0-0.7-0.2-1.5,0.8-1.6c0.5,0,1.1,0,1.6,0
			c0.3,0.4,0.1,0.9,0.1,1.4c0,6.9,0,13.7,0,20.6c0,1.4-0.3,1.9-1.7,1.5c1.7,0.1,1.7,0.1,1.7-1.5c0-6.8,0-13.5,0-20.3
			C404.1,299.8,403.9,299.2,404.2,298.7z"/>
		<path class="st11" d="M297.4,319.8c4.4,0,8.8,0,13.2,0c1.1,0,1.5,0.3,1.5,1.4c0,1.2-0.4,1.5-1.5,1.5c-4.9,0-9.9-0.1-14.8,0
			c-1.3,0-1.6-0.4-1.6-1.7c0.1-6.9,0-13.7,0-20.6c0-1.3,0.2-1.9,1.8-1.9c4.8,0.1,9.5,0.1,14.3,0c1.2,0,1.5,0.4,1.5,1.5
			c0,1.2-0.5,1.4-1.5,1.4c-3.8-0.1-7.5,0-11.3,0c-0.6,0-1.2-0.2-1.6,0.4c-0.2,2.4-0.4,4.7,0.1,7.1c4,0,7.9,0.1,11.9,0
			c1.1,0,1.5,0.4,1.5,1.5c0,1.1-0.4,1.5-1.5,1.4c-4,0-7.9,0-11.9,0C297,314.5,297,317.2,297.4,319.8z"/>
		<path class="st12" d="M440.3,298.6c2-0.5,3.2,0.4,4.2,2.1c3,5.2,6.3,10.2,9.4,15.3c0.3,0.5,0.5,1.2,1.2,1.5c0.4-0.5,0.2-1,0.2-1.6
			c0-5.3,0-10.6,0-15.9c0-0.9,0.2-1.4,1.1-1.5c0.1,0,0.2,0,0.4,0c1.2,0.1,1.3,0.8,1.3,1.8c0,6.6,0,13.2,0,19.8c0,0.8,0,1.5,0,2.3
			c-2.6,0.8-3.4,0.5-4.7-1.6c-3.4-5.4-6.8-10.8-10.2-16.2c-0.2-0.3-0.2-0.7-0.9-0.8c0,1,0,2,0,3c0,4.6,0,9.1,0,13.7
			c0,2.4-0.4,2.7-2.9,1.9c0.4-0.5,0.2-1.1,0.2-1.7c0-6.8,0-13.6,0-20.4C439.5,299.6,439.3,298.8,440.3,298.6z"/>
		<path class="st13" d="M380.7,319.9c0.9,2.2,0.6,2.8-1.6,2.8c-4.7,0-9.4-0.1-14.2,0c-1.4,0-1.7-0.4-1.7-1.7
			c0.1-6.9,0.1-13.8,0-20.8c0-1.5,0.4-1.8,1.8-1.7c4.6,0.1,9.2,0,13.8,0c1.1,0,1.9-0.1,1.9,1.5c0,1.6-0.8,1.4-1.8,1.4
			c-3.7,0-7.4,0-11.1,0c-1,0-1.4,0.3-1.4,1.3c0.1,1.5,0.1,3,0,4.5c-0.1,1.2,0.3,1.7,1.6,1.6c3.4-0.1,6.9,0,10.3-0.1
			c1.2,0,1.4,0.4,1.4,1.5c0,1.1-0.3,1.5-1.5,1.5c-3.5-0.1-7,0-10.5,0c-1,0-1.4,0.3-1.4,1.4c0.1,1.8,0,3.6,0,5.5c0,0.5-0.2,1,0.4,1.3
			C371.5,320.1,376.1,320.1,380.7,319.9z"/>
		<path class="st10" d="M277.3,310.2c-1.4-2.1-2.7-4.2-4.1-6.4c-0.1,0-0.3,0.1-0.4,0.1c0,1.2,0,2.4,0,3.6c0,4.5-0.1,9,0,13.5
			c0,1.3-0.5,1.6-1.7,1.6c-1.2,0-1.4-0.5-1.4-1.5c0-7,0-14,0-21.1c0-1.2,0.3-1.6,1.5-1.6c1.4,0,2.6,0.1,3.4,1.5
			c1.7,3.4,4,6.5,5.9,9.8c0.2,0.3,0.3,0.7,0.6,1c0.4,0.7,0.9,1.5,1.3,2.2c0.2,0.3,0.3,0.8,0.6,1c0.2,0.3,0.4,0.6,0.6,1
			c0.2,0.3,0.3,0.7,0.6,1c0.2,0.4,0.5,0.8,0.7,1.2c0.2,0.4,0.7,0.5,0.9,0.8c0.1,0.1,0.2,0.2,0.3,0.3c0-0.3-0.2-0.4-0.3-0.6
			c-0.1-0.6,0-1.2,0-1.7c0-0.2,0-0.4,0-0.6c-0.1-4,0-8.1,0-12.1c0-0.5-0.1-1.1,0.3-1.5c0.7-0.4,1.4-0.5,2.1,0c0.3,0.5,0.2,1,0.2,1.6
			c0,5.8,0,11.6,0,17.5c0,1.7,0,1.7-1.8,1.8c-0.3,0-0.5,0-0.6-0.4c0.4-1.6,0.2-1.9-1.1-2.2c-0.4,0.2-0.7,0.9-1.3,0.4
			c-0.4-0.5-0.8-1.1-1.3-1.6c-1.5-2.6-3.1-5.1-4.6-7.7C277.7,310.9,277.7,310.4,277.3,310.2z"/>
		<path class="st10" d="M220.6,309.8c2.1-2.7,4.1-5.4,6.3-8.2c-0.7-0.3-1.4-0.2-2.1-0.2c-3.3,0-6.5,0-9.8,0c-1.1,0-1.5-0.2-1.5-1.4
			c0-1.1,0.3-1.5,1.4-1.4c4.7,0.1,9.4,0,14.2,0c2.3,0,2.4,0.1,2.1,2.4c0,0.4-0.2,0.7-0.4,1c-0.1,0.5-0.6,0.7-0.9,1.1l-0.1,0
			c-0.7,0-0.7,0.6-0.9,1l0,0c-0.3,0.3-0.5,0.6-0.7,0.9c-0.9,1.4-1.9,2.8-3.2,3.9c-0.9,0.1-0.9,1-1.4,1.6c-0.5,0.5-0.8,1.1-1.2,1.7
			l0,0c-0.4,0.2-0.4,0.6-0.7,0.9c-0.6,0.8-1.2,1.5-1.9,2.3c-0.4,0.2-0.5,0.6-0.7,0.9c-0.6,0.9-1.3,1.7-1.9,2.6
			c-0.2,0.3-0.4,0.6,0,0.9c4.1,0,8.3,0.1,12.4,0c1.1,0,1.5,0.2,1.5,1.4c0,1.2-0.4,1.5-1.5,1.5c-5.1,0-10.2,0-15.3,0
			c-2.1,0-2.8-1.2-1.7-3.1c0.5-0.9,1.3-1.6,1.9-2.3c0.4-0.2,0.5-0.6,0.7-1c1.5-1.8,2.7-3.9,4.4-5.5
			C220.3,310.6,220.4,310.2,220.6,309.8z"/>
		<path class="st14" d="M207.1,321.1c-0.5-1.3-1-2.6-1.3-3.9c-0.4-1.3-1.1-2-2.5-1.9c-2.2,0-4.4,0-6.6,0c-0.7,0-1.3,0.1-1.2,1
			c-0.3,0.5-0.3,1.1-0.6,1.7c-0.1,0.1-0.1,0.2,0,0.3c-0.3,0.5-0.2,1.2-0.6,1.7l0,0c-0.5,0.6-0.1,1.4-0.7,1.9
			c-0.8,1.4-2.1,0.9-3.3,0.8c-0.6-0.1-0.3-0.5-0.1-0.9c1-2.8,2.1-5.6,3.1-8.4c0.2-0.4,0.3-0.9,0.4-1.4c0.2-1.2,0.8-2.2,1.1-3.3
			c0.5-0.4,0.5-1.1,0.8-1.6c0.6-0.8,0.5-1.9,1.2-2.6c0.9-0.2,1.5,0.6,2.2,0.8c0.2,0.5,0.2,0.9,0.2,1.4c-0.2,1.5-0.8,2.8-1.3,4.1
			c-0.4,1-0.1,1.4,0.9,1.3c1.1,0,2.2,0,3.4,0c0.9,0,1.2-0.3,0.9-1.3c-0.5-1.6-1.1-3.2-1.7-4.8c-0.2-0.6-0.5-1.2-0.3-1.9
			c0.3-0.5,0.4-1,0.1-1.5c-0.3-0.4-0.5-0.9-0.6-1.3c-0.3-0.8-0.6-1.6,0.4-2.1c0.6-0.3,1.7,0.7,2,1.4c0.7,1.9,1,4,2.3,5.7l0,0
			c0.4,0.6,0.1,1.4,0.7,1.9c0.6,1.1,1,2.3,1.2,3.5c0.3,0.5,0.1,1.2,0.6,1.7l0,0c0.3,0.5,0.2,1.2,0.6,1.6c0.8,2.2,1.6,4.4,2.5,6.6
			c0.3,0.8,0.1,1.1-0.7,1.1c-0.8,0-1.6,0.1-2.4-0.2C207.5,322.1,207.3,321.6,207.1,321.1z"/>
		<path class="st8" d="M100.2,297.3c2.3-1.5,4.7-0.3,5,2.5c0.2,1.6,0.1,3.1-0.2,4.7c-0.1,0.7,0.3,1.3,0.8,1.5
			c1.1,0.6,1.6,1.5,1.6,2.7c0.8-0.1,0.5-0.7,0.6-1c0.1-0.3,0.1-0.7,0.5-0.6c1.6,0.5,1.4-0.5,1.4-1.5c0-1.3,0-2.6,0-3.9
			c-0.6,0-0.8-0.6-0.6-0.9c0.8-1.1,0.5-2.3,0.6-3.5c0-0.7,0.5-0.9,1-0.6c1.3,0.8,2.5-0.1,3.8-0.1c0.7,0,1.3-0.1,2.1,0.1
			c-1.3,0.9-1.8,3.1-0.9,4.8c0.3,0.6,0.4,1.2,0.4,1.8c0,3.2,0.3,6.4-0.1,9.6c-0.3,2.7,0.2,5.3,0.1,8c0,0.7,0,1.2,0.7,1.6
			c0.4,0.2,1.3,0.7,0.6,1.5c-0.7,0.7-1.1-0.1-1.6-0.5c-0.2-0.1-0.2-0.3-0.4-0.5c-0.4-0.2-0.8-0.5-1-1c-0.3-1.9-0.1-3.7-0.1-5.6
			c0-5.3,0-10.6,0-15.9c0-2-0.4-2.3-2.4-1.8c-0.1,0.1-0.3,0.3-0.4,0.4c-0.3,0.6-0.2,1.3-0.2,1.9c0,4.5,0,9,0,13.4
			c0,0.7,0.2,1.5-0.5,2.1c-0.9,0.2-1.2-0.6-1.5-1.1c-1.3-2-2.6-3.9-3.8-5.9c-1.4-2.4-3-4.8-4.5-7.2c-0.3-0.6-0.7-1.1-0.8-1.7
			c0.1-0.6-0.4-1.2-0.3-1.8c0.1-0.3,0.1-0.5-0.2-0.7C99.6,297.8,99.9,297.5,100.2,297.3z"/>
		<path class="st12" d="M426.5,301.2c-2,0.6-4.1,0.2-6.2,0.2c-1.3,0-1.7,0.4-1.7,1.7c0.1,5.7,0,11.5,0,17.2c0,2.6-0.5,2.9-3.2,2.1
			c0.4-0.5,0.2-1.1,0.2-1.7c0-6.1,0-12.3,0-18.4c0,6.1,0,12.3,0,18.4c0,0.6,0.2,1.2-0.2,1.7c-0.4-0.5-0.2-1.1-0.2-1.7
			c0-5.9-0.1-11.8,0-17.6c0-1.4-0.4-1.7-1.7-1.7c-2.1,0-4.1,0.4-6.2-0.2c2.5-0.4,5.1,0,7.3-0.2c-1.8,0-3.9,0-6,0
			c-0.9,0-1.3-0.3-1.3-1.2c0-1,0.6-1.1,1.4-1.1c3.5,0.3,6.9,0.2,10.4,0c1.9-0.1,3.8,0.4,5.8,0c0.5-0.1,1.2-0.3,1.3,0.5
			c0,0.9-0.7,0.8-1.3,0.7c-0.1,0-0.2,0-0.3,0c0,0,0.1,0,0.2,0c0.4,0.2,1.3-0.2,1.3,0.5c0,0.7-0.9,0.4-1.4,0.4c-1.9,0-3.7,0-5.3,0
			C421.6,301.2,424.1,300.8,426.5,301.2z"/>
		<path class="st6" d="M124.4,299.9c0.6-1.4-0.3-1.8-1.4-1.9c-1.2-0.1-0.7-0.5-0.3-1c0.2-0.1,0.4-0.2,0.6-0.3c0.3,0.5,1.1,0,1.3,0.6
			c0.5,0,0.9,0.1,1.3-0.4c0.3-0.3,0.9-0.5,1.1,0c0.2,0.5,0.9,0.7,0.5,1.5c-0.8,1.8-0.1,3,1.8,3.5c0.6,0.2,1.1,0.7,1.5,1.2
			c0.5,0.7,0.1,1.1-0.7,1.3c-0.6,0.2,0.1,0.6,0.2,0.9c0.2,0.6,0.5,1.2,1.2,1.4c0.4-0.5-0.1-1.1,0.5-1.6c0.8,0.7-0.1,1.8,0.8,2.6
			c0.4-1.2,0.1-2.3,0.2-3.4c0.1-1.5-0.4-3.1,0.6-4.5c0.2-0.3,0-0.8,0.1-1.3c0.1-0.7-1.3-2.9,1.3-1.3c0.1,0.1,0.5-0.1,0.7-0.3
			c0.3-0.3,0.7-0.4,1-0.2c0.5,0.3,0,0.7-0.1,1.1c1.3-1.1,2.6-2.2,4.2-0.6c-0.5,0.1-0.9,0.3-1.3,0.4c0.4,1.2,1.7,2,1.3,3.5
			c-0.4,0.2-0.5-0.1-0.6-0.3c-0.2-0.9-0.3-1.8-1.4-2.2c-0.5,0.5-1.1,0.4-1.7,0.4c-0.5,0-1,0.1-1,0.8c-0.1,5.6,0.1,11.2-0.1,16.8
			c0,0.2-0.1,0.4-0.2,0.5c-1.1,0.8-1.3-0.3-1.7-0.8c-0.2-0.5-0.1-1.1-0.7-1.3c-1.2-0.9-1.6-2.4-2.4-3.6c-1.2-1.7-2.4-3.6-3.4-5.5
			c-0.2-0.4-0.4-0.8-0.7-1.1c-0.7-1.1-1.4-2.2-2.1-3.3C124.6,301,124.1,300.5,124.4,299.9z"/>
		<path class="st2" d="M486.7,177.1l-0.2,0l-0.2,0c-0.6,0.4-1.3,0.2-1.9,0.2c-50.2,0-100.4,0-150.5,0c-2.3,0-2-0.2-2,2.1
			c0,36.3,0,72.7,0,109c0,0.6,0,1.3,0,1.9c-0.1,0.1-0.1,0.4-0.3,0.2c-0.4-0.3-0.3-0.6-0.1-1c0-37,0-73.9,0-110.9
			c0-0.8-0.2-1.6,0.6-2.2c0.5-0.5,1-0.9,1.3,0.2c0,0.1,0.3,0.1,0.4,0.1c0.4,0,0.8,0,1.1,0c49.9,0,99.8,0,149.8,0
			C485.4,176.8,486.1,176.6,486.7,177.1z"/>
		<path class="st15" d="M433.5,299c0.5,0.4,0.3,0.9,0.3,1.3c0,7,0,13.9,0,20.9c0,1.4-0.6,1.6-1.7,1.5c-1-0.1-1.8,0.2-1.8-1.4
			c0.1-7.1,0-14.2,0-21.2c0-0.4-0.2-0.9,0.3-1.2c2.7,0.3,2.7,0.3,2.7,3.1c0,6.2,0,12.3,0,18.5c0,1.3-0.1,2.2-1.5,1.7
			c-0.5,0.1-0.3,0.4-0.3,0.2c0,0,0-0.1,0.1-0.1c1.5,0.1,1.7-0.7,1.7-2c-0.1-6.6,0-13.2,0-19.8C433.4,300,433.3,299.5,433.5,299z"/>
		<path class="st16" d="M173.5,303.8c0.2,0,0.5,0,0.7,0c0.8,0.9,2.2,1.5,1.6,3.2c0.8-0.3,0.5-1.7,1.6-1.3c0.8,0.8,0.6,1.9,0.7,3.1
			c1.3-1.2,0.8-2.2,0.2-3.2c-0.4-0.8-0.7-1.5,0.4-1.9c0.8-0.3,0.3-1.2,0.9-1.8c0.6,0.9,0.2,2.1,0.9,2.9c0.3,0.3,0.4,1,0.9,0.8
			c0.5-0.2,0.4-0.7,0.1-1.2c-0.5-0.8-0.3-1.6-0.1-2.4c0.8,0,0.3,1.3,1.2,1c0.6-0.2,0.5-0.9,0.9-1.2c0.1,0,0.3,0,0.4,0
			c0.5,0.7,0.1,1.5-0.1,2.1c-1,3-1.9,6-2.9,9c-0.3,0.6-0.5,1.2-0.6,1.9c-0.3,1-0.6,1.9-1.1,2.9c-0.2,0.4-0.3,1-0.9,0.9
			c-0.5,0-0.6-0.5-0.8-0.9c-0.6-1.4-0.9-2.9-1.4-4.4c-0.8-2.6-1.9-5.2-2.6-7.9C173.4,304.9,173.1,304.3,173.5,303.8z"/>
		<path class="st3" d="M335.6,301.2c-2,0.7-4.1,0.1-6.1,0.3c-0.7,0.1-1.4-0.3-2,0.3c-0.4,0.5-0.2,1.1-0.2,1.7c0,5.7,0,11.5,0,17.2
			c0,0.9,0.1,1.7-1.3,1.7c-1.3,0-1.5-0.7-1.5-1.7c0-5.9,0-11.8,0-17.7c0-0.5,0-1,0.3-1.4c0-0.4,0.7,0.1,0.6-0.4
			c-0.3-1.7,0.2-2.5,1.8-2.4c2.3,0.1,4.7,0.2,7,0c0.8-0.1,1.1,0.2,1,1c0,0.7,0,1.3-1,1.3c-2.1,0-4.2,0-6.1,0
			C330.7,301.1,333.2,300.8,335.6,301.2z"/>
		<path class="st17" d="M100.5,298.9c0.2,0.5,0.5,1.1,0.3,1.7c-0.7,0-0.9-0.5-1.2-0.9c-0.9-1-2-0.7-3.1-0.5
			c-0.3,0.1-0.3,0.4-0.3,0.7c0,7.2,0,14.5,0,21.7c0.3,1.3,1,0.8,1.8,0.5c0.1-0.1,0.1-0.3,0.2-0.4c0.1-5.2,0-10.3,0-15.5
			c0-0.5,0-1.1,0.1-1.6c0.1-0.7,0.5-0.9,1.1-0.6c1.4,1.6,2.4,3.5,3.5,5.3c0.2,0.4,0.4,0.7,0.7,1.1c0.1,0.1,0.2,0.2,0.2,0.4
			c0.2,0.4,0.5,0.7,0.5,1.1c0,0.1-0.1,0.3-0.2,0.3c-1-0.1-1.4-1.2-2.6-1.3c-1.1,0-1.8,0.2-1.8,1.2c0.1,3.4-0.5,6.9,0.3,10.3
			c0.1,0.3,0.1,0.5-0.2,0.6c-1.3,0.5-2.5,0.9-3.9,0.7c-0.6-0.1-1.2-0.4-1.2-1.1c0-0.4,0.1-0.5-0.3-0.6c-0.9-0.2-0.5-0.9-0.1-1.1
			c0.9-0.6,0.8-1.4,0.8-2.2c0-6.4,0-12.9,0-19.3c0-2,0.3-2.4,2.2-2c1,0.2,2,0,3-0.1c0,0.2-0.4,0.4,0,0.6
			C100.4,298.2,100.7,298.5,100.5,298.9z"/>
		<path class="st18" d="M238.6,322.4c-0.8,0.5-1.6,0.2-2.5,0.3c-0.7,0-0.7-0.5-0.7-1c0-7.2,0-14.5,0-21.7c0-0.7,0.2-1.1,1-1.1
			c0.7,0.1,1.6-0.4,2.2,0.4c-0.4,0.6,0.3,1.5-0.5,2c-0.5-0.3-0.5-0.9-1.1-1.4c-0.3,0.9-0.5,1.8-0.5,2.8c0,5.8,0,11.6,0,17.4
			c0,0.5-0.2,1.2,0.5,1.6c0.6-0.6,0.4-1.3,0.4-1.9c0-5.2,0-10.3,0-15.5c0-0.6-0.1-1.3,0.2-1.9c0.1-0.3,0.2-0.8,0.8-0.4
			c0.1,6.2,0,12.5,0,18.7C238.5,321.2,238.4,321.8,238.6,322.4z"/>
		<path class="st19" d="M87.3,322.4c-0.5-0.4-0.3-1-0.3-1.5c0-6.8,0-13.6,0-20.4c0-1.4,0.5-1.7,1.8-1.7c1.3,0,1.7,0.4,1.7,1.7
			c-0.1,6.6,0,13.2,0,19.8C90.4,322.9,90,323.2,87.3,322.4c2-0.4,2.2-1.7,2.1-3.5c-0.1-5.5,0-11,0-16.6c0-0.5,0-1,0-1.4
			c-0.1-0.5-0.1-1-0.7-1c-0.7,0-0.7,0.6-0.8,1c-0.1,0.5,0,1.1,0,1.6c0,5.8,0,11.6,0,17.4C87.8,320.8,87.9,321.7,87.3,322.4z"/>
		<path class="st20" d="M205.2,306.3c-0.7-0.1-1.3-0.6-1.2-1.3c0.1-1.8-1.3-3-1.4-4.6c-0.1-0.8-1.2-0.5-1.6-1.1
			c-0.7,1.3,0.2,2.2,0.7,3c0.4,0.8,0.5,1.2-0.3,1.7c-0.4-0.1-0.7-0.5-1.2-0.5c-0.6,0.2-0.3,0.9-0.5,1.2c-0.1,0.1-0.1,0.3-0.3,0.4
			c-0.2,0.1-0.4,0.1-0.6-0.1c-1.1,1-1.3-0.7-2-0.7c0-0.2,0.1-0.4,0.1-0.6c0.7-0.9,1.3-1.8,1.2-3c0-0.1,0-0.1,0-0.2
			c0.5-0.8,0.6-1.8,1.6-2.2c0.9,0.3,2-0.5,2.9,0.3C203.4,301.2,204.5,303.7,205.2,306.3z"/>
		<path class="st21" d="M286.4,322.4c1.6,0.4,2-0.3,2-1.8c-0.1-6.2,0-12.5,0-18.7c-0.7-0.5-0.1-1.8-0.9-1.9c-1.1-0.1-0.3,1.4-1,1.9
			c0,4.6,0,9.2,0,13.9c-0.9-0.2-0.4-1-0.5-1.5c0-4.6,0-9.1,0-13.7c0-0.5,0.1-1.1-0.1-1.6c2.3-1,3.1-0.5,3.1,1.7c0,6.6,0,13.2,0,19.8
			c0,2.3,0,2.3-2.3,2.3c-0.5,0-1.1,0.2-1.5-0.3C285.5,322,285.9,322.1,286.4,322.4z"/>
		<path class="st22" d="M426.5,301.2c-2.6,0-5.1,0-7.7,0c0-0.1,0-0.2,0-0.3c2.4,0,4.8,0,7.1,0c0-0.1,0-0.2,0-0.3
			c-0.8-0.1-1.6-0.3-2.3-0.4c0-0.1,0-0.1,0-0.2c0.6,0,1.2,0,1.7,0c0.3,0,0.7,0,0.7-0.5c0-0.5-0.5-0.5-0.8-0.5
			c-3.5,0.6-6.9,0-10.4,0.3c-1.9,0.2-3.8,0.2-5.7-0.3c-0.6-0.1-1.2-0.2-1.3,0.7c-0.1,0.8,0.2,1.2,1.1,1.2c2.2-0.1,4.4,0.1,6.6-0.2
			c0,0.2,0,0.3,0,0.5c-2.7,0-5.4,0.1-8.1,0.1c-0.5-2.5-0.5-2.6,1.9-2.6c5.1,0,10.2,0,15.3,0C427,298.6,427.1,298.7,426.5,301.2z"/>
		<path class="st23" d="M335.6,301.2c-2.6,0-5.1,0-7.7,0c0-0.1,0-0.2,0-0.3c2,0,3.9,0,5.9,0c0.8,0,1.5,0.1,1.4-1.1
			c-0.1-1.2-0.9-0.7-1.5-0.7c-2,0.2-4,0.3-6-0.1c-1.4-0.3-2.2,0.8-1.7,2c0.4,1.1-0.5,0.3-0.7,0.5c-0.4-0.1-0.7-0.4-0.8-0.8
			c0-0.3,0.1-0.6,0.3-0.9c-2.3,0.1-4.5-0.3-6.8-0.2c-0.3,0-0.7,0-0.6,0.5c0.1,0.6,0.7,0.3,1,0.3c1.4,0,2.8,0,4.1,0
			c0.6,0,1.3,0,1.8,0.5c-0.1,0.1-0.1,0.3-0.3,0.4c-2.4,0.2-4.7,0-7.1,0.1c-0.5,0-0.6-0.3-0.6-0.8c0-0.6-0.2-1.3,0.1-1.9
			c6.1,0,12.1,0,18.2-0.1c0.8,0,1.1,0.2,0.9,1C335.6,300.1,335.7,300.6,335.6,301.2z"/>
		<path class="st24" d="M324.7,300.8c0.3,0.1,0.5,0.3,0.6,0.6c-0.3,0.5-0.3,1.1-0.3,1.7c0,5.8,0,11.6,0,17.4c0,0.8-0.1,1.6,1.2,1.6
			c1.3,0,1.1-0.9,1.1-1.7c0-5.7,0-11.4,0-17c0-0.6-0.2-1.2,0.3-1.6c0,6.9,0,13.8,0,20.6c-3.1,0.5-3.1,0.5-3.1-2.5
			c0-5.6,0-11.2,0-16.7c0-0.6,0.1-1.2-0.1-1.7c-2,0-3.9,0-5.9,0c-2.4,0-2.6-0.4-1.9-2.8c0,0.5,0,1.1,0,1.6c0,0.4,0,0.9,0.5,0.9
			c2.4,0,4.8,0.4,7.2-0.3C324.5,300.7,324.6,300.7,324.7,300.8z"/>
		<path class="st17" d="M104.7,316.6c-0.4-1.1-0.3-2.1,0-3.2c0.1-0.1,0.1-0.1,0.2-0.2c0.2-0.1,0.5,0,0.7,0.1
			c1.8,2.9,3.7,5.8,5.4,8.7c0.2,0.5,1,0.5,1,1.3c-0.7,0.8-1.4,1.1-2.1,0c0-0.7,0.2-1.8-1.2-1c-0.1,0.1-0.6-0.1-0.6-0.1
			c0.2-1.5-1.8-2-1.5-3.6C106.8,317.3,106.2,316.5,104.7,316.6z"/>
		<path class="st25" d="M458.1,322.5c-0.6-0.5-0.4-1.2-0.4-1.8c0-6.7,0-13.4,0-20.1c0-0.9,0-1.6-1-1.9c0.9-0.1,1.5-0.2,1.5,1.1
			c0,7.3,0,14.6,0,22C458.3,321.9,458.1,322.2,458.1,322.5z"/>
		<path class="st26" d="M433.5,299c0,7.1,0,14.2,0,21.2c0,2.4,0,2.4-2.6,2.1c0.4-0.3,0.8-0.2,1.2-0.2c0.8,0,1-0.3,1-1.1
			c0-6.9,0-13.8,0-20.8c0-0.7-0.3-1.1-1-1.1c-0.5,0-1.1,0.2-1.5-0.3C431.6,299,432.6,299,433.5,299z"/>
		<path class="st8" d="M109.8,323.4c0.7,0.4,1.4,0.8,1.9-0.3c0.2-0.2,0.4-0.2,0.6-0.2c0.5,0.4,1.2,0.3,1.6,0.8
			c0.4,0.8,0.4,1.3-0.7,1.3c-0.5,0-1,0.1-1.4-0.2c-0.6-0.4-1.4-0.3-1.6,0.2c-0.3,0.9,1,0.3,1.1,1.1c-0.7,0.5-1.4,0.7-2.3,0.2
			c-0.6-0.4-1.2-0.9,0-1.2C110.3,324.7,109,323.7,109.8,323.4z"/>
		<path class="st27" d="M404.2,298.7c0,7.2,0,14.5,0,21.7c0,2.2,0,2.2-2.2,2c0.6-0.5,1.5,0.2,1.8-0.6c0.2-0.6,0.1-1.3,0.1-1.9
			c0-7.1,0-14.1,0-21.2C404,298.6,404.1,298.6,404.2,298.7z"/>
		<path class="st28" d="M386.8,298.6c-0.8,0.3-1,0.9-1,1.8c0,6.7,0,13.5,0,20.2c0,0.6,0.2,1.3-0.3,1.8c0-7.6,0-15.2-0.1-22.9
			C385.5,298.5,386.1,298.5,386.8,298.6z"/>
		<path class="st29" d="M440.3,298.6c-0.7,0.4-0.6,1.2-0.6,1.9c0,6.7,0,13.4,0,20.1c0,0.6,0.3,1.3-0.3,1.8c0-7.6,0-15.3-0.1-22.9
			C439.3,298.8,439.5,298.5,440.3,298.6z"/>
		<path class="st3" d="M324.4,301.5c0.5,0.5,0.3,1.1,0.3,1.7c0,5.7,0,11.4,0,17c0,2.2,0,2.2,2.3,2.2c0.2,0,0.4,0,0.6,0
			c-0.8,0.6-1.8,0.3-2.6,0.3c-0.9-0.1-0.6-0.9-0.6-1.4C324.4,314.7,324.4,308.1,324.4,301.5z"/>
		<path class="st30" d="M238.6,322.4c-0.4-0.5-0.2-1.1-0.2-1.7c0-6.3,0-12.6,0-18.9c-0.2-0.2-0.2-0.4,0-0.6c0.1-0.6-0.2-1.3,0.3-1.9
			C238.7,307,238.8,314.7,238.6,322.4z"/>
		<path class="st31" d="M402.3,298.6c-0.7,0.4-0.6,1.2-0.6,1.8c0,5.6,0,11.2,0,16.8c0,0.1,0,0.2-0.1,0.3c0,0-0.2,0-0.3,0
			c0-5.9,0-11.8,0-17.7C401.3,299.3,401.1,298.4,402.3,298.6z"/>
		<path class="st25" d="M456.4,298.6c-0.8,0.3-1,0.9-1,1.8c0,5.2,0,10.4,0,15.6c0,0.6,0.2,1.2-0.3,1.6c0-5.9,0-11.8,0-17.7
			C455.1,298.9,455.3,298.4,456.4,298.6z"/>
		<path class="st32" d="M285.8,298.9c0.4,0.5,0.3,1.1,0.3,1.7c0,4.5,0,8.9,0,13.4c0,0.6-0.2,1.2,0.3,1.7c0,0.1,0,0.2,0,0.3
			c-0.4,0.2,0.2,1.1-0.6,1C285.7,310.9,285.8,304.9,285.8,298.9z"/>
		<path class="st6" d="M177.5,305.7c-1,0.2-0.6,1.6-1.7,1.8c-0.1-0.4-0.2-0.8-0.2-1.2c-0.1-0.7,0.1-1.4-1-1.4
			c-0.5,0-0.2-0.7-0.3-1.1C175.4,304.3,177.1,303.9,177.5,305.7z"/>
		<path class="st33" d="M380.7,319.9c-0.4,0.4-0.9,0.3-1.4,0.3c-3.7,0-7.4,0-11.1,0c-0.5,0-1,0.1-1.4-0.3
			C371.5,319.9,376.1,319.9,380.7,319.9z"/>
		<path class="st6" d="M168.1,318.5c0.8,1.5-0.2,2.6-0.5,3.7c-0.1,0.2-0.5,0.2-0.7,0.1c-0.4-0.2-0.4-0.6-0.3-1
			C167.1,320.5,167.6,319.6,168.1,318.5z"/>
		<path class="st34" d="M351.7,298.6c-2.3,0.6-4.5,0.2-6.8,0.2c-1.2,0-2.5,0.4-3.8-0.2C344.7,298.6,348.2,298.6,351.7,298.6z"/>
		<path class="st35" d="M326.5,291.5c0.1-0.2,0.3-0.4,0.4-0.6c0.4,0,0.9,0.1,1.2-0.2c0.2-0.3,0.3-0.9,0.9-0.5
			c0.5,0.4,0.6,0.8,0.2,1.3C328.3,291.9,327.4,292.3,326.5,291.5z"/>
		<path class="st17" d="M104.7,313.4c-1,0.8-1,0.8-2.3,0.6c-0.2-1.2,1.4-1,1.6-1.9c0,0,0.1,0,0.1,0c0.1,0,0.1-0.1,0.2-0.1
			c0.1,0,0.3,0.1,0.4,0.2C104.8,312.5,105,312.9,104.7,313.4L104.7,313.4z"/>
		<path class="st36" d="M286.4,322.4c-0.4,0-0.8,0-1.2,0c-0.6-0.5-1-1.2-1.3-1.9c0.5,0,0.7-0.7,1.2-0.6c0.1,0,0.1,0.1,0.2,0.1
			c0.2,0.6,0.3,1.3,1.1,1.6c0,0.1,0.1,0.1,0.1,0.2C286.4,322,286.4,322.2,286.4,322.4z"/>
		<path class="st37" d="M297.4,319.8c-0.5-0.2-0.4-0.7-0.4-1.1c0-1.9,0-3.8,0-5.8c0-0.4-0.1-0.9,0.4-1.1
			C297.4,314.5,297.4,317.2,297.4,319.8z"/>
		<path class="st38" d="M202.6,298.6c-1.1,0-2.1,0-3.2,0c-0.2,0.2-0.5,0.2-0.7-0.1C199.6,297.7,201.9,297.7,202.6,298.6z"/>
		<path class="st39" d="M297.4,308.9c-0.7-0.5-0.4-1.3-0.4-1.9c0.1-1.7-0.4-3.5,0.3-5.2C297.3,304.2,297.4,306.5,297.4,308.9z"/>
		<path class="st40" d="M222.6,312.1c0.6-1.3,1-2.8,2.6-3.2C224.5,310.1,223.7,311.2,222.6,312.1z"/>
		<path class="st41" d="M198,300.7c0.7,1.4,0.1,2.4-1.2,3C197.2,302.7,197.4,301.6,198,300.7z"/>
		<path class="st8" d="M118.1,299.7c-0.7,0.1-1.4,0.5-1.8-0.4c-0.1-0.2-0.3-0.6,0.2-0.7C117.3,298.5,117.7,298.9,118.1,299.7z"/>
		<path class="st17" d="M114,323.7c-0.6-0.1-1.4,0.4-1.6-0.6c0.7-0.7,1.8-0.1,2.6-0.7c0.4,0,0.6,0.2,0.6,0.6
			C115.1,323.4,114.7,323.8,114,323.7z"/>
		<path class="st8" d="M128.1,322.2c0.4-0.5,0.5-1.3,1.4-1c0.4,0.1,0.5,0.5,0.3,0.8C129.3,322.8,128.7,322.3,128.1,322.2z"/>
		<path class="st42" d="M194.9,308.6c-0.3,1.1-0.7,2.3-1.3,3.3c-0.3-1.4,0.5-2.5,1.2-3.7C195,308.3,195.1,308.5,194.9,308.6z"/>
		<path class="st43" d="M471.9,323.1c1-0.6,2-0.6,2.9,0C473.8,323.4,472.8,323.4,471.9,323.1z"/>
		<path class="st21" d="M285.7,316.9c0.2-0.3,0.4-0.6,0.6-1c0,0.6,0,1.3,0,1.9c-0.1,0.3-0.3,0.5-0.6,0.3c-0.2-0.3-0.7-0.5-0.6-1
			C285.4,317.3,285.6,317.2,285.7,316.9z"/>
		<path class="st8" d="M116.9,319.9c0-1-0.2-1.7,0.3-2.7C117.7,318.2,117.7,318.8,116.9,319.9z"/>
		<path class="st8" d="M127.4,319c0.6,0.9,0.4,1.4,0.3,2.1C127,320.5,127.3,320,127.4,319z"/>
		<path class="st44" d="M198.7,298.6c0.2,0,0.4,0,0.7,0.1c-0.4,0.6-0.9,1.3-1.3,1.9C198,299.8,198.4,299.2,198.7,298.6z"/>
		<path class="st45" d="M193.6,321.8c0-0.7,0.2-1.4,0.7-1.9C194,320.5,194.8,321.5,193.6,321.8z"/>
		<path class="st8" d="M117.6,301.7c0,0.5,0.1,1.1-0.5,1.5C116.9,302.6,116.8,302.1,117.6,301.7z"/>
		<path class="st46" d="M205.9,308.2c-1-0.4-0.6-1.2-0.7-1.9C205.7,306.9,205.9,307.5,205.9,308.2z"/>
		<path class="st6" d="M169.8,316.6c0.1-0.2,0-0.5,0.4-0.4c0.2,0.1,0.3,0.3,0.2,0.5c0,0.2,0,0.5-0.3,0.4
			C169.8,317,169.8,316.8,169.8,316.6z"/>
		<path class="st47" d="M207.8,313.4c-1-0.2-0.5-1.1-0.6-1.7C207.6,312.2,207.8,312.7,207.8,313.4z"/>
		<path class="st48" d="M229.1,304.1c-0.1-0.7-0.1-1.3,0.9-1C230.1,303.8,229.4,303.8,229.1,304.1z"/>
		<path class="st17" d="M103,315.4c0.6,0.4,0.3,0.8,0.4,1.2c-0.1,0-0.2,0-0.3-0.1C102.6,316.3,102.7,315.9,103,315.4z"/>
		<path class="st47" d="M208.4,315c-1-0.2-0.7-1-0.6-1.6C208.2,313.9,208.4,314.4,208.4,315z"/>
		<path class="st45" d="M194.2,319.9c0-0.6,0.2-1.2,0.6-1.7C194.8,318.8,195.3,319.6,194.2,319.9z"/>
		<path class="st17" d="M103.4,316.6c0.4,0,0.9,0,1.3,0c0,0.4-0.3,0.7-0.7,0.6C103.6,317.2,103.4,317,103.4,316.6z"/>
		<path class="st49" d="M194.9,308.6c0-0.1-0.1-0.3-0.1-0.4c0.1-0.5,0.2-1,0.7-1.3C195.6,307.6,195.5,308.2,194.9,308.6z"/>
		<path class="st50" d="M194.9,317.9c-0.1-0.6,0.1-1.2,0.6-1.6C195.6,316.9,195.4,317.5,194.9,317.9z"/>
		<path class="st8" d="M124.7,297.3c-0.3-0.4-1.3,0.4-1.3-0.6C123.9,296.7,124.5,296.4,124.7,297.3z"/>
		<path class="st51" d="M230,303.1c-0.1-0.7,0.5-0.7,0.9-1.1C231.1,302.8,230.8,303.1,230,303.1z"/>
		<path class="st52" d="M283.1,314c-0.7-0.1-0.7-0.5-0.6-1C282.9,313.3,283.2,313.6,283.1,314z"/>
		<path class="st53" d="M207.1,321.1c0.4,0.3,0.6,0.8,0.6,1.3C207.1,322.2,207.1,321.7,207.1,321.1z"/>
		<path class="st54" d="M228.4,305c-0.4-0.8,0.4-0.7,0.7-0.9C229,304.5,228.8,304.8,228.4,305z"/>
		<path class="st55" d="M221.9,313.1c0-0.5,0-0.9,0.7-0.9C222.6,312.6,222.3,312.9,221.9,313.1z"/>
		<path class="st56" d="M220.6,309.8c0.1,0.5,0,1-0.7,1C219.9,310.3,220.3,310.1,220.6,309.8z"/>
		<path class="st57" d="M215.5,316.3c0,0.5,0,1-0.7,1C214.8,316.8,215.1,316.5,215.5,316.3z"/>
		<path class="st58" d="M284.4,316c-0.6-0.1-0.6-0.5-0.6-1C284.1,315.2,284.4,315.5,284.4,316z"/>
		<path class="st59" d="M219.3,316.3c0-0.5,0.1-1,0.7-0.9C220,315.8,219.7,316.1,219.3,316.3z"/>
		<path class="st60" d="M281.2,310.8c-0.6-0.1-0.7-0.5-0.6-1C280.9,310.1,281.2,310.4,281.2,310.8z"/>
		<path class="st7" d="M267.4,323.1c-0.2,0.3-0.3,0.7-0.7,0.5c-0.4-0.2-0.1-0.4,0.2-0.5C267,323.1,267.2,323.1,267.4,323.1z"/>
		<path class="st61" d="M217.5,319.8c-0.2,0-0.6,0.1-0.6-0.2c0-0.4,0.3-0.5,0.6-0.7C217.4,319.2,217.4,319.5,217.5,319.8z"/>
		<path class="st62" d="M13.7,177.7c0.5-0.8,1.3-0.4,1.9-0.4c34.6,0,69.1,0,103.7,0c15.3,0,30.6,0,45.9,0c1.4,0,1.8,0.3,1.8,1.8
			c0,36.8,0,73.6,0,110.5c0,1.3-0.3,1.7-1.7,1.7c-50,0-99.9,0-149.9-0.1c-0.5,0-1.4,0.5-1.7-0.5c0.2-0.1,0.4-0.1,0.6-0.1
			c24.5,0,49,0,73.4,0c25.9,0,51.7,0,77.6,0c0.3,0,0.6-0.1,0.7-0.5c0.1-0.4,0-0.8,0-1.2c0-0.7,0-1.3,0-2c-0.1-1,0-2,0-3.1
			c0-35,0-69.9,0-104.9c0-0.5-0.2-0.8-0.8-0.8c-29.4,0-58.8,0-88.2,0c-20.1,0-40.2,0-60.3,0c-0.8,0-1.6,0-2.4,0
			C14.1,177.9,13.9,177.8,13.7,177.7z"/>
		<path class="st2" d="M323.4,174.4c0.8,1.8-0.2,1.8-1.4,1.8c-18.1,0-36.3,0-54.4,0c-28.9,0-57.7,0-86.6,0c-0.6,0-1.3,0.2-2.2-0.3
			c0.8-0.5,1.5-0.3,2.1-0.3c46.7,0,93.5,0,140.2,0C322,175.5,323.1,175.9,323.4,174.4z"/>
		<path class="st35" d="M326.9,287.3c0-0.5-0.1-1.1-0.1-1.6c0-35.4,0-70.8,0-106.2c0-0.5,0-1,0.1-1.4c0.2-0.2,0.4-0.2,0.7,0
			c0,35.7,0,71.4,0,107.1C327.6,285.9,327.9,286.8,326.9,287.3z"/>
		<path class="st63" d="M13.9,290.6c-0.1,0-0.2,0-0.2-0.1c0-1.8-0.1-3.5-0.1-5.3c0-35.2,0-70.3,0-105.5c0-0.7,0-1.4,0.1-2.1
			c0.1,0,0.2,0,0.2,0c0.1,0.2,0.3,0.3,0.3,0.6c0.2,0.8,0.1,1.6,0.1,2.4c0,35.7,0,71.3,0,107c0,0.8,0.1,1.6-0.1,2.4
			C14.1,290.3,14,290.5,13.9,290.6z"/>
		<path class="st2" d="M327.6,178.1c-0.2,0-0.4,0-0.7,0c0-0.8-0.4-1.3-1.3-1.3c-0.1-0.2-0.2-0.3-0.3-0.5c1,0,2.1-0.7,2.9,0.5
			C327.6,177,328,177.8,327.6,178.1z"/>
		<path class="st35" d="M326.9,290.2c-0.1-0.9-0.1-1.7,0-2.6C328.3,288.8,328.3,289.4,326.9,290.2z"/>
		<path class="st2" d="M325.3,175.7c-0.4-0.9-0.4-1.4,0-2C325.8,174.3,325.7,174.8,325.3,175.7z"/>
		<path class="st0" d="M331.4,289.6c0,0.3,0,0.7,0.3,1c0.3,0.3,0,0.4-0.2,0.6c0,0.1,0,0.2,0,0.3
			C330.7,290.9,330.8,290.2,331.4,289.6z"/>
		<path class="st35" d="M327.6,178.1c0.1-0.5-0.2-1.2,0.6-1.3c-0.1,0.3-0.2,0.6-0.1,0.9C328.3,178.3,328,178.3,327.6,178.1z"/>
		<path class="st0" d="M370.7,190.7c-0.1-1,0.3-1.3,1.4-1.3c23.7,0,47.3,0,71,0c1,0,1.5,0.1,1.4,1.3c-0.1,3.1-0.1,6.2-0.1,9.3
			c-0.3,0.3-0.7,0.2-1.1,0.2c-9.2,0-18.4,0-27.6,0c-0.3,0-0.6,0-0.9-0.1c-0.5-0.1-1-0.1-1,0.6c0,0.5,0,1,0,1.4c0,26,0,52,0,78
			c-0.3,0.4-0.8,0.2-1.2,0.2c-3.7-0.1-7.3,0.2-11-0.1c-0.6-0.5-0.3-1.2-0.3-1.8c0-25.6,0-51.2,0-76.8c0-0.5,0.3-1.2-0.3-1.6
			c-0.6,0.2-1.2,0.1-1.8,0.1c-9.3,0-18.5,0-27.8,0c-0.6,0-0.9-0.2-0.9-0.9C370.7,196.5,370.4,193.6,370.7,190.7z"/>
		<path class="st64" d="M331.5,291.2c0.1-0.2,0.1-0.4,0.2-0.6c0-1.1,0-2.1,0-3.2c0-36.1,0-72.1,0-108.2c0-2.2-0.3-2.1,2.1-2.1
			c50.2,0,100.4,0,150.7,0c0.6,0,1.3,0,1.9,0c-0.6,0.6-1.4,0.3-2.1,0.3c-50,0-99.9,0-149.9,0c-2.6,0-2.3-0.2-2.3,2.3
			c0,36.4,0,72.8,0,109.1c0,0.9-0.4,2.1,1.3,1.9c0.1,0.1,0.1,0.1,0.1,0.2c0,0.1-0.1,0.1-0.1,0.1
			C332.8,291.1,332.1,291.2,331.5,291.2z"/>
		<path class="st65" d="M333.4,291.1c0-0.1,0-0.2,0-0.3c50.9,0,101.7,0,152.7,0c-0.4,0.5-0.8,0.3-1.1,0.3c-50.2,0-100.5,0-150.7,0
			C334,291.2,333.7,291.1,333.4,291.1z"/>
		<path class="st66" d="M486.1,289.1c0-37,0-73.9,0-110.9c0.1,0,0.1,0,0.2,0c0,37,0,74,0,111C486.2,289.2,486.2,289.2,486.1,289.1z"
			/>
		<ellipse class="st67" cx="400.9" cy="240.4" rx="0.1" ry="55.7"/>
		<path class="st68" d="M443.8,189c-24,0-48,0-72,0c0-0.1,0-0.2,0-0.3c24,0,48,0,72,0C443.8,188.8,443.8,188.9,443.8,189z"/>
		<path class="st68" d="M414.9,200.1c8.8,0,17.7,0,26.5,0c1,0,2,0,3.1,0c0.1,0.6-0.4,0.3-0.6,0.3c-9.3,0-18.6,0-28,0
			C415.6,200.3,415.2,200.4,414.9,200.1z"/>
		<path class="st68" d="M371.4,200.1c9.9,0,19.7,0,29.6,0c-0.5,0.5-1.1,0.3-1.7,0.3c-8.5,0-16.9,0-25.4,0c-0.8,0-1.7,0-2.5,0
			c-0.1-0.1-0.2-0.1-0.1-0.2C371.3,200.1,371.3,200.1,371.4,200.1z"/>
		<path class="st29" d="M401.7,280.3c4.1,0,8.1-0.1,12.2-0.1c-0.2,0.4-0.6,0.4-1,0.4c-3.5,0-6.9,0-10.4,0
			C402.2,280.6,401.9,280.5,401.7,280.3z"/>
		<path class="st69" d="M371.4,200.1c0,0.1,0,0.2,0,0.3c-0.4,0-1,0-0.9-0.6c0.1-3-0.4-6,0.3-9c0,2.7,0,5.3,0.1,8
			C370.8,199.2,370.5,199.9,371.4,200.1z"/>
		<path class="st70" d="M24.8,307.6c1,0.1,1.9,0.2,2.8-0.1c0,0.1,0.1,0.2,0.1,0.2c-0.1,0.3-0.4,0.3-0.6,0.4
			c-2.5,0.3-5.1,0.1-7.6,0.2c2.5,0.2,5,0,7.4-0.1c0.1-0.1,0.3-0.1,0.4-0.2c0.3-0.2,1-0.1,0.5-0.8c0-0.4,0-0.9,0.1-1.3
			c0.6-0.2,0.3-0.7,0.3-1.1c0.1-1.9-0.3-3.8,0.3-5.7c0.2-0.2,0.4-0.2,0.7-0.2c0.5,0.2,0.4,0.7,0.4,1c0-0.5,0.1-1.1,0.8-1.2
			c1.2-0.1,1.8,0.2,1.8,1.5c-0.1,7.2,0.1,14.4-0.1,21.5c-0.6,0.5-3.6,0.8-4,0.5c-0.4-0.3-0.2-0.8-0.3-1.2c0-2.6,0-5.2,0-7.8
			c0-1.9,0-1.8-1.8-1.8c-2.6,0.1-5.1-0.1-7.7,0.1c-0.3,2.9-0.1,5.7-0.2,8.6c0,0.7,0.2,1.4-0.1,2c-0.5-1.5-0.1-3.1-0.2-4.6
			c-0.1-1.8,0-3.6,0-5.5c0,3,0,6,0,9c0,1.1-0.3,1.5-1.4,1.3c-0.9-0.1-1.8,0.1-2.7-0.1c-0.3-1.9-0.1-3.8-0.1-5.8c0-5.3,0-10.7,0-16
			c0,7.1,0,14.2,0,21.3c0,0.3-0.1,0.4-0.4,0.3c0-4.4-0.1-8.8-0.1-13.1c0-2.9,0-5.9,0-8.8c0-0.5-0.3-1.1,0.3-1.5
			c0.2-0.1,0.3-0.1,0.5-0.1c1.3,0.3,2.6-0.4,3.8,0.5c0.1,2.5,0,5,0,7.4c0.1-2.4-0.3-5,0.2-7.6c0.3,2.2,0.2,4.5,0.1,6.7
			c-0.1,1.6,0.4,2.1,1.9,1.9c0.4-0.1,0.7-0.1,1.1-0.1C22.4,307.3,23.6,307.4,24.8,307.6z"/>
		<path class="st70" d="M41.2,321.8c-1.5-0.7-2.4-1.8-2.8-3.3c-0.3-0.7-0.2-1.3-0.1-2c-0.1,0.3,0.1,0.7-0.3,0.8
			c-0.4-0.6-0.3-1.3-0.3-1.9c0.4-1.3,0.2-2.5,0.2-3.8c0-3.2,0-6.5,0-9.7c-0.1,4.5,0.3,9-0.2,13.4c-0.4-1.4-0.2-2.8-0.2-4.1
			c0-3.6,0.1-7.3-0.1-10.9c-0.1-1.5,0.5-2,1.9-1.8c0.7,0.1,1.5,0.1,2.2,0.1c0.8,0.4,0.8,1.1,0.8,1.9c0,4.6,0,9.2,0,13.8
			c0,0.5-0.2,1.1,0.2,1.5c0.4,1.6,1.2,2.8,2.8,3.3c0.1,0.2,0.3,0.3,0.4,0.5c0.9,0.6,1.7,0.7,2.6,0c0-0.2,0.1-0.4,0.3-0.5l0.1-0.1
			l0.1,0c1.2-0.3,2.1-0.3,2.3,1.3c0.1,0.7,1.2,1,0.8,1.9c-1,0.6-2.1,0.8-3.2,0.7c-1.1-0.3-2.2-0.3-3.3,0c-0.6,0-1.3,0.2-1.9-0.3
			c0.3-0.3,0.6-0.2,1-0.1c-0.7-0.3-1.4,0.1-2-0.3l-0.1,0l-0.1-0.1c-0.5-0.5,0.4-0.7,0.3-1.2C41.9,321.2,41.8,322.1,41.2,321.8z"/>
		<path class="st71" d="M80.2,307c-0.2,1.2-1.2,1.8-2.1,2.6c3,2.1,4.4,4.7,2.8,8.2c-0.4-0.1-0.5-0.5-0.8-0.8c0.2-1.4,0.9-2.8-0.4-4
			c-1.2-0.8-1,0.6-1.5,0.9c0.7,0.1,0.3-1.6,1.5-0.9c0.6,1.3,0.9,2.6-0.4,3.7c-0.1,0.1,0.6,0,0.8,0.3c0.5,0.2,0.3,1,0.8,1.2
			c-0.5,1.2-1,2.3-2.2,2.9c-0.5-0.2-0.5-0.5-0.3-1c0.4-1.5-0.1-2.2-1.7-2.1c-0.5-0.3-0.7-0.7-0.7-1.3c0-0.3,0-0.5,0-0.8
			c0.1-2.4-0.7-3.3-3.2-3.3c-1.5,0-3.1,0-4.6,0c-0.5,0-1.1,0-1.6-0.1c-0.2-0.1-0.3-0.2-0.4-0.3c0-0.5,0.4-0.6,0.8-0.7
			c1.3,0,2.6-0.1,3.9,0.2c0.9,0.2,1.8,0.1,2.6-0.3c0.9-0.3,1.8,0.1,2.9-0.7c-1.4,1-2.9,0-4,1c-0.6,0-1.1,0.1-1.7,0
			c-1.1-0.8-1.3-1.9-1.2-3.2c1.2-0.6,2.5,0,3.7-0.5c0.6-0.1,1.2-0.2,1.7,0.1c0.7,0.4,0.4,0.8-0.3,1.2c0.9-0.3,0.9-0.7,0.4-1.1
			c-0.1-0.5,0.2-0.7,0.6-0.8c0.9,0.8,1.9,0.1,2.8,0.2c0.3,0.1,0.3-0.5,0.5-0.7c0.2-0.2,0.4-0.4,0.5-0.6c-0.2,0-0.5,0.1-0.7-0.2
			c-0.2,0.3-0.1,0.6-0.3,0.9c-0.4,0.5-0.8,0.5-1.3,0.2c-0.5-0.4-0.3-0.8-0.1-1.3c0.5-1.5,0.3-2.7-1.2-3.5c-0.5-0.3-0.9-0.7-0.5-1.3
			c0.3-0.5,0.8-0.4,1.3-0.2c0.4,0.1,0.7,0.5,1.2,0.4c-0.1-0.6-2.3-0.4-0.5-1.6c0.2,0,0.5,0,0.6,0.2c1.4,0.4,2,1.4,2.3,2.7
			C80.5,304.1,80.5,305.6,80.2,307z"/>
		<path class="st72" d="M51.9,322.4c-0.4-1-1.5-1.4-1.4-2.7c0-0.6-1.1-0.2-1.6-0.5c2.1-0.9,2.7-2.5,2.8-4.6c0-0.8,0.2-1.6,0.3-2.4
			c0.5-0.5,0.3-1.2,0.3-1.8c0.1-2.8-0.1-5.6,0.1-8.5c0-0.2,0.1-0.3,0.2-0.5c0.3-0.6,0.2-1.6,1.1-1.6c0.9,0.1,1.1,1.1,1.3,1.9
			c0.3,1.3,0.1,2.7,0.1,4c0,2,0.2,4-0.1,5.9c-0.1,0.4-0.3,0.7-0.6,0.9c-0.7,0.6-1,1.2-0.3,2.2c0.6,0.8,0.4,2.1,0.8,3
			c0.1,0.3,0,0.7-0.3,0.8c-0.4,0.2-0.7,0-1-0.3c-0.7-0.6-0.5-1.6-1.2-2.4c0.3,1,0.5,1.7-0.3,2.5c-0.5,0.6-0.5,1.5,0.2,2.2
			c0.3,0.3,0.7,0.7,0.4,1.2C52.5,322.3,52.3,322.4,51.9,322.4z"/>
		<path class="st73" d="M52.5,321.8c0-0.4-0.3-0.7-0.6-0.9c-0.8-0.8-1.2-1.5-0.4-2.6c0.5-0.6,0.6-1.3,0.3-2.1c-0.1-0.3,0-0.6,0-0.9
			c0-0.1,0.2-0.3,0.2-0.4c1.2,0.8,0.5,2.8,2.5,3.7c-0.7-1.5-0.5-3-1.2-3.8c-1.5-1.8,0-2.1,1-2.7c0.1,0,0.1,0.1,0.2,0.1
			c1.5,1.6,1.4,3.5,1.2,5.5c0,0.3,0,0.6-0.1,0.9c0.2,0.6-0.7,0.7-0.7,1.3c-0.3,0.2-0.5,0.5-1,0.3c-0.2-0.1-0.4-0.3-0.7-0.3
			c0.2,0.1,0.5,0.1,0.7,0.3c0.2,0.4-0.1,0.7-0.3,1C53.6,321.7,53.1,321.9,52.5,321.8z"/>
		<path class="st73" d="M54.4,312.1c0-2.9,0-5.8,0-8.7c0-1.3-0.2-2.4-1-3.4c-0.7,0.4,0.2,1.6-1,1.7c-0.2,0.2-0.4,0.2-0.7,0
			c-0.4-3.3-0.4-3.3,2.8-3.2c0.4,0,0.7,0,1.1,0c1.4,0.9,0.7,2.2,0.6,3.4c-0.8,0.5-0.7,1.4-0.8,2.2c-0.1,2.4,0.5,4.7,0.3,7
			C55.7,312,55.7,313,54.4,312.1z"/>
		<path class="st74" d="M74.5,322.4c-0.9,0.5-1.8,0.2-2.7,0.2c-3,0-6,0-9,0c-0.7,0-1.3,0-1.2-1c0.1-7.3,0.1-14.6,0.1-22
			c0.1-0.3,0.1-0.8,0.7-0.4c0.1,0.2,0.2,0.3,0.2,0.5c0.1,5.6,0,11.1,0.1,16.7c0,1.2,0,2.5,0,3.7c0,0.6,0,1.2,0.6,1.5
			c2,0.4,4.1,0.1,6.1,0.2c1.6,0.1,3.1-0.1,4.7,0.1C74.2,322.2,74.3,322.3,74.5,322.4z"/>
		<path class="st71" d="M54.4,312.1c0.7,0.2,1,0,1-0.8c0.1-2.8-0.5-5.5-0.4-8.2c0.1-1,0.3-1.4,1.3-1.3c0.4,0.8,0.2,1.6,0.2,2.3
			c0,4,0.2,8-0.1,12c0.1,0.9-0.1,1.7-0.6,2.5c-0.5-1.6,0.1-3.2-0.5-4.8C55,313.2,54.5,312.8,54.4,312.1z"/>
		<path class="st75" d="M74.5,322.4c-0.2,0-0.3-0.1-0.5-0.1c-2.9-0.2-5.8-0.1-8.8-0.1c-0.6-0.4-0.2-0.7,0-1.1
			c0.7-0.5,1.5-0.6,2.4-0.5c0.9,0.1,1.7,0.1,2.5-0.3c0.1-0.1,0.3-0.1,0.4-0.2c0.2,0,0.3-0.1,0.5-0.1c1,0.2,1.4-0.2,1.6-1.2
			c0.6-0.2,1.1-0.2,1.7,0c0.6,0.4,1.3,0.5,2.1,0.5c0.4,0,0.8,0,1.2,0.3c0.3,0.7-0.3,0.9-0.7,0.9c-1.3,0.1-2.5,1.2-3.6,0.7
			c0.9,0.1,2,0,3.2-0.5c0.5-0.2,1.4-0.4,1.9,0.4C77.2,322.2,75.9,322.6,74.5,322.4z"/>
		<path class="st76" d="M18.4,311.7c1.7-0.6,3.4-0.1,5.1-0.3c1-0.1,2.1,0.1,3-0.1c1.2-0.2,1.5,0.3,1.5,1.4c0,2.7,0.1,5.4,0,8
			c-0.1,1.4,0.4,1.9,1.7,1.7c0.7-0.1,1.5,0.3,2.2-0.3c0.3-0.5,0.2-1.1,0.2-1.7c0-5.7,0-11.4,0-17.1c0-0.5-0.4-1.2,0.4-1.5
			c0,6.6,0,13.2,0.1,19.8c0,0.8-0.3,1.1-1.1,1.1c-3.9,0.2-3.9,0.2-3.9-3.6c0-2,0-4,0-5.9c0-1-0.3-1.4-1.4-1.4
			C23.6,311.8,21,311.7,18.4,311.7z"/>
		<path class="st77" d="M32.5,301.8c-0.5,0.5-0.3,1.1-0.3,1.7c0,5.7,0,11.3,0,17c0,0.6,0.2,1.2-0.3,1.7c0-7,0-14,0-21
			c0-1.6-0.5-2.2-2-1.9c-0.2,0.2-0.4,0.2-0.6,0c-0.2,0-0.4,0-0.6,0c-0.6,0.9-0.2,1.9-0.3,2.8c-0.1,1.3,0.3,2.7-0.3,4
			c0,0.5,0,1.1,0,1.6c-0.1,0.1-0.2,0.1-0.3,0c0,0-0.1-0.1-0.1-0.1c0-2.6,0-5.3-0.1-7.9c0-0.8,0.2-1.2,1.1-1.1c0.3,0,0.5,0,0.8,0
			C32.7,298.6,32.7,298.6,32.5,301.8z"/>
		<path class="st78" d="M76.3,319.8c-0.6-0.2-1.6,0.5-1.9-0.6c-0.2-0.2-0.2-0.4-0.1-0.6c0.1-0.1,0.2-0.2,0.3-0.3
			c0.7,0.1,1.2-1,2-0.4c0.5-0.2,1.1-1,1.5-0.3c0.4,0.8,1.5,1.7,0.4,2.7c-0.4,0.4,0,0.5,0,0.8c0,0.1-0.1,0.1-0.2,0.1
			c-0.9,0.2-2.1-0.9-2.6,0.7c0,0.1-0.2,0.1-0.3,0.1c-1.4-0.2-2.7-0.4-4.1-0.7c2.2,0,4.3-0.6,6.3-1.5
			C77.2,319.4,76.8,319.4,76.3,319.8z"/>
		<path class="st79" d="M51.8,301.8c0.2,0,0.4,0,0.7,0c0,3,0,6,0,8.9c0,0.5,0.2,1.2-0.7,1.4C51.7,308.7,51.7,305.2,51.8,301.8z"/>
		<path class="st80" d="M42.6,315.9c-0.9-0.1-0.4-0.8-0.4-1.1c0-4.5-0.1-9.1,0-13.6c0-0.9-0.1-1.8-0.7-2.5c1.2-0.3,1,0.6,1,1.3
			c0,4.4,0,8.7,0,13.1C42.5,314,42.6,314.9,42.6,315.9z"/>
		<path class="st81" d="M56.4,316.1c0-4.8,0-9.5-0.1-14.3c0-1.1,0.4-2.3-0.6-3.2c0.6-0.1,1-0.1,1,0.7c0,5.3-0.1,10.6-0.1,15.9
			C56.7,315.5,56.5,315.8,56.4,316.1z"/>
		<path class="st82" d="M77.9,299.9c-0.2,0-0.4,0-0.6,0c-1.2,0.2-2.2-0.4-3.4-0.5c-3.1-0.2-6.2,0-9.2-0.1c-0.7,0-1.6,0.3-1.9-0.7
			c3.8,0,7.6-0.1,11.4,0C75.5,298.6,77,298.7,77.9,299.9z"/>
		<path class="st83" d="M13.9,322.3c3.8,0.2,3.8,0.2,3.8-3.6c0-2.2,0-4.4,0-6.6c0-0.1,0.1-0.2,0.4-0.3c0,3.5,0,7,0,10.5
			c-1.6,0.6-3.2,0.6-4.8,0c0.1,0,0.1,0,0.2-0.1C13.6,322.3,13.8,322.3,13.9,322.3z"/>
		<path class="st84" d="M62.8,298.6c0.5,0.5,1.2,0.3,1.8,0.3c2.7,0,5.4,0,8.1,0c0.6,0,1.2-0.2,1.6,0.3c-0.5,0.5-1.2,0.5-1.8,0.5
			c-2.3,0-4.7,0.1-7,0c-0.7,0-1.4,0-2.1,0c-0.5,0-1-0.1-1.4-0.4l0,0c-0.2-0.2-0.2-0.4,0-0.6C62.4,298.6,62.6,298.6,62.8,298.6z"/>
		<path class="st0" d="M26.2,306.7c0-1.6,0-3.1,0-4.7c0.1,0,0.2,0,0.3,0c0,1.6,0,3.1,0,4.7C26.4,306.7,26.3,306.7,26.2,306.7z"/>
		<path class="st85" d="M18.1,299.2c0,2.7,0,5.4,0,8.1c-0.1,0-0.3,0-0.4,0c0-2.7,0-5.4,0-8c-0.1-0.1-0.1-0.3,0-0.4
			C17.9,299,18,299.1,18.1,299.2z"/>
		<path class="st86" d="M41.2,321.8c0.3-0.3,0.6-0.5,0.8-0.8c0.2-0.3,0.2-0.7,0.6-0.4c0.3,0.2,0.5,0.4,0.6,0.7
			c0.2,0.5-0.3,0.4-0.6,0.5c-0.3,0.1-0.4,0.3-0.5,0.6C41.8,322.4,41.5,322.1,41.2,321.8z"/>
		<path class="st87" d="M45.4,319.8c0-0.2,0-0.4,0-0.7c1.1,0,2.2,0,3.2,0c0,0.2,0,0.4,0,0.7C47.6,320.4,46.5,320.3,45.4,319.8z"/>
		<path class="st88" d="M80.2,307c0-1.5,0-2.9,0-4.4C80.9,304.1,80.9,305.6,80.2,307z"/>
		<path class="st89" d="M17.7,298.9c0,0.1,0,0.3,0,0.4c-1.3-0.2-2.6,0.3-3.9-0.3c1-0.4,2.2,0.1,3.2-0.3
			C17.3,298.6,17.6,298.5,17.7,298.9z"/>
		<path class="st0" d="M60.5,323.2c0.8-0.1,1.3,0.3,1.5,0.8c0.2,0.4-0.5,0.4-1-0.2C60.9,323.6,60.7,323.5,60.5,323.2z"/>
		<path class="st0" d="M24.8,307.6c-1.2,0.2-2.4,0.1-3.6,0C22.4,307.1,23.6,307.1,24.8,307.6z"/>
		<path class="st90" d="M17.1,298.6c-1,0.6-2.2,0.1-3.2,0.3c-0.1,0-0.2,0-0.3,0C14.6,298.2,15.9,298.7,17.1,298.6z"/>
		<path class="st91" d="M45.4,323.1c1.1-0.5,2.2-0.5,3.3,0C47.6,323.3,46.5,323.3,45.4,323.1z"/>
		<path class="st92" d="M80.8,318.2c-0.2,0.1-0.5,0.4-0.7,0.2c-0.2-0.3-0.2-0.8,0.1-1.1c0.4,0,0.6,0.2,0.7,0.7
			C80.8,318,80.8,318.1,80.8,318.2z"/>
		<path class="st93" d="M53.8,321.2c-0.1-0.4,0.1-0.7,0.3-1l0,0c0.3-0.1,0.6-0.2,0.9-0.3C54.9,320.5,54.4,320.9,53.8,321.2z"/>
		<path class="st94" d="M37.9,317.4c0-0.3,0.1-0.7,0.1-1c0.1,0,0.2,0,0.3,0c0,0.7,0,1.5,0,2.2C38,318.2,37.9,317.8,37.9,317.4z"/>
		<path class="st95" d="M42.5,322.4c0.7,0,1.5,0,2.3,0c-0.4,0.5-0.9,0.2-1.3,0.3C43.1,322.8,42.8,322.7,42.5,322.4z"/>
		<path class="st0" d="M76.9,298.1c0.4-0.1,0.8-0.2,1.2,0.1c0,0.1,0,0.3-0.1,0.3C77.5,298.6,77.2,298.5,76.9,298.1z"/>
		<path class="st0" d="M57.1,315.5c0.5,0.5,0.7,0.9,0.5,1.5C57.2,316.6,57.1,316.2,57.1,315.5z"/>
		<path class="st96" d="M62.2,298.6c0,0.2,0,0.4,0,0.6c-0.2,0.2-0.3,0.4-0.5,0.5C61.7,299.3,61.2,298.7,62.2,298.6z"/>
		<path class="st97" d="M173.6,289.6c-0.6,0.9-1,1-1.2-0.2c-0.1-0.5-0.1-1.1-0.1-1.6c0-35.9,0-71.8,0-107.7c0-2.3,0.3-2.5,2.6-2.5
			c48.8,0,97.6,0,146.4,0c1.1,0,2.2,0.2,3.3,0c1.1-0.2,1.7,0.3,1.7,1.6c-0.1,3.8,0,7.6,0,11.4c0,31.3,0,62.6,0,93.9
			c0,0.9,0,1.8,0.1,2.7c0.1,0.6,0.2,1.6-0.8,1.8c-0.4,0.1-0.5,0.3-0.6,0.7c0,0.6,0.6,0.5,0.9,0.7c-0.8,0.8-1.7,0.7-2.7,0.6
			c-0.4-0.1-0.9,0-1.3,0c-48.7,0-97.5,0-146.2,0c-0.6,0-1.3,0.2-2.2-0.3c0.8-0.5,1.5-0.3,2.2-0.3c48.4,0,96.8,0,145.3,0
			c0.7,0,1.7,0.6,2.1-0.6c-0.7-0.5-1.6-0.3-2.3-0.3c-20.8,0-41.6,0-62.5,0c-0.8,0-1.6,0.1-2.4-0.1c-0.7-0.4-1.4-0.4-2.2-0.4
			c-7,0-14,0-21,0c-0.7,0-1.4,0-2,0.4c-1.9,0.1-3.9,0.2-5.8,0c-0.7-0.4-1.4-0.4-2.2-0.4c-6.9,0-13.9,0-20.8,0c-0.8,0-1.5,0-2.2,0.4
			c-8,0.2-16,0-24,0.1C174.9,289.3,174.2,289.1,173.6,289.6z"/>
		<path class="st98" d="M173.6,289.6c0.3-1.1,1.1-0.6,1.7-0.6c8.1,0,16.2,0,24.4,0c0.5-0.4,1.1-0.3,1.7-0.3c7.2,0,14.5,0,21.7,0
			c0.6,0,1.2-0.1,1.7,0.3c1.9,0,3.9,0,5.8,0c0.5-0.4,1.1-0.3,1.7-0.3c7.2,0,14.5,0,21.7,0c0.6,0,1.2-0.1,1.7,0.3
			c21.8,0,43.6,0,65.4,0c0.6,0,1.6-0.5,1.9,0.6C273.3,289.6,223.4,289.6,173.6,289.6z"/>
		<path class="st10" d="M144.6,303.3c0-1.4,1.5-1.7,1.9-2.8c4.2-3,8.7-3.3,13.4-1.4c1.7,0.7,3.2,1.9,4.1,3.6c0.2,0.3,0.3,0.7,0.6,1
			c2.1,5.1,1.9,10-0.9,14.7c-3.6,5.9-12.6,5.8-16.5,2.7c-0.2-0.4-0.7-0.4-0.9-0.7c-0.1-0.1-0.2-0.2-0.3-0.3
			c-0.3-0.3-0.3-0.7-0.7-0.9l0,0c0.3-1.1-1.1-1.4-1.1-2.4c0-0.6-0.8-1.2,0.2-1.7c0.5-0.3-0.2-0.9-0.1-1.4c0.1-0.4,0.1-0.9,0.6-1
			c0.3-0.1,0.6,0.1,0.6,0.6c0,0.1,0.2-0.3,0.4-0.2c0.1,0,0.3,0.1,0.3,0.3c0.3,0.6,0.2,1.2,0.2,1.9c0,0.7,0.3,1.1,0.9,1.3
			c1.3,1.2,2.4,2.6,4.2,3.2c4.6,1.6,8.8-0.5,10.2-5.2c0.2-0.8,0.3-1.6,0.8-2.3c0.1-0.1,0.2-0.2,0.3-0.4c0.5-1,0.3-2.1,0.1-3.1
			c0-0.1-0.1-0.1-0.1-0.2c-0.1-0.1-0.1-0.3-0.2-0.4c-0.1-1.2-0.2-2.3-1.2-3.1c-1.3-1.4-2.6-2.9-4.5-3.6c-1.5-0.6-3-0.6-4.4,0
			c-0.6,0.2-1.2,0.6-1.9,0.8c-0.4,0.1-0.8,0.2-1,0.7c-1.4,1.6-2.6,3.2-2.8,5.4c0,0.4-0.3,0.7-0.6,0.8c-0.8,0.1-0.7-0.6-0.9-1
			c-0.1,1,0.2,1.9,0.5,2.8c0.1,0.5,0.3,1.2-0.4,1.4c-0.6,0.2-1.2,0-1.5-0.8c-0.4-1.2-0.7-2.4-0.6-3.7c0-0.2,0.1-0.5,0.2-0.7
			c0.2-0.2,0.4-0.2,0.6-0.1c0.2,0.1,0.2,0.3,0.4,0.4c-0.1-0.2-0.3-0.3-0.4-0.5C143.8,305.5,144.4,304.5,144.6,303.3z"/>
		<path class="st14" d="M180.7,313c0.7-3.2,2-6.2,2.9-9.3c0.2-0.6,0.4-1.2,0.4-1.9c0.7-0.7,0.5-1.7,1-2.5c0.3-0.4,0.4-0.8,1-0.8
			c3.3,0,3-0.2,1.9,2.5c-0.3,0.7-0.5,1.4-0.8,2.1c-0.4,0.6-0.3,1.3-0.7,1.9c-1.2,3.5-2.4,7-3.8,10.3c-0.6,0.5-0.3,1.3-0.7,1.9l0,0
			c-0.6,0.5-0.3,1.3-0.7,1.9l0,0c0,0.3-0.4-0.4-0.4,0.1c0.1,0.5-0.1,1-0.2,1.5c-0.1,1-0.3,1.9-1.7,1.8c-1.3,0-2.5,0.2-2.9-1.6
			c-0.4-2-1.6-3.7-1.9-5.7c-0.3-0.5,0-0.9,0.2-1.3c0.3-1-0.4-0.6-0.8-0.6l0,0c-0.2-1.2-0.6-2.3-1.2-3.3c-0.9-1.8-1.6-3.7-2-5.7
			c-0.1-0.3-0.2-0.6-0.2-0.9c0-0.3,0.2-0.6,0.1-0.9c-0.2,0.1-0.1,0.6-0.5,0.4l0,0c-0.3-0.6-0.3-1.3-0.7-1.9l0,0
			c-0.1-0.6-0.1-1.2-0.6-1.6c-0.1-0.3-0.3-0.7,0-0.9c1-0.7,3.2,0.1,3.6,1.3c0.5,1.3,0.7,2.7,1.4,3.8c0.6,3.3,2,6.3,3,9.4
			c0.6,1.8,1,3.6,2,5.4c0.6-1.4,1.1-2.7,1.6-3.9C180.5,314.2,180.5,313.5,180.7,313z"/>
		<path class="st99" d="M173.6,313.5c0.5-0.1,0.2-1.1,0.9-0.7c0.5,0.3,0.5,0.8,0.4,1.2c-0.1,0.5-0.4,0.9-0.6,1.4
			C173.8,314.8,173.5,314.2,173.6,313.5z"/>
		<path class="st99" d="M172.3,310.2c1.3,0.8,1.4,2,1.2,3.3C172.9,312.5,172.6,311.3,172.3,310.2z"/>
		<path class="st100" d="M168.5,299.6c1,0.2,1.3,0.7,0.6,1.6C168.7,300.7,168.5,300.2,168.5,299.6z"/>
		<path class="st100" d="M169.7,303.1c0.1-0.2,0.3-0.4,0.6-0.8c0,0.9,0,1.5,0,2.2C169.9,304.2,169.7,303.7,169.7,303.1z"/>
		<path class="st101" d="M181.3,319.2c0.2-0.6-0.5-1.6,0.7-1.9C182,318,181.8,318.7,181.3,319.2z"/>
		<path class="st101" d="M180.7,320.9c0-0.6-0.1-1.2,0-1.7c0.2-0.7,0.4,0.1,0.6,0.1C181.4,319.8,181.2,320.4,180.7,320.9z"/>
		<path class="st101" d="M182,317.3c0.2-0.7-0.6-1.6,0.7-1.9C182.7,316.1,182.5,316.7,182,317.3z"/>
		<path class="st100" d="M169.1,301.2c0.7,0.5,0.7,1.2,0.7,1.9C169.3,302.6,169.1,301.9,169.1,301.2z"/>
		<path class="st102" d="M186.5,305c0-0.7,0-1.4,0.7-1.9C187.2,303.8,187,304.5,186.5,305z"/>
		<path class="st0" d="M150,324.3c0.2-0.3,0.5-0.5,0.8-0.4c0.2,0,0.2,0.2,0.1,0.3C150.7,324.4,150.4,324.4,150,324.3z"/>
		<path class="st0" d="M153.8,324.2c-0.5,0.3-0.9,0.2-1.3,0C152.9,323.8,153.3,324.1,153.8,324.2z"/>
		<path class="st103" d="M146.2,320.5c0.5,0,0.9,0.1,0.9,0.7c-0.2,0-0.4-0.1-0.6-0.1C146.5,320.9,146.4,320.7,146.2,320.5z"/>
		<path class="st104" d="M164.6,303.8c-0.6-0.1-0.6-0.5-0.6-1C164.3,303,164.6,303.3,164.6,303.8z"/>
		<path class="st0" d="M245.6,320.7c0.2,0.2,0.5,0.4,0.7,0.7c0.1,0.2-0.1,0.3-0.4,0.4c-0.4,0-0.7-0.2-0.7-0.6
			C245.2,320.9,245.2,320.7,245.6,320.7z"/>
		<path class="st105" d="M262.8,301.2c-0.9,0-1.3-0.6-1.6-1.3C262,300,262.5,300.6,262.8,301.2z"/>
		<path class="st106" d="M256.4,323c0.6-0.7,1.4-0.7,2.3-0.6C258,322.9,257.2,323.2,256.4,323z"/>
		<path class="st0" d="M249,322.4c-0.2,0.5,0.3,0.8,0.3,1.4C248.3,323.4,248,323,249,322.4C249,322.4,249,322.4,249,322.4z"/>
		<path class="st106" d="M258.7,322.4c0.3-0.6,0.8-0.7,1.4-0.6C259.7,322.3,259.2,322.5,258.7,322.4z"/>
		<path class="st107" d="M244.4,317.9c0.7,0,0.7,0.5,0.6,1C244.7,318.7,244.4,318.4,244.4,317.9z"/>
		<path class="st108" d="M247.3,321.2c0.5-0.1,1-0.1,1.1,0.6C247.8,321.8,247.5,321.6,247.3,321.2z"/>
		<path class="st109" d="M263.8,302.4c-0.6,0-0.7-0.5-0.7-0.9C263.5,301.7,263.8,302,263.8,302.4z"/>
		<path class="st0" d="M259.3,298.6c0.1-0.3,0.1-0.6,0.5-0.6c0.2,0,0.3,0,0.2,0.2C259.9,298.6,259.5,298.6,259.3,298.6
			C259.2,298.6,259.3,298.6,259.3,298.6z"/>
		<path class="st110" d="M277.3,310.2c0.6,0.1,0.7,0.5,0.6,1C277.6,311,277.3,310.7,277.3,310.2z"/>
		<path class="st111" d="M134.3,315.9c0.3,0.5,0.4,1.3,1.2,1.3c0.5-0.6,0.3-1.3,0.3-2c0-4.9,0-9.7,0-14.6c0-0.9,0-1.8,1.3-1.7
			c0.8,0,1.2,0.3,1.2,1.1c0,0.9,0,1.7,0,2.6c0,5.9,0,11.8,0,17.7c0,2.3,0,2.4-2.4,2.3c-0.4,0-0.8,0.1-1.1-0.2
			c-1.7-2.2-3.1-4.7-4.6-7.1c-0.3-0.4-0.2-1-0.7-1.3c-2.2-3.4-4.4-6.8-6.9-10.7c0,1.1-0.1,1.7-0.1,2.3c0,5.2,0,10.3,0,15.5
			c0,1.2-0.4,1.5-1.5,1.5c-1,0-1.7-0.1-1.7-1.5c0.1-7,0.1-14.1,0-21.1c0-1.3,0.5-1.7,1.7-1.6c1.2,0,2.5-0.1,3.1,1.3
			c1,1.6,1.9,3.2,2.9,4.8c0.2,0.3,0.3,0.7,0.6,1c1.9,3,3.8,6,5.7,9C134.1,315,134,315.6,134.3,315.9z"/>
		<path class="st0" d="M140.1,300.8c0.2,0.1,0.4,0.2,0.6,0.3c0.5,0.8,0.7,1.7,0.7,2.7c0,5.7,0,11.5,0,17.2c0,0.5,0.3,1.2-0.5,1.3
			c-0.4,0-1,0.2-1.3-0.2c-0.3-0.5,0.1-0.8,0.6-1c0.6-0.2,0.7-0.8,0.4-1.4c-2-3.7-0.9-7.6-1.2-11.5c-0.1-1.5,0.1-3.1-0.1-4.6
			C139.3,302.5,140.1,301.8,140.1,300.8z"/>
		<path class="st112" d="M135,322.4c3.2,0,3.2,0,3.2-3.2c0-6,0-12.1,0-18.1c0-0.7,0.5-1.7-0.9-1.8c-1.4,0-1,1-1,1.7
			c0,4.9,0,9.9,0,14.8c0,0.6,0.4,1.4-0.7,1.5c0-0.1,0-0.2,0-0.3c0.3-1.3,0.1-2.6,0.1-4c0-4.6,0.2-9.2-0.1-13.7
			c-0.1-0.9,0.6-0.6,1.1-0.7c0.7,0,1.4,0,2,0c0,7.6,0,15.2,0.1,22.8c0,1-0.3,1.4-1.3,1.3C136.7,322.6,135.8,323,135,322.4z"/>
		<path class="st113" d="M145.9,313c-0.4,0.4-0.8,1.7-0.8-0.4c-0.7,0.8-0.6,1.4-0.2,2c0.2,0.3,0.5,0.6,0.3,1
			c-0.3,0.6-0.7-0.4-1.1,0.1c0.6,0.5,0,1.9,1.5,2.1c0.4,0,0.3,1-0.3,1.4c-1.7-1.8-2.3-4-2.5-6.3c-0.2-1.5,0-3.1,0-4.6
			c0.2-0.2,0-0.8,0.6-0.7c-0.4,1.4,0.5,2.6,0.7,4c0,0.5,0.7,0.4,0.9,0.4c0.5,0,0.4-0.6,0.2-0.9c-0.7-1.2-0.8-2.5-0.1-3.8
			c0.6,0.4-0.1,1.4,0.9,1.6C146.6,310.3,146.6,311.7,145.9,313z"/>
		<path class="st0" d="M142.4,317.6c0.7,1.4,0.3,2.9,0.7,4.4c0.1,0.2-0.2,0.4-0.4,0.4c-0.4,0-0.6-0.2-0.6-0.5
			C142.1,320.4,141.9,319,142.4,317.6z"/>
		<path class="st113" d="M144,307c-0.2,0-0.4,0-0.6,0c-0.3-0.2-0.2-0.5-0.1-0.7c0.1-1.1,0.6-2.1,1.3-2.9
			C145,304.6,144,305.7,144,307L144,307z"/>
		<path class="st0" d="M140.1,324.1c-0.1,0.3,0.3,0.9-0.4,0.9c-0.2,0-0.9-0.1-0.5-0.4c0.4-0.5-0.3-1.4,0.6-1.4
			C140.3,323.2,140.1,323.8,140.1,324.1z"/>
		<path class="st0" d="M142.4,303.3c0.3,0,0.4,0.3,0.5,0.5c0.1,0.3-0.1,0.5-0.4,0.5c-0.3,0-0.4-0.3-0.4-0.6
			C142.1,303.5,142.1,303.3,142.4,303.3z"/>
		<path class="st0" d="M142.3,323.2c0.6,0.4,0.3,0.8,0.4,1.2c-0.1,0-0.2,0-0.3-0.1C141.9,324,142,323.6,142.3,323.2z"/>
		<path class="st114" d="M143.3,306.2c0,0.2,0.1,0.5,0.1,0.7c0,0.2,0,0.4,0,0.6c-0.2,0.2-0.4,0.4-0.6,0.7
			C142.7,307.5,142.8,306.8,143.3,306.2z"/>
		<path class="st115" d="M129.7,314.1c0.9,0,0.7,0.7,0.7,1.3C130.1,315,129.8,314.6,129.7,314.1z"/>
		<path class="st116" d="M145.2,319.2c0.7,0,0.7,0.4,0.7,0.9C145.5,320,145.2,319.7,145.2,319.2z"/>
		<path class="st117" d="M342.8,309.5c0-2.4,0-4.7-0.1-7.1c0-1,0.5-1,1.2-1c2.3,0,4.6,0,6.9,0c2.4,0,3.6,1,3.9,3.2
			c0.4,2.4-0.4,3.7-2.7,4.5c-0.2,0.1-0.4,0.2-0.6,0.3C348.5,309.9,345.6,309.8,342.8,309.5z"/>
		<path class="st118" d="M351.6,301.1c-2.9,0-5.8,0-8.7,0c0-0.1,0-0.1,0-0.2c2.9,0,5.8,0,8.7,0C351.7,300.9,351.7,301,351.6,301.1z"
			/>
		<path class="st119" d="M351.4,312c-2.8,0-5.5,0-8.3,0c0-0.1,0-0.1,0-0.2c2.8,0,5.5,0,8.3,0C351.3,311.9,351.3,312,351.4,312z"/>
		<path class="st120" d="M342.8,309.5c2.9,0,5.8,0,8.7,0c-0.2,0.4-0.6,0.4-1,0.4c-2.7-0.2-5.4,0.4-8-0.3l0,0
			C342.5,309.5,342.6,309.5,342.8,309.5z"/>
		<path class="st121" d="M342.4,309.5c-0.7-2.4-0.1-4.9,0-7.4C342.4,304.6,342.4,307.1,342.4,309.5
			C342.4,309.5,342.4,309.5,342.4,309.5z"/>
		<path class="st0" d="M481.8,312.1c-0.4,1.2-0.7,2.5-1.2,3.6c-1.4,3.4-3.9,4.9-7.6,4.7c-3.6-0.2-6.2-2.1-7.2-5.4
			c-1-2.9-0.9-5.9,0.1-8.8c1.1-3.2,4-5.3,7.5-5.3c3.7,0,6.5,1.8,7.7,5.2c0.3,0.7,0.5,1.5,0.7,2.3
			C482.2,309.6,482.1,310.8,481.8,312.1z"/>
		<path class="st122" d="M481.8,312.1c0-1.3,0-2.5,0-3.8c0.8,1.2,0.2,2.5,0.3,3.8c0,0-0.1,0.1-0.1,0
			C481.9,312.1,481.9,312.1,481.8,312.1z"/>
		<path class="st0" d="M249.6,319.2c-3.4-2.7-3.9-6.4-3.4-10.4c0.3-2.9,1.4-5.5,4.2-6.9c3.1-1.6,6.3-1.4,9.2,0.6
			c0.5,0.2,0.8,0.5,1,1c2.4,3.5,2.7,7.3,1.3,11.2c-0.4,0.4-0.4,0.9-0.6,1.3l0,0c-0.6,0.3-0.3,0.9-0.7,1.3l0,0
			c-0.6,0.7-1.3,1.3-2,1.9c-1.9,1.4-4,1.4-6.1,1c-0.6-0.1-1.3-0.3-1.9-0.4C250.3,319.7,249.9,319.5,249.6,319.2z"/>
		<path class="st123" d="M258.7,319.2c0.4-0.9,1-1.6,2-1.9C260.3,318.2,259.6,318.9,258.7,319.2z"/>
		<path class="st123" d="M260.6,317.3c0-0.5-0.3-1.3,0.7-1.3C261.2,316.5,261.3,317.1,260.6,317.3z"/>
		<path class="st123" d="M261.3,316c0-0.5-0.3-1.2,0.6-1.3C261.9,315.2,261.8,315.7,261.3,316z"/>
		<path class="st124" d="M260.6,303.5c-0.4-0.2-0.8-0.5-1-1C260.3,302.4,260.7,302.7,260.6,303.5z"/>
		<path class="st125" d="M249.6,319.2c0.5,0,0.8,0.3,1,0.6C250.2,319.9,249.7,319.9,249.6,319.2z"/>
		<ellipse class="st126" cx="373.5" cy="301" rx="9.3" ry="0.1"/>
		<ellipse class="st121" cx="366.1" cy="315.8" rx="0.1" ry="5.2"/>
		<ellipse class="st127" cx="366.1" cy="305.2" rx="0.1" ry="4.7"/>
		<path class="st36" d="M286.4,301.8c0-0.6,0-1.2,0-1.7c0-0.6,0.3-0.8,0.9-0.8c0.6,0,1.1,0.1,1,0.8c0,0.6,0,1.2,0,1.7
			C287.6,301.8,287,301.8,286.4,301.8z"/>
		<path class="st36" d="M285.1,319.8c0.1-0.2,0.1-0.5,0.3-0.5c1-0.2,0.9,0.9,1.4,1.3c0.4,0.4,0.3,1-0.4,1.1l0,0
			C285.6,321.3,285.4,320.5,285.1,319.8L285.1,319.8z"/>
		<path class="st36" d="M285.7,318.2c0.2-0.1,0.4-0.2,0.6-0.3c0.6,0.1,0.9,0.6,0.5,1C286.3,319.3,286.1,318.5,285.7,318.2z"/>
		<path class="st128" d="M200,303.1c0.9-0.3,1,0.5,1.3,1c0.5,2.3,1.5,4.5,2.3,6.8c0.4,1.1,0.3,1.6-1,1.5c-1.4-0.1-2.9,0-4.3,0
			c-1,0-1.6,0-1-1.3c0.6-1.4,1-2.9,1.5-4.4c0.2-0.5,0.1-1.2,0.6-1.7c0.1-0.1,0.1-0.2,0.1-0.2C199.6,304.2,199.7,303.6,200,303.1z"/>
		<path class="st129" d="M199.4,305c0,0.6-0.2,1.2-0.6,1.7c0-0.6,0-1.1,0-1.7C199,305,199.2,305,199.4,305z"/>
		<path class="st130" d="M110.5,322.4c-1.5-2.4-2.9-4.8-4.4-7.2c-0.3-0.5-0.8-1-0.9-1.7c0-0.7-0.5-1-0.9-1.4l0,0
			c0-0.5-0.1-1.1-0.2-1.6c0-0.1,0-0.3,0.1-0.4c0.2-0.3,0.3-0.6,0.8-0.7c0.3,0.1,0.7-0.1,1,0.1c1.5,2.4,3.1,4.7,4.6,7.1
			c1.2,0.3,0.7-0.6,0.7-1.1c0-3.8,0-7.7,0-11.5c0-1.8-0.3-3.6,0.2-5.4l0,0c0.7-0.4,1.4-0.2,2.1-0.2c0.5,0,1,0.2,1,0.9
			c-0.2,6.1,0,12.2-0.1,18.3c0,1.5,0.2,3.1-0.2,4.6C113.1,323.4,111.8,322.9,110.5,322.4z"/>
		<path class="st111" d="M106,309.5c-0.3,0-0.6,1.2-1,0c-0.8-0.4-0.6,0.3-0.6,0.6c0,0.1,0,0.2,0,0.3c-0.2,0.4-0.4,0.7-0.9,0.3
			c0-0.1-0.1-0.2-0.1-0.3c0-0.5-0.3-0.7-0.6-1c-1.2-1.6-2.3-3.3-3.2-5.1c-0.2-0.3-0.4-0.8-0.8-0.7c-0.6,0.1-0.3,0.7-0.3,1.1
			c0,5.3,0,10.6,0,15.9c0,0.6,0.1,1.2-0.1,1.7l0,0c-0.8,0.2-1.6,0.3-2.4-0.1c-0.1-7.1,0-14.2,0-21.4c0-0.6,0.1-1.2-0.1-1.7
			c-0.1-0.5,0.2-0.6,0.6-0.7c1.9-0.3,3.5,0.1,4.5,2c1.2,2.6,2.9,4.9,4.3,7.3C105.4,308.4,106,308.8,106,309.5z"/>
		<path class="st131" d="M110.5,322.4c1.2,0.2,2.3,0.5,3.5,0.1c0.3-0.5,0.2-1.1,0.2-1.7c0-6.6,0-13.2,0-19.7c0-0.6-0.1-1.2,0.1-1.7
			c0-1-0.7-0.6-1.1-0.6c-0.6-0.1-1.2,0-1.7,0c0.6-0.6,1.4-0.5,2.1-0.5c1.2,0,1.5,0.8,1.5,2c0,7.4,0,14.9,0,22.3
			c-0.6,1.4-1.7,0.4-2.6,0.7c-0.2,0-0.4,0-0.6,0C111.2,323.1,110.7,323.1,110.5,322.4z"/>
		<path class="st132" d="M111.5,298.6c0,5.9,0,11.9-0.1,17.8c0,0.3,0.3,0.8-0.3,0.9c-0.3,0-0.5-0.3-0.5-0.7c0.9-0.2,0.5-1,0.5-1.5
			c0-5,0-9.9,0-14.9C111.1,299.7,110.9,299,111.5,298.6z"/>
		<path class="st0" d="M110.3,308.1c0.2,1.5,0.3,3,0.1,4.4c-0.1,0-0.3,0-0.4,0c-0.1-0.5-0.2-1-0.2-1.5c-0.7-0.1-0.3,0.8-0.9,0.9
			c-0.5-0.1-0.3-0.8-0.6-1.1c-0.4-0.5-0.8-1.2,0.5-0.9C110,310,109.6,308.7,110.3,308.1z"/>
		<path class="st0" d="M110.2,301c0.1,0.1,0.2,0.2,0.3,0.3c0.1,0.2,0,0.4-0.3,0.5c-0.1,0-0.3,0.3-0.3-0.1
			C109.8,301.4,109.8,301.1,110.2,301z"/>
		<path class="st0" d="M100.5,298.9c-0.1-0.3-0.2-0.6-0.3-1C100.9,298.1,101,298.4,100.5,298.9z"/>
		<path class="st28" d="M415.5,322.5c0-6.9,0-13.7,0-20.6c0.5,0.3,0.3,0.7,0.3,1c0,6.1,0,12.1,0,18.2
			C415.8,321.5,416,322,415.5,322.5C415.5,322.5,415.5,322.5,415.5,322.5z"/>
		<path class="st133" d="M135.6,299.2c0.4,0.3,0.3,0.8,0.3,1.2c0,5.1,0,10.2,0,15.3c0,0.4,0.1,0.9-0.3,1.2
			C135.6,311,135.6,305.1,135.6,299.2z"/>
		<path class="st0" d="M134.9,302c0,1.7,0,3.5,0,5.2C134.2,306.5,134.1,303.7,134.9,302z"/>
		<path class="st0" d="M128.6,303.9c0.2-0.6,0.4-1,1-1c0.1,0,0.2,0.2,0.2,0.3C129.6,303.8,129.2,304,128.6,303.9z"/>
		<path class="st0" d="M133,310c-0.1,0.2-0.2,0.4-0.2,0.4c-0.3,0.1-0.4-0.1-0.3-0.3c0-0.1,0.2-0.3,0.3-0.3
			C132.8,309.7,132.9,309.9,133,310z"/>
		<path class="st134" d="M134.3,315.9c-0.4-0.3-0.7-0.7-0.7-1.2C134.5,314.8,134.3,315.4,134.3,315.9z"/>
		<path class="st135" d="M127.9,305.7c-0.6-0.1-0.7-0.5-0.6-1C127.6,304.9,127.9,305.2,127.9,305.7z"/>
		<path class="st0" d="M126.9,298.3c-0.2,0.1-0.3,0.2-0.5,0.2c-0.1,0-0.2-0.1-0.2-0.2c-0.1-0.2,0.1-0.3,0.2-0.3
			C126.6,298,126.7,298.1,126.9,298.3z"/>
		<path class="st136" d="M180.7,313c-0.1,0.6,0.5,1.5-0.6,1.7C180,314,180.2,313.5,180.7,313z"/>
		<path class="st137" d="M95.7,299.2c0.5,0.4,0.3,1,0.3,1.5c0,7.2,0,14.4,0,21.6c0,0.2-0.1,0.2-0.2,0.1c-0.3-1.3-0.1-2.5-0.1-3.8
			C95.6,312.1,95.7,305.7,95.7,299.2z"/>
		<path class="st138" d="M98.3,322.4c0-6,0-12,0-18c0-0.5-0.2-1.2,0.5-1.3c0.9-0.1,0.6,0.8,0.7,1.3c-0.7-0.7-0.9-0.4-0.9,0.5
			c0,2.4,0,4.8,0,7.2c0,2.9,0,5.9,0,8.8C98.6,321.4,98.9,322,98.3,322.4z"/>
		<path class="st139" d="M103.5,310.8c0.3-0.1,0.6-0.2,0.9-0.3c0.4,0.6,0.4,1.1,0,1.6c0,0-0.1,0-0.1,0s-0.1,0-0.1,0
			C103.8,311.7,103.7,311.3,103.5,310.8z"/>
		<path class="st138" d="M95.7,322.4c0.1,0,0.2,0,0.2-0.1c0.7,0,1.5,0.1,2.2,0.1C97.4,322.8,96.6,322.9,95.7,322.4z"/>
		<path class="st139" d="M102.7,309.6c0.5,0.1,1.3,0.1,0.6,1C103,310.3,102.7,310,102.7,309.6z"/>
		<path class="st11" d="M238.4,301.2c0,0.2,0,0.4,0,0.6c-0.5,0.5-0.3,1.1-0.3,1.7c0,5.8,0,11.6,0,17.4c0,0.7,0.3,1.6-1,1.6
			c-1.2,0-0.9-0.9-0.9-1.5c0-6.4,0-12.9-0.1-19.3c0-0.7,0.8-1.2,0.3-2.1c-0.1-0.2,0.5-0.3,0.8-0.3c0.4,0,0.7,0.1,0.8,0.6
			C238.1,300.3,237.9,300.8,238.4,301.2z"/>
		<path class="st140" d="M87.3,322.4c0-7.2,0-14.5,0-21.7c0-1.1,0.3-1.5,1.5-1.5c1.2,0,1.1,0.7,1.1,1.5c0,4.5,0,8.9,0,13.4
			c0,2.2-0.1,4.4,0,6.6c0.1,1.4-0.3,2-1.8,1.8C87.9,322.4,87.6,322.4,87.3,322.4C87.3,322.4,87.3,322.4,87.3,322.4z"/>
		<path class="st129" d="M200,303.1c0,0.6-0.2,1.2-0.6,1.7C199.4,304.1,199.2,303.4,200,303.1z"/>
		<path class="st3" d="M324.7,300.8c-0.1,0-0.2,0-0.3,0c-2.1,0-4.3,0-6.4,0c-0.4-0.5-0.5-1.1,0-1.6c2.5,0,5,0,7.6,0
			C325.2,299.9,324.9,300.4,324.7,300.8z"/>
		<path class="st24" d="M317.9,299.2c0,0.5,0,1.1,0,1.6c-0.8,0.1-1-0.3-1-1.1C317,299.2,317.3,298.9,317.9,299.2z"/>
		<path class="st139" d="M104.3,312.1c0.5,0,1,0.1,1.5,0.1c-0.2,0.5-0.4,0.9-0.6,1.3c-0.2-0.1-0.3-0.1-0.5-0.2
			C104.6,312.9,104.5,312.5,104.3,312.1z"/>
		<path class="st10" d="M285.1,319.9c0.9,0.3,0.8,1.3,1.3,1.9C284.8,321.9,285.1,320.8,285.1,319.9z"/>
		<path class="st70" d="M166.5,178.1c0,0.5,0.1,1,0.1,1.4c0,35.4,0,70.8,0,106.1c0,0.4,0,0.9,0,1.3c-0.7,0.6-1.6,0.6-2.3,0.3
			c-1-0.5-2.1-0.4-3.1-0.4c-15.5,0-30.9,0-46.4,0c-0.9,0-1.8-0.1-2.6,0.5c-0.8,0.2-1.6,0.2-2.4,0.2c-20.7,0-41.5,0-62.2,0
			c-0.8,0-1.6,0.1-2.4-0.2c-0.8-0.5-1.6-0.5-2.5-0.5c-7.5,0-15,0-22.5,0c-2.6,0-2.9-0.2-2.9-2.9c0-34.5,0-69,0-103.5
			c0-0.8-0.1-1.6,0.4-2.3c0.6-0.4,1.2-0.3,1.9-0.3c48.4,0,96.7,0,145.1,0C165.2,177.8,165.9,177.7,166.5,178.1z"/>
		<path class="st141" d="M112.1,287c0.1-0.8,0.7-0.6,1.2-0.6c16.4,0,32.9,0,49.3,0c1.3,0,2.5,1,3.8,0.6c0,0.6,0,1.3,0,1.9
			c-0.5,1.2-1.6,1.1-2.6,1.1c-7.6,0-15.2,0-22.8,0c-2.9,0-5.8,0-8.7,0c-6.9,0-13.7,0-20.6,0c-5.1,0-10.3,0-15.4,0
			c-25,0-50.1,0-75.1,0c-1.2,0-2.5,0.1-3.7-0.4c-0.8-0.3-1.4,0.2-2,0.7c-0.5,0.2-1,0.3-1.4-0.1c-0.2-0.9-0.2-1.8,0-2.7
			c0.2-0.2,0.5-0.3,0.9-0.3c10.2,0,20.4-0.2,30.6,0.1c0.5,0,1.1,0,1.6,0c37.7,0,75.4,0,113.1,0c0.8,0,1.6,0,2.4,0
			c0.7,0.1,0.9,1,1.7,1.1c0.1,0,0.2,0,0.2-0.1c0-0.3-0.3-0.2-0.4-0.3c-0.5,0-0.8-0.4-1.1-0.6c-0.7-0.2-1.4-0.1-2.1-0.1
			c-15.6,0-31.1,0-46.7,0C113.5,287.3,112.8,287.5,112.1,287z"/>
		<path class="st142" d="M14.2,290.2c0.4,0,0.9,0,1.3,0c0.6-0.4,1.3-0.6,2-0.5c1.7,0.3,3.4,0.1,5.1,0.1c24.6,0,49.1,0,73.7,0
			c5.2,0,10.3,0,15.5,0c6.9,0,13.7,0,20.6,0c11.1,0,22.1,0,33.2,0c0.4,0,0.8-0.1,1,0.3c0,0.3,0,0.5-0.3,0.6
			c-0.6-0.2-1.3-0.1-1.9-0.1c-49.3,0-98.6,0-147.9,0c-0.6,0-1.3,0-1.9,0C14.2,290.6,14.1,290.5,14.2,290.2z"/>
		<path class="st63" d="M166.5,178.1c-49.6,0-99.2,0-148.8,0c-0.5,0.4-1.1,0.5-1.7,0.4c-0.7,0-1.4,0.1-2-0.5c0-0.2,0.1-0.4,0.3-0.4
			c49.8,0,99.6,0,149.4,0c0.6,0,1.3,0.1,1.9-0.1C166.2,177.5,166.5,177.6,166.5,178.1z"/>
		<path class="st143" d="M14.2,290.5c49.8,0,99.6,0,149.4,0c0.8,0,1.7-0.2,2.5,0.2c-1.4,0-2.8,0.1-4.2,0.1c-48.7,0-97.3,0-146,0
			c-0.7,0-1.4,0.2-2.1-0.2c0,0,0-0.1,0-0.1C14,290.4,14.1,290.4,14.2,290.5z"/>
		<path class="st144" d="M165.8,177.6c-0.7,0.5-1.5,0.2-2.2,0.2c-49.4,0-98.9,0-148.3,0c-0.4,0-0.8,0-1.1,0c-0.1,0.1-0.2,0.1-0.2,0
			c0,0,0-0.1,0-0.1c0.4-0.3,0.9-0.2,1.4-0.2c49.9,0,99.9,0,149.8,0C165.4,177.5,165.6,177.5,165.8,177.6z"/>
		<path class="st145" d="M166.5,290.2c-11.4,0-22.7,0-34.1,0c-0.2-0.2-0.2-0.4,0-0.6c10.5,0,21,0,31.6,0c0.9,0,1.8-0.1,2.5-0.7
			C166.5,289.4,166.5,289.8,166.5,290.2z"/>
		<path class="st146" d="M13.9,177.8c0.1,0,0.2,0,0.2,0c0,0.1,0,0.2,0,0.3c0.7,0.8,0.5,1.8,0.5,2.8c0,14.5,0,29.1,0,43.6
			c0,20.1,0,40.1,0,60.2c0,1,0.2,2.1-0.5,2.9c0,0.9,0,1.7,0,2.6c0,0.1,0,0.2,0,0.3c0,0-0.1,0-0.1,0s-0.1,0-0.1,0
			c0-1.1-0.1-2.1-0.1-3.2c0-35.9,0-71.8,0-107.7C13.9,179,13.9,178.4,13.9,177.8z"/>
		<path class="st147" d="M13.9,322.3c-0.1,0-0.2,0-0.3,0c0-7.4,0-14.7,0-22.1c0.1,0,0.2,0,0.3,0C13.9,307.6,13.9,315,13.9,322.3z"/>
		<path class="st148" d="M27.4,308.3c0,0.4-0.2,0.6-0.6,0.6c-2.4,0-4.8,0-7.2,0c-0.4,0-0.6-0.3-0.6-0.6
			C21.8,308,24.6,308,27.4,308.3z"/>
		<path class="st149" d="M28,306c0-1.9,0-3.7,0-5.6c0-0.5-0.2-1.1,0.6-1.2c0,2.4,0,4.9,0,7.4C28.2,306.6,28.4,306.1,28,306z"/>
		<path class="st150" d="M27.4,308.3c-2.8,0-5.6,0-8.4,0c-0.1,0-0.1,0-0.2,0c-0.1-0.1-0.1-0.1-0.2-0.2c0.4,0,0.8-0.1,1.2-0.1
			c2.5,0,5,0,7.5,0c0.1,0.1,0.1,0.1,0.1,0.2C27.5,308.2,27.4,308.3,27.4,308.3L27.4,308.3z"/>
		<path class="st149" d="M29.3,299.2c0.2,0,0.4,0,0.6,0c0,0.8,0,1.6,0,2.4c-0.2,0-0.3,0-0.5,0C29.1,300.9,29.4,300,29.3,299.2z"/>
		<path class="st151" d="M17.7,310.2c-0.4,0-0.6-0.2-0.6-0.6c0-0.5,0.3-0.7,0.7-0.6c0.4,0,0.5,0.3,0.5,0.7
			C18.3,310,18.1,310.2,17.7,310.2z"/>
		<path class="st149" d="M27.4,308.3c0-0.1,0-0.2,0-0.3c0.1-0.1,0.2-0.2,0.3-0.3c0.1,0,0.2,0,0.3,0c0.4,0,0.8-0.1,1.2,0.3
			C28.6,308.4,27.9,307.9,27.4,308.3z"/>
		<path class="st152" d="M37.6,315.4c0-4.6,0-9.2,0-13.8c0.1,0,0.2,0,0.4,0c0,1.8,0,3.5,0,5.3c0,2.3,0,4.6,0,6.9
			C38,314.3,38.2,315,37.6,315.4C37.7,315.4,37.6,315.4,37.6,315.4z"/>
		<path class="st153" d="M45.4,319.8c1.1,0,2.1,0,3.2,0c0.2,0.1,0.7,0.1,0.4,0.4C48.6,320.8,46,320.5,45.4,319.8z"/>
		<path class="st70" d="M65.4,299.2c3,0,6,0,9,0c1.1-0.2,2,0.3,2.9,0.7c0.1,0.2-0.9,0.5,0,0.7c0.7,0.1,1.4,0.3,1.2,1.3
			c-0.9,0.3-1.4-0.5-2.2-0.7c-0.3-0.1-0.6-0.2-0.8,0.2c-0.2,0.4,0.2,0.8,0.4,0.7c1-0.2,0.8,1.5,1.9,1.1c-0.3,1,0.1,2.1-0.4,3.1
			c-0.3,0.7-0.3,0.8,0.8,0.8c0.2-0.2,0.4-0.2,0.6,0c0.5,0.9,0,1.6-0.8,1.2c-1.1-0.6-1,0.2-1.4,1.1c-0.2-0.9-0.5-1.4-1-1.6
			c-0.2-0.2-0.2-0.4-0.2-0.6c0-0.1,0.1-0.3,0.2-0.4c0.4-1,0.1-2,0.2-3c-0.3-0.2,0.7-0.7-0.3-0.7c-0.9,0-1.7-0.7-2.6-0.6
			c-2,0-3.9,0-5.9,0c-0.1,0.1-0.2,0.1-0.3,0.2c-0.1,0.2-0.2,0.3-0.4,0.4c-0.2,0-0.3,0-0.5,0.1c-0.3,0.9-0.2,1.7,0.3,2.4
			c0.2,0.9,0.2,1.7,0,2.6c0,0.7,0.5,0.3,0.8,0.3c0.7,0,1.5-0.2,2.1,0.4c1,0.7,0.5,2.1,1.3,2.9c-1.3,0.4-2.6-0.1-3.9,0.3
			c-0.3,0-0.5,0.1-0.6,0.3c0,0.1,0,0.2,0,0.2c0,2,0.4,4-0.8,5.9c-0.4,0.7-0.2,1.8,0,2.6c0,0.1,0,0.2,0,0.2c-0.1,0.3-0.2,0.6-0.3,1
			c-0.4,0.2-0.7,0.2-1.1,0c-1.4-1-1.5-2.4-1.5-3.9c0.1-4.9,0-9.8,0-14.7c0-0.7-0.1-1.5,0.5-2.1C63.6,300.4,64.2,299.5,65.4,299.2z"
			/>
		<path class="st154" d="M66.4,312.2c2.4-0.3,4.8-0.2,7.2-0.1c2.4,0.2,3.2,2,2.4,4.8c0,1-0.9,1.3-1.6,1.6l0,0
			c-2.7,0.7-5.3,0.8-8,0.1C65.8,316.5,65.8,314.4,66.4,312.2z"/>
		<path class="st92" d="M80.2,317.3c-0.4,0-0.9,0-1.3,0c-0.4,0-0.9-0.2-0.8-0.7c0.1-0.5,0.4-0.5,0.9-0.2c0.6,0.4,0.6-0.2,0.6-0.5
			c0-0.9,0-1.8,0-2.7h0c1.4,0.5,1.8,2,1,3.5C80.4,316.8,80.3,317,80.2,317.3z"/>
		<path class="st155" d="M75.6,306.9c0,0.2,0.1,0.5,0.1,0.7c-0.4,0-0.6,0.2-0.6,0.6l0,0c-0.7,0-1.3,0-2,0.1c-2.1,0.2-4.2,0.1-6.3,0
			c-0.3-0.9,0.5-0.8,1-0.8c0.8-0.2,1.6-0.1,2.4-0.1C72,307.6,73.8,307.3,75.6,306.9z"/>
		<path class="st156" d="M66.6,308.2c2.1,0,4.3,0.1,6.4,0.1c-1.2,0.6-2.5,0.1-3.8,0.3c-1,0-2-0.1-3,0.3c-0.3,0.1-0.7,0.1-0.7-0.3
			c0-0.1,0.3-0.2,0.5-0.3c0.1-0.1,0.1-0.2,0.2-0.2C66.5,308.1,66.5,308.1,66.6,308.2z"/>
		<path class="st157" d="M72.5,311.5c0.1-0.7,0.6-1,1.1-0.8c1.1,0.4,2.1,0.1,3.2-0.5c-0.8,1.4-1.9,1.4-3,1.3
			C73.3,311.7,72.9,311.7,72.5,311.5z"/>
		<path class="st92" d="M79.6,313.1c-0.8,0.1-0.5,0.8-0.7,1.2c-0.2,0.5-0.8,0.7-1.2,0.5c-0.5-0.3-0.1-0.8,0.1-1.1
			C78.5,312.6,78.9,312.5,79.6,313.1L79.6,313.1z"/>
		<path class="st158" d="M72.5,311.5c0.4,0,0.9,0,1.3,0c-1.6,0.7-3.3,0.2-5,0.3c-0.7,0.1-1.4,0-2.1,0c1.2-0.7,2.6-0.1,3.9-0.3
			C71.2,311.5,71.8,311.5,72.5,311.5z"/>
		<path class="st159" d="M66.4,312.2c0,2.1,0,4.1,0,6.2c-0.1,0.1-0.1,0.1-0.2,0.2c-0.2-0.1-0.3-0.2-0.4-0.4c0.3-2-0.1-4.1,0.3-6.1
			c0,0,0,0,0,0C66.2,312.2,66.3,312.2,66.4,312.2z"/>
		<path class="st160" d="M78.9,307c-0.2,0-0.4,0-0.6,0c0-0.5,0-1.1,0-1.6C79.5,306.4,79.5,306.4,78.9,307z"/>
		<path class="st161" d="M75.1,308.3c0.6,0.1,0.8,0.5,0.5,0.9c-0.4,0.8-1,0.3-1.7,0C74.3,308.8,75.1,309,75.1,308.3
			C75.1,308.3,75.1,308.3,75.1,308.3z"/>
		<path class="st162" d="M74.4,318.5c0.6-0.5,1.3-0.8,1.6-1.6c0.2,0.3,0.4,0.6,0.6,1C75.8,317.9,75.3,319,74.4,318.5z"/>
		<path class="st93" d="M54.1,320.2c-0.2,0-0.3,0-0.5,0.1c-0.5,0.2-0.8,0.2-1-0.3c-0.1-0.3-0.1-0.5,0.2-0.7c0.5-0.2,0.8,0,1,0.5
			C54,319.9,54,320,54.1,320.2C54.1,320.2,54.1,320.2,54.1,320.2z"/>
		<path class="st163" d="M63.5,301.2c-0.7,0.8-0.7,1.8-0.7,2.8c0,5.1,0,10.2,0,15.4c0,0.6-0.3,1.4,0.9,1.4c0.7,0,0.2,0.9,0.4,1.3
			c-0.4,0.3-0.9,0-1.2,0.3c-1.1-0.1-0.7-0.9-0.7-1.5c0-7.2,0-14.4,0-21.6c0.4,0,0.9,0,1.3,0C63.9,299.9,63.9,300.5,63.5,301.2z"/>
		<path class="st164" d="M62.9,322.4c0.3-0.4,0.8-0.2,1.2-0.3c0.3,0,0.6,0,1,0c2.6,0,5.2,0,7.7,0c0.4,0,0.9-0.1,1.2,0.2
			C70.3,322.4,66.6,322.4,62.9,322.4z"/>
		<path class="st162" d="M66.4,318.4c2.7,0.4,5.3,0.2,8,0.1c0,0.2,0,0.4,0,0.7c-0.6,0-1.3,0-1.9,0c-0.6,0.5-1.5,0.5-1.9,1.3l0,0
			c-1,0.5-1-1-1.8-0.8c-0.5,0-0.7,0.2-0.7,0.7c-0.5,0.7-1.3,0.2-1.9,0.3c-0.2-0.1-0.3-0.3-0.3-0.5c0.2-0.5,0.3-1,0.5-1.5
			C66.4,318.5,66.4,318.5,66.4,318.4z"/>
		<path class="st78" d="M68.6,319.2c1.3-0.5,1.1,1.1,1.9,1.3c-0.5,0.7-1.3,0.7-2,0.6c-1.1-0.2-2.1,0-3.1,0l0,0
			c-0.3-0.7,0-0.9,0.6-0.6c0.6-0.2,1.6,0.5,1.9-0.6C68.1,319.6,68.4,319.4,68.6,319.2z"/>
		<path class="st78" d="M70.5,320.5c-0.2-1.7,1-1.2,1.9-1.3c0.3,0.4,0.8,0.6,0.6,1.2c-0.3,0.6-0.7,0.1-1.1,0.1
			C71.5,320.5,71,320.5,70.5,320.5z"/>
		<path class="st165" d="M76.3,319.8c0-0.5,0.3-0.6,0.7-0.6c0.4,0,0.5,0.3,0.6,0.6C77.2,319.9,76.8,319.8,76.3,319.8z"/>
		<path class="st166" d="M63.5,301.2c0-0.6,0-1.3,0-1.9c0.6,0,1.3,0,1.9,0C64.7,299.9,64.1,300.5,63.5,301.2z"/>
		<path class="st0" d="M254.7,190.5c0,5.4,0,10.8,0,16.2c0,24.2,0,48.3,0,72.5c0,1.6-0.3,2.2-2,2.1c-3.5-0.2-7.1-0.1-10.6-0.1
			c-0.3-0.6-0.2-1.2-0.2-1.7c0-29,0-58.1,0-87.1c0-2.3,0.1-2.3,2.4-2.4c2.9,0,5.8,0,8.7,0C253.7,190.1,254.3,189.9,254.7,190.5z"/>
		<path class="st167" d="M173.8,286.9c49.9,0,99.7,0,149.9,0c0.1,0.1,0,0.6-0.1,0.8c-50,0-99.9,0-149.8,0
			C173.8,287.5,173.8,287.2,173.8,286.9z"/>
		<path class="st168" d="M254.7,190.5c-3.8,0-7.5,0-11.3-0.1c-1,0-1.4,0.4-1.3,1.3c0,0.6,0,1.2,0,1.8c0,28.6,0,57.3,0,85.9
			c0,0.6,0,1.2,0,1.8c0.5,0.5,1.1,0.3,1.7,0.3c3.5,0,7,0,10.5,0.3c-1.2,0-2.4,0-3.6,0c-2.6,0-5.3,0-7.9,0c-0.6,0-1,0.1-1-0.9
			c0-29.7,0-59.4,0.1-89c0-0.6-0.5-1.6,0.6-1.9c4.1-0.2,8.2-0.3,12.2,0C254.8,190.2,254.8,190.3,254.7,190.5z"/>
		<path class="st167" d="M255.8,288.9c-8.4,0-16.7,0-25.1,0c0.1-0.8,0.7-0.6,1.2-0.6c7.5,0,15.1,0,22.6,0
			C255,288.3,255.6,288.1,255.8,288.9z"/>
		<path class="st167" d="M224.8,288.9c-8.4,0-16.7,0-25.1,0c0.1-0.8,0.7-0.6,1.2-0.6c7.5,0,15.1,0,22.6,0
			C224.1,288.3,224.7,288.1,224.8,288.9z"/>
		<path class="st169" d="M254.8,190c-4.1,0-8.2,0-12.2,0c0.4-0.5,1-0.3,1.5-0.3c2.7,0,5.4,0,8.2,0c0.7,0,1.3,0.1,2-0.3
			C254.9,189,254.7,189.7,254.8,190z"/>
		<path class="st0" d="M162.6,312.1c-0.5,1.2-0.7,2.5-1.1,3.7c-2.2,6.2-11.3,5.8-13.9,1.3c-0.1-0.2-0.3-0.3-0.4-0.5
			c-0.9-0.6-1-1.6-0.9-2.6c0-2.4-0.3-4.9,0.6-7.3c0.1-0.2,0.1-0.7,0.2-0.7c1.8-0.4,1.6-2.6,3.3-3.6c1.8-1,3.5-1.2,5.3-1.6
			c0.4,0,0.9,0.1,1.3,0.3c2,0.6,3.3,1.9,4.5,3.6c0.8,1,1.1,2.3,1.3,3.6l0,0C163.2,309.6,163.2,310.8,162.6,312.1z"/>
		<path class="st170" d="M155.6,301.1c-1.4,0-2.6,0.8-4,0.8c-0.9,0-0.3,1.1-0.7,1.6c-1.1-0.8-1.9-0.9-1.6,0.9c0,0.3,0.1,1-0.4,1.1
			c-2.6,0.3-1.7,2.6-2.1,4c-0.4,1.4-0.1,3.1-0.2,4.6c-0.7-0.1-0.2-0.8-0.6-1.1c0,0,0,0,0,0c0-1.4,0-2.8,0-4.2
			c0.5-2.4,1.3-4.7,3.3-6.4c0.2-0.4,0.7-0.5,1-0.7c0.6-0.2,1.3-0.5,1.9-0.7C153.2,300.7,154.4,300.2,155.6,301.1z"/>
		<path class="st113" d="M145.9,313.1c0.2,0.4,0.4,0.7,0.6,1.1c-0.2,0.9,0.5,1.6,0.7,2.5c-0.9,0.1-1.4-0.2-1.3-1.2
			C146,314.6,145.9,313.9,145.9,313.1z"/>
		<path class="st171" d="M155.6,301.1c-1.2-0.5-2.4,0-3.6,0c1.2-0.9,3.7-0.9,4.8,0C156.5,301.1,156,301.1,155.6,301.1z"/>
		<path class="st172" d="M162.6,308.3c-0.4-1.2-0.8-2.4-1.3-3.6C162.8,305.6,162.8,306.9,162.6,308.3z"/>
		<path class="st173" d="M162.6,312.1c0-1.3,0-2.6,0-3.9c0.1,0,0.2,0,0.4,0c0.2,1.3,0.3,2.6,0,3.9
			C162.9,312.1,162.8,312.1,162.6,312.1z"/>
		<path class="st174" d="M163,312.1c0-1.3,0-2.6,0-3.9C163.5,309.5,163.5,310.8,163,312.1z"/>
		<path class="st113" d="M144,307c1,0.2,0.4,0.6,0.1,1.5C144,307.6,144,307.3,144,307L144,307z"/>
		<path class="st175" d="M150.1,301.8c-0.2,0.3-0.5,0.7-1,0.7C149.2,301.8,149.6,301.8,150.1,301.8z"/>
		<path class="st176" d="M114.3,299.2c0,7.5,0.1,15,0.1,22.5c0,0.3,0,0.7-0.4,0.7c0-7.1,0-14.2,0-21.4
			C114,300.5,113.8,299.8,114.3,299.2z"/>
		<path class="st177" d="M104.4,310.2c-0.4-0.5-0.5-1,0.1-1.2c0.3-0.1,1-0.2,0.5,0.6C104.8,309.8,104.6,310,104.4,310.2z"/>
		<path class="st178" d="M96.5,299.5c0.1-0.2,0.3-0.3,0.5-0.2c0.2,0,0.5,0,0.4,0.3c-0.1,0.2-0.3,0.3-0.5,0.2
			C96.7,299.8,96.5,299.8,96.5,299.5z"/>
		<path class="st0" d="M66.2,280.5c-0.2,0-0.3,0-0.5,0c-0.2,0.1-0.3,0.2-0.5,0.3c-3.3,0.1-6.7,0-10,0c-0.5,0-1,0-1.5-0.3
			c-0.4-1.5-0.3-3.1-0.4-4.6c0-27.4,0-54.9,0-82.3c0-0.9,0-1.8,0-2.7c0-0.3,0.1-0.6,0.4-0.9c0-0.1,0.1-0.2,0-0.3
			c0.6-0.5,1.4-0.4,2.1-0.5c2.9-0.1,5.8,0,8.8,0c0.6,0,1.1,0.2,1.7,0.4c0.6,0.7,0.4,1.6,0.4,2.5c0,10.8,0,21.5,0,32.3
			c0,0.7-0.2,1.5,0.3,2.2c0.4,0.4,1,0.3,1.5,0.3c14.2,0,28.3,0,42.5,0c1.1,0,1.8-0.3,1.6-1.5c0-11.5,0-23,0-34.5
			c0-0.4,0-0.8,0.4-1.2c3.9,0,7.7,0,11.6-0.1c0.9,0,1.1,0.4,1.1,1.1c0,1.3,0,2.7,0,4c0,27.9,0,55.7,0,83.6c0,0.8,0.6,2.1-1.1,2.2
			c-2.7,0.3-5.3,0.5-8,0.2c-1.2-0.1-2.5,0.5-3.6-0.2c-0.5-0.6-0.3-1.2-0.3-1.8c0-12.8,0-25.6,0-38.4c0-0.7,0.4-1.5-0.5-2
			c-5-0.1-10,0-14.9,0c-9.1,0-18.1,0-27.2,0c-0.9,0-1.8,0-2.7,0.3c-0.8,0.6-0.5,1.5-0.5,2.2c0,12.3,0,24.5,0,36.8
			C66.8,278.6,66.9,279.7,66.2,280.5z"/>
		<path class="st179" d="M16.1,178.1c0.5,0,1.1,0,1.6,0c0,35.3,0,70.6,0,105.9c0,2.6-0.2,2.3,2.4,2.3c7.7,0,15.5,0,23.2,0
			c0.7,0,1.4-0.2,1.8,0.6c-0.4,0.4-1,0.3-1.5,0.3c-9,0-18,0-27.1,0c-0.5,0-1,0.1-1.4-0.2c0.1-1.8,0.5-3.5,0.5-5.4
			c0-33.5,0-67,0-100.5C15.6,180.2,15.4,179.1,16.1,178.1z"/>
		<path class="st180" d="M15.1,287c10,0,20,0,30,0c22.3,0,44.7,0,67,0c16.5,0,33,0,49.5,0c0.6,0,1.5-0.4,1.7,0.6l0,0
			c-49.5,0-99,0-148.5,0C14.6,287.3,14.6,287,15.1,287z"/>
		<path class="st78" d="M53.1,278.9c-0.3-0.1-0.7-0.2-1-0.4c-1.1-0.7-1.1-1.2,0.1-1.9c0.1-0.1,0.2-0.4,0.3-0.5
			c-0.7-0.8-0.4-1.8-0.4-2.8c0-26.9,0-53.9,0-80.8c0.1-0.8-0.2-1.8,1.2-1.6c0.3,0.6,0.2,1.3,0.2,1.9c0,28.1,0,56.1,0,84.2
			C53.5,277.6,53.7,278.3,53.1,278.9z"/>
		<path class="st181" d="M52.5,192.3c0,27.9,0,55.8,0,83.7c-0.2,0-0.4,0-0.6,0c-0.5-0.7-0.3-1.6-0.3-2.3c0-25.8,0-51.6,0-77.4
			c0-0.8,0-1.5,0-2.3C51.4,193.2,51.5,192.5,52.5,192.3z"/>
		<path class="st78" d="M51.5,193.6c0.6,0.6,0.3,1.3,0.3,2c0,26.8,0,53.6,0,80.5c-1.1-0.3-0.6-1.1-0.6-1.7c0-8.6,0-17.2,0-25.7
			c0-18.3,0-36.7,0-55c0.1,0,0.1-0.1,0.2-0.1C51.4,193.5,51.5,193.5,51.5,193.6z"/>
		<path class="st182" d="M53.1,278.9c0-29.4,0-58.8,0-88.2c-0.1-0.1-0.2-0.2-0.2-0.4c0-0.2,0.1-0.4,0.2-0.6c0.2,0.1,0.4,0.2,0.6,0.3
			c0,0.2,0,0.4,0,0.7c-0.2,0.6-0.1,1.3-0.1,1.9c0,27.7,0,55.5,0,83.2c-0.1,1.5,0.3,3-0.3,4.4c-0.4-0.1-0.4-0.4-0.2-0.7
			C53.1,279.4,53.1,279.2,53.1,278.9z"/>
		<path class="st183" d="M66.2,280.5c0.4-0.9,0.2-1.9,0.2-2.9c0-12.8,0-25.5,0-38.3c0-0.4-0.5-1.3,0.6-1.3c0.6,0.2,1.2,0.1,1.8,0.1
			c14.5,0,29,0,43.4,0c0.2,0.1,0.3,0.2,0.2,0.5c-14.6,0-29.2,0-43.8,0c-0.5,0.4-0.9,0.7-1.2,1.3c-0.1,0.1-0.2,0.2-0.3,0.3
			c0,12.2,0,24.4,0,36.6c0,0.6,0,1.3-0.1,1.9c0,0.4,0,0.8-0.3,1.2C66.7,280.2,66.6,280.5,66.2,280.5z"/>
		<path class="st184" d="M67,189.7c0.9,0.1,0.9-0.8,1.4-1.1c0.1,1.8-1.9,3.1-1.1,5c0.5,0.6,0.3,1.3,0.3,2c0,9.1,0,18.1,0,27.2
			c0,1,0.3,2,0,3c0.2,1,1,0.6,1.6,0.6c14.4,0,28.8,0,43.2,0c0,0.6-0.5,0.6-0.9,0.6c-14.7,0-29.3,0-44,0c-0.8-0.1-1.1-0.6-0.9-1.3
			c0.2-1.5,0.1-3,0.1-4.5c0-10,0-20.1,0-30.1C66.5,190.6,66.6,190.1,67,189.7z"/>
		<path class="st185" d="M126.3,191.7c0-0.1,0-0.1,0-0.2c0.1-0.1,0.1-0.1,0.2-0.2c-0.2,0.9,0.9,1.8,0.2,2.8
			c-0.2,0.3-0.1,0.8-0.1,1.3c0,26.3,0,52.6,0,78.8c0,0.6-0.2,1.3,0.3,1.9c0.5,0.6-0.3,0.8-0.6,1.3c0-0.6,0-1,0-1.3
			c-0.3-0.6-0.1-1.2-0.1-1.7c0-27,0-53.9,0-80.9C126.1,192.8,126,192.2,126.3,191.7z"/>
		<path class="st186" d="M111.8,226.8c0.3,0,0.5-0.1,0.6-0.3c0-11.6,0-23.2,0.1-34.9c0-0.5-1.2-1.8,0.6-1.8c0,0.3,0,0.6-0.1,1
			c-0.2,0.4-0.1,0.7-0.1,1.1c0,10.9,0,21.7,0,32.6c0,0.4-0.1,0.8,0.1,1.1c0.3,1.3,0,1.9-1.6,1.8c-14.4-0.1-28.8,0-43.1,0
			c-0.5,0-1.1,0.2-1.6-0.1c0.3-0.3,0.6-0.2,0.9-0.2c14.1,0,28.3,0,42.4,0C110.6,226.9,111.2,227.1,111.8,226.8z"/>
		<path class="st187" d="M112.4,238.7c0-0.1,0-0.2,0-0.4c-0.1-0.1-0.1-0.1-0.1-0.2c0-0.1,0.1-0.1,0.1-0.1c0.3-0.1,0.7-0.1,0.7,0.4
			c0,0.5,0,1,0,1.4c0,13.5,0,27.1,0,40.6c-0.1,0.1-0.1,0.1-0.2,0.2c-0.3,0.1-0.5,0-0.7-0.2c-0.2-0.3-0.1-0.6,0.1-0.9
			C112.4,265.9,112.4,252.3,112.4,238.7z"/>
		<path class="st188" d="M126.3,191.7c0,28.1,0,56.3,0,84.4c-0.5-0.5-0.3-1.1-0.3-1.7c0-27,0-54,0-81
			C126,192.8,125.7,192.1,126.3,191.7z"/>
		<path class="st189" d="M67.3,240c-0.1-1,0.3-1.4,1.3-1.3c-1.3,5.6-0.5,11.2-0.6,16.8c-0.2,7.2,0,14.3-0.1,21.5
			c0,0.6,0.4,1.4-0.6,1.6c-0.5-0.5-0.3-1.1-0.3-1.7c0-11.8,0-23.5,0-35.3C67,241.1,66.9,240.5,67.3,240z"/>
		<path class="st189" d="M67.6,225.8c-0.6-0.5-0.3-1.2-0.3-1.8c0-10.1,0-20.3,0-30.4c1.1,0.3,0.6,1.1,0.6,1.7c0,9,0,18,0,27
			c0,0.8-0.2,1.6,0.5,2.4C68.9,225.4,68.4,225.8,67.6,225.8z"/>
		<path class="st190" d="M67.3,240c0,12.9,0,25.8,0,38.7c0.1,0.6,0.4,1.2-0.6,1.3c0-0.4,0-0.7,0-1.1c0.2-0.6,0.1-1.2,0.1-1.8
			c0-11.8,0-23.6,0-35.4c0-0.6-0.2-1.2,0.2-1.7C67.1,240,67.2,240,67.3,240z"/>
		<path class="st191" d="M67.4,227c-0.2,0-0.4,0.1-0.6,0.1c-0.6-0.4-0.3-1.1-0.3-1.6c0-11.9,0-23.8-0.1-35.8c0.1-0.1,0.2-0.1,0.3,0
			c0.1,0,0.2,0,0.3,0c-0.1,0.3-0.2,0.7-0.3,1c0.1,0.4,0.1,0.7,0.1,1.1c0,10.9,0,21.8,0,32.7c0,0.4,0,0.7-0.1,1.1
			c-0.1,0.5,0.1,0.9,0.6,1.1C67.3,226.8,67.4,226.9,67.4,227z"/>
		<path class="st192" d="M55.1,189.1c0.1-0.8,0.7-0.6,1.2-0.6c2.8,0,5.6,0,8.4,0c0.7,0,1.3,0,1.3,0.9c-0.4,0.2-0.8,0-1.1,0
			c-2.7,0-5.4,0-8.1,0C56.2,189.4,55.6,189.5,55.1,189.1z"/>
		<path class="st184" d="M65.4,189.1c0.2,0.1,0.4,0.2,0.7,0.3c0.2,0.1,0.4,0.2,0.6,0.3c0,0-0.1,0-0.1,0s-0.1,0-0.1,0
			c-4.2,0-8.4,0-12.6,0c0-0.1,0-0.3,0-0.4c3.3-0.3,6.6,0,9.8-0.1C64.2,189.2,64.8,189.4,65.4,189.1z"/>
		<path class="st193" d="M65.4,280.6c0.1,0,0.2,0,0.3,0c0,0.2,0.3,0.6-0.2,0.6c-3.9-0.1-7.8,0.3-11.6-0.2c0,0-0.1-0.1-0.1-0.1
			c0.5-0.3,1-0.1,1.4-0.2C58.6,280.6,62,280.9,65.4,280.6z"/>
		<ellipse class="st194" cx="119.2" cy="189.2" rx="8.2" ry="0.1"/>
		<path class="st195" d="M65.4,189.1c-0.4,0.5-1,0.3-1.5,0.3c-3.4,0-6.7,0-10.1,0c0.3-0.5,0.8-0.2,1.3-0.3
			C58.5,189.1,62,189.1,65.4,189.1z"/>
		<path class="st196" d="M113.1,280.5c3.9,0,7.7,0.1,11.6,0.1c-0.8,0.6-1.7,0.2-2.6,0.3c-1.9,0.2-3.8,0.2-5.8,0c-0.2,0-0.4,0-0.7,0
			c-0.8,0.3-1.6,0.1-2.4,0.1c-0.2-0.1-0.3-0.2-0.2-0.4L113.1,280.5z"/>
		<path class="st181" d="M53.1,189.7c0,0.2,0,0.4,0,0.6c-1,0.3-1.6,1-1.5,2.1c0,0.4-0.1,0.8-0.4,1.2c0,0,0,0,0,0
			c-1.4-1.3-0.6-2.6,0-3.9v0C51.9,189.7,52.5,189.7,53.1,189.7z"/>
		<path class="st197" d="M116.3,280.9c1.9,0,3.9,0,5.8,0C120.1,281.4,118.2,281.4,116.3,280.9z"/>
		<path class="st78" d="M55.1,280.9c-0.4,0-0.9,0-1.3,0c-0.4,0.1-0.9,0.6-1.2,0c-0.3-0.5,0-1,0.5-1.3c0,0.2,0,0.4,0,0.6
			c0.2,0.2,0.5,0.1,0.8,0.3c0.4,0,0.8,0,1.1,0c0.1,0.1,0.1,0.1,0.1,0.2C55.2,280.8,55.1,280.9,55.1,280.9z"/>
		<path class="st181" d="M51.2,189.7c-0.1,0-0.1,0-0.2,0c-0.5-0.2-0.8-0.5-0.9-1c0-0.3,0.3-0.3,0.5-0.3
			C51.4,188.6,51.1,189.2,51.2,189.7L51.2,189.7z"/>
		<path class="st185" d="M126.5,190.6c-0.3,0-0.5-0.1-0.5-0.3c0-0.3,0.2-0.5,0.5-0.5c0.3,0,0.6,0,0.5,0.4
			C127,190.3,126.7,190.4,126.5,190.6z"/>
		<path class="st198" d="M113,280.6c0,0.1,0,0.2,0,0.3c0.1,0.1,0.1,0.1,0.1,0.2c0,0.1-0.1,0.1-0.1,0.1c-0.5-0.1-1.2,0.2-1.3-0.6
			c0.2-0.2,0.4-0.2,0.7,0C112.6,280.6,112.8,280.6,113,280.6z"/>
		<path class="st78" d="M50.5,280c-0.1,0.2,0,0.5-0.4,0.4c-0.2-0.1-0.3-0.3-0.2-0.5c0-0.2,0-0.5,0.3-0.4
			C50.5,279.5,50.6,279.7,50.5,280z"/>
		<path class="st78" d="M50.2,276.9c0.3,0,0.3,0.3,0.3,0.5c0,0.2,0,0.5-0.3,0.5c-0.3,0-0.3-0.3-0.3-0.5
			C50,277.1,50,276.9,50.2,276.9z"/>
		<path class="st199" d="M113.1,281.2c0-0.1,0-0.2,0-0.3c0.9,0,1.7,0,2.6,0C114.8,281.5,113.9,281.1,113.1,281.2z"/>
		<path class="st200" d="M112.4,280.6c-0.2,0-0.4,0-0.7,0c0.2-0.3-0.5-1.3,0.6-1C112.4,279.9,112.4,280.2,112.4,280.6z"/>
		<path class="st188" d="M126.1,280.3c-0.3-0.5-0.2-0.9,0-1.4C126.4,279.4,126.3,279.8,126.1,280.3z"/>
		<path class="st92" d="M15.1,287c-0.3,0.1-0.3,0.4-0.3,0.6c-0.2,0-0.4,0-0.6,0c0-36.5,0-73,0-109.5c0.6,0,1.3,0,1.9,0
			c0,35,0,70,0,105C16.1,284.5,16.1,285.9,15.1,287z"/>
		<path class="st145" d="M96.3,290.2c-26.9,0-53.9,0-80.8,0c0.5-1.1,1.3-1.7,2.3-1.1c0.8,0.5,1.5,0.4,2.3,0.4c25.4,0,50.8,0,76.2,0
			C96.5,289.8,96.5,290,96.3,290.2z"/>
		<path class="st145" d="M132.4,289.6c0,0.2,0,0.4,0,0.6c-6.9,0-13.7,0-20.6,0c-0.2-0.2-0.2-0.4,0-0.6
			C118.6,289.6,125.5,289.6,132.4,289.6z"/>
		<path class="st145" d="M111.8,289.6c0,0.2,0,0.4,0,0.6c-5.2,0-10.3,0-15.5,0c0-0.2,0-0.4,0-0.6
			C101.5,289.6,106.6,289.6,111.8,289.6z"/>
		<path class="st201" d="M164.6,288.9c-1,0.1-1.4-0.3-1.3-1.3c0,0,0,0,0,0c0.4,0,0.9,0,1.3,0C164.9,288.1,164.9,288.5,164.6,288.9z"
			/>
		<path class="st70" d="M164.6,288.9c0-0.4,0-0.9,0-1.3c0.4,0,0.7,0.3,0.6,0.7C165.2,288.8,164.9,288.9,164.6,288.9z"/>
		<path class="st202" d="M66.6,308.2c-0.1-0.1-0.1-0.1-0.2-0.1c-0.1-1.8-0.8-3.5,0-5.3c0.1-0.1,0.2-0.3,0.3-0.4
			c1.3-0.7,2.7-0.2,4.1-0.3c0.6-0.1,1.3,0,1.9,0c0.2,0,0.4,0,0.5,0c1,0.4,2.1,0.6,2.7,1.6c0.1,1.1,0.5,2.2-0.3,3.1c0,0,0,0,0,0
			c-1.5,1.3-3.3,1.1-5.1,1.2C69.2,308.1,67.9,307.9,66.6,308.2z"/>
		<path class="st75" d="M66,320.5c-0.4,0-0.6,0.2-0.6,0.6c-0.6-0.6-1.1-3.1-0.5-3.6c1.1-0.8,0.7-1.8,0.8-2.7
			c0.1-0.9-0.4-1.9,0.3-2.8c0,2.1,0,4.3,0,6.4c-0.1,0.4-0.2,0.9,0,1.3C66,320.1,66,320.3,66,320.5z"/>
		<path class="st71" d="M75.7,303.8c-0.6-0.7-1.5-0.9-2.3-1.2c-0.2-0.2-0.2-0.5,0-0.7c0.9,0.6,2.5,0.1,2.9,1.6
			C76.2,303.6,76,304,75.7,303.8z"/>
		<path class="st203" d="M73.4,301.8c0,0.2,0,0.5,0,0.7c0,0-0.1,0-0.1,0l-0.1-0.1c-1.5-0.4-3.1-0.1-4.6-0.2
			c-0.6-0.1-1.3,0.1-1.9-0.1c0.2-0.7,0.8-0.3,1.1-0.3C69.7,301.8,71.6,301.8,73.4,301.8z"/>
		<path class="st204" d="M66.7,302.1c1.7,0,3.3,0,5,0c0.5,0,1.1-0.2,1.5,0.3c-2.2,0-4.3,0-6.5,0C66.7,302.4,66.7,302.3,66.7,302.1z"
			/>
		<path class="st155" d="M75.7,303.8c0.2-0.1,0.5-0.2,0.7-0.4c0,0.8,0,1.7,0,2.5c0,0.5,0,1-0.7,0.9
			C75.9,305.9,75.9,304.8,75.7,303.8z"/>
		<path class="st205" d="M66.4,302.9c0,1.8,0,3.5,0,5.3c-0.1,0-0.2,0.1-0.3,0.1c0-1.1-0.1-2.1-0.1-3.2c-0.5-0.9-0.2-1.7,0.1-2.5
			C66.2,302.6,66.3,302.7,66.4,302.9z"/>
		<path class="st206" d="M66.1,302.5c0,0.8,0,1.7-0.1,2.5C65.3,304.3,65.3,302.9,66.1,302.5z"/>
		<path class="st207" d="M66,319.9c-0.3,0-0.6-0.2-0.6-0.6c0-0.5,0.2-0.7,0.6-0.7c0.1,0,0.2,0,0.3,0C66.5,319.1,66.9,319.6,66,319.9
			z"/>
		<path class="st75" d="M68.6,319.2c0,0.4-0.2,0.6-0.6,0.6C67.7,319.2,68.3,319.3,68.6,319.2z"/>
		<path class="st208" d="M53.5,276c0-27.9,0-55.8,0-83.7c0-0.6-0.2-1.2,0.3-1.7c0,1,0.1,1.9,0.1,2.9c0,27,0,54,0,81
			c0,0.5,0,1-0.1,1.4C53.7,276.2,53.6,276.2,53.5,276z"/>
		<path class="st209" d="M112.4,238.1c0,0.1,0,0.2,0,0.3c-14.8,0-29.6,0-44.3,0c-0.4,0-0.8,0-1-0.3c0.8,0,1.6-0.1,2.4-0.1
			c13.9,0,27.8,0,41.7,0C111.5,238,112,238,112.4,238.1z"/>
		<path class="st187" d="M113,225.5c-0.5-0.4-0.3-1-0.3-1.5c0-10.6,0-21.1,0-31.7c0-0.5-0.2-1.1,0.3-1.5
			C113,202.3,113,213.9,113,225.5z"/>
		<path class="st210" d="M55.1,280.9c0-0.1,0-0.2,0-0.3c3.4,0,6.9,0,10.3,0c-0.6,0.6-1.4,0.3-2.1,0.3
			C60.5,280.9,57.8,280.9,55.1,280.9z"/>
		<path class="st211" d="M53.5,276c0.1,0,0.2,0,0.3,0c0.1,1.5,0.1,3,0.2,4.5c-0.3,0-0.6,0-0.8-0.3C53.9,278.9,53.3,277.4,53.5,276z"
			/>
		<path class="st70" d="M51.2,193.6c0-0.7-0.1-1.5,0.1-2.2c0.2-0.8,0.8-1.4,1.8-1c0,0.1,0,0.2,0,0.3c-0.7,0.3-0.6,1-0.6,1.6
			c-0.3,0.4-0.6,0.9-1,1.3C51.4,193.6,51.3,193.6,51.2,193.6z"/>
		<path class="st212" d="M67,240c0,12.4,0,24.7,0,37.1c0,0.6,0.2,1.3-0.2,1.8c0-13.2,0-26.3,0-39.5C67.1,239.4,66.9,239.8,67,240z"
			/>
		<path class="st213" d="M67.4,227c0-0.1,0-0.1,0-0.2c14.8,0,29.6,0,44.4,0c-0.3,0.4-0.8,0.3-1.2,0.3c-14.2,0-28.5,0-42.7,0
			C67.7,227,67.5,227,67.4,227z"/>
		<path class="st214" d="M66.7,225.7c0-11.6,0-23.3,0-34.9c0.4,0.4,0.3,0.9,0.3,1.4c0,10.7,0,21.5,0,32.2
			C67,224.8,67.2,225.3,66.7,225.7z"/>
	</g>
</g>
</svg>
