<?xml version="1.0" encoding="utf-8"?>
<!-- Generator: Adobe Illustrator 22.1.0, SVG Export Plug-In . SVG Version: 6.00 Build 0)  -->
<svg version="1.1" id="Layer_1" xmlns="http://www.w3.org/2000/svg" xmlns:xlink="http://www.w3.org/1999/xlink" x="0px" y="0px"
	 viewBox="0 0 500 500" style="enable-background:new 0 0 500 500;" xml:space="preserve">
<style type="text/css">
	.st0{fill:#FDFDFD;}
	.st1{fill:#1E1E1C;}
	.st2{fill:#1D1D1B;}
	.st3{fill:#BE2226;}
	.st4{fill:#1F1E1C;}
	.st5{fill:#21201E;}
	.st6{fill:#22211F;}
	.st7{fill:#595553;}
	.st8{fill:#2E2C2A;}
	.st9{fill:#FFFFFF;}
	.st10{fill:#FEFEFE;}
</style>
<g>
	<g>
		<path class="st0" d="M107.1,459.4c-32.3,0-64.7,0-97,0c-1.4,0-1.7-0.2-1.7-1.6c0-138.4,0-276.7,0-415.1c0-1.6,0.5-1.7,1.8-1.7
			c160,0,320.1,0,480.1,0c1.4,0,1.8,0.2,1.8,1.7c0,138.3,0,276.6,0,414.9c0,1.6-0.4,1.8-1.9,1.8c-84.6,0-169.2,0-253.8,0
			c0-0.9,0.7-0.9,1.2-1.1c3-1.2,4.5-3.6,4.6-6.7c0.2-7.2,0.1-14.5,0.1-21.7c0-0.5,0.1-1.2-0.5-1.4c-0.6-0.2-0.8,0.4-1,0.7
			c-0.6,0.8-1.2,0.3-1.8-0.1c-1.3-0.8-2.6-1.3-4.1-1.5c-3.7-0.5-6.9,0.9-8.6,4.2c-2.3,4.6-2.4,9.5-0.3,14.2
			c2.2,4.9,7.9,6.1,12.2,2.8c0.7-0.5,1.3-1.6,2.2-1.1c0.9,0.5,0.6,1.7,0.6,2.6c-0.3,6-7,9.4-12.2,6.1c-0.7-0.5-1.1-1.1-1.6-1.8
			c-0.3-0.4-0.5-1.2-1.2-0.8c-0.7,0.4-0.2,1.1,0,1.6c0.6,1.2,1.6,1.9,2.8,2.6c0.6,0.3,1.5,0.4,1.5,1.4c-39.1,0-78.1,0-117.2,0
			c0-1,0.9-0.9,1.4-1.2c2.7-1.2,4.1-3.3,4.5-6.2c0.3-2.5,0.5-5.1,0.4-7.6c0-4.6,0-9.3,0-13.9c0-2.4-0.2-2.5-2.2-1.4
			c-0.6,0.3-1,0.2-1.5,0c-0.5-0.2-0.9-0.5-1.4-0.7c-5.1-2.2-10-0.2-11.9,5c-1.5,4-1.5,8,0,12c2,5.3,7.8,6.9,12.4,3.6
			c0.7-0.5,1.3-1.7,2.3-1.1c0.9,0.5,0.5,1.7,0.5,2.6c-0.1,3.5-1.7,5.7-4.8,6.7c-3.6,1.1-7,0.1-9-2.6c-0.3-0.4-0.5-1-1-0.7
			c-0.7,0.3-0.4,0.9-0.1,1.4c0.6,1.2,1.7,2.1,2.8,2.8C106.2,458.4,107.1,458.4,107.1,459.4z"/>
		<path class="st1" d="M107.1,459.4c-1.2-1-2.8-1.1-3.8-2.4c-0.6-0.8-1.3-1.6-1.4-2.6c-0.1-0.5-0.7-1.3,0.4-1.4
			c0.7-0.1,1.7-0.5,2,0.7c0.4,1.7,1.6,2.5,3.2,2.9c6.8,1.7,10.4-1.5,9.7-8.9c-1.4,1.3-2.8,2.6-4.6,3.2c-5,1.4-9.4-1-10.9-6.1
			c-1-3.5-1.1-7.1,0-10.7c1.9-6.5,8-9,14-5.6c0.5,0.3,0.9,0.5,1.5,0.9c0.3-0.9,0.1-2.1,1.6-1.8c0.8,0.2,1.2,0.3,1.2,1.2
			c0,7.1,0,14.2-0.1,21.3c0,4.6-1.8,8.1-6.6,9.4C111.1,459.4,109.1,459.4,107.1,459.4z"/>
		<path class="st1" d="M230.3,459.4c-0.5-0.7-1.4-0.7-2.1-1c-1.6-0.9-2.8-2.1-3.2-3.9c-0.1-0.5-0.8-1.3,0.3-1.4
			c0.7-0.1,1.8-0.5,2,0.6c0.5,2.5,2.5,3,4.5,3.2c6,0.9,8.7-2,8.5-8.9c-0.4-0.3-0.6,0.1-0.8,0.3c-5.7,5.3-13,3.3-15-4.2
			c-0.9-3.4-0.9-6.8,0.1-10.1c2-6.5,8.1-8.9,14-5.5c0.5,0.3,0.9,0.6,1.5,0.9c0.4-0.6-0.2-2,1.4-1.8c1,0.1,1.4,0.2,1.4,1.3
			c-0.1,6.9-0.1,13.8,0,20.7c0,4.8-1.6,8.4-6.6,9.8C234.3,459.4,232.3,459.4,230.3,459.4z"/>
		<path class="st2" d="M322.8,202.2c3.6,47.4-28.1,75-56.6,81.5c0-0.8,0-1.5,0-2.2c0-8.5,0-16.9,0-25.4c0-1.4-0.3-1.8-1.8-1.8
			c-10.5,0.1-21.1,0.1-31.6,0c-1.5,0-1.9,0.3-1.9,1.8c0.1,8.4,0,16.8,0,25.2c0,0.7,0,1.5,0,2.4c-6.2-1.4-12-3.6-17.4-6.7
			c-21.3-11.9-34.1-29.8-38.4-53.8c-1.2-6.6-0.8-13.4-0.9-20.1c0-1.4,0.5-1.1,1.4-0.8c6.6,2,13.3,4,19.9,6.1c1.6,0.5,2.5,0.3,3.6-1
			c11-12.1,22-24.2,33-36.3c0.9-1,1.8-1.4,3.1-1.4c8.7,0.1,17.4,0.1,26.2,0c1.2,0,2.1,0.3,2.9,1.3c11.1,12.3,22.3,24.5,33.5,36.8
			c0.8,0.9,1.5,1.1,2.8,0.7c6.9-2.2,13.8-4.2,20.7-6.3C321.9,202.2,322.3,202,322.8,202.2z"/>
		<path class="st2" d="M266.2,41.6c0.4,1,1.2,1.2,1.9,1.6c17.7,8.6,35.3,17.2,53,25.7c1.3,0.6,1.8,1.4,1.8,2.9c0,41.3,0,82.7,0,124
			c0,1.5-0.3,2.2-1.9,2.6c-6.5,1.8-12.9,3.8-19.4,5.8c-1,0.3-1.5,0.2-2.2-0.6c-10.7-11.8-21.5-23.6-32.3-35.4c-0.6-0.7-1-1.3-1-2.3
			c0-41,0-82,0-123C266.2,42.5,266.2,42.1,266.2,41.6z"/>
		<path class="st2" d="M230.7,167.2c-11,12.1-22.1,24.2-33,36.3c-0.8,0.8-1.4,1.1-2.6,0.7c-6.3-2-12.6-3.9-19-5.7
			c-1.6-0.4-1.8-1.2-1.8-2.7c0-39.7,0-79.4,0-119.1c0-2.3-0.9-5.1,0.4-6.8c1.2-1.6,3.9-2.2,5.9-3.2c16.3-7.9,32.6-15.8,48.8-23.7
			c0.2-0.1,0.5-0.2,0.7-0.3c0.4,0,0.6,0.1,0.7,0.6c0,0.6,0,1.2,0,1.8c0,40,0,80,0,120C230.9,165.7,231,166.4,230.7,167.2z"/>
		<path class="st3" d="M389.1,366.2c0-9,0-18,0-27c0-1.6,0.3-2.2,2-2.2c12.9,0.1,25.9,0,38.8,0c5.2,0,8.4,2,9.6,6
			c0.4,1.4,0.4,2.9,0.4,4.4c0,6.6,0.1,13.2,0.1,19.7c0,4.4-1.4,7.9-5.9,9.5c-1.4,0.5-0.5,1.2-0.3,1.7c1.8,5.1,3.7,10.2,5.6,15.3
			c0.5,1.3,0.6,1.8-1.1,1.8c-5.4-0.1-10.7-0.1-16.1,0c-1.2,0-1.7-0.4-2.1-1.5c-1.7-4.9-3.6-9.8-5.3-14.7c-0.5-1.5-1.2-2.1-2.8-2
			c-3.3,0.2-3.4,0-3.4,3.4c0,4.4-0.1,8.7,0,13.1c0,1.4-0.3,1.9-1.7,1.8c-5.4-0.1-10.7-0.1-16.1,0c-1.4,0-1.7-0.4-1.7-1.7
			C389.1,384.6,389.1,375.4,389.1,366.2C389.1,366.2,389.1,366.2,389.1,366.2z"/>
		<path class="st3" d="M382,366.1c0,6.5,0,13,0,19.5c0,6.6-3.4,9.9-9.9,9.9c-10.4,0-20.8,0-31.2,0c-6.6,0-9.8-3.3-9.8-9.9
			c0-12.9,0-25.8-0.1-38.6c0-2.9,0.7-5.6,3-7.6c1.9-1.7,4.1-2.2,6.5-2.2c10.6,0,21.2-0.1,31.8,0c6.4,0,9.5,3.4,9.5,9.8
			c0,6.4,0,12.7,0,19.1C381.9,366.1,381.9,366.1,382,366.1z"/>
		<path class="st2" d="M202.5,366.3c0,9.1,0,18.3,0,27.4c0,1.4-0.3,1.8-1.8,1.8c-5.4-0.1-10.7-0.1-16.1,0c-1.3,0-1.7-0.3-1.7-1.7
			c0.1-5,0-9.9,0.1-14.9c0-1.4-0.4-1.8-1.8-1.7c-2.8,0.1-5.6,0.1-8.5,0c-1.4-0.1-1.8,0.3-1.8,1.7c0.1,5,0,9.9,0.1,14.9
			c0,1.3-0.4,1.7-1.7,1.7c-5.4-0.1-10.9-0.1-16.3,0c-1.2,0-1.6-0.3-1.6-1.5c0-18.5,0-36.9,0-55.4c0-1.3,0.4-1.6,1.6-1.6
			c5.4,0.1,10.7,0.1,16.1,0c1.6,0,1.9,0.5,1.9,1.9c0,9.7,0,19.3,0,29c0,1.6,0.4,2.1,2,2c2.7-0.1,5.5-0.1,8.2,0
			c1.4,0.1,1.8-0.4,1.8-1.8c-0.1-9.6,0-19.2-0.1-28.8c0-1.8,0.3-2.4,2.3-2.4c5.2,0.1,10.3,0.1,15.5,0c1.5,0,1.9,0.4,1.9,1.9
			C202.4,348.1,202.5,357.2,202.5,366.3C202.5,366.3,202.5,366.3,202.5,366.3z"/>
		<path class="st2" d="M8.9,366.2c0-9.1,0-18.2,0-27.4c0-1.4,0.3-1.8,1.7-1.8c5.2,0.1,10.5,0.1,15.7,0c1.5,0,2,0.3,2,2
			c-0.1,9.7,0,19.3,0,29c0,1.5,0.3,2.1,2,2c2.7-0.1,5.5-0.1,8.2,0c1.5,0.1,1.9-0.3,1.9-1.9c-0.1-9.7,0-19.3-0.1-29
			c0-1.6,0.3-2.2,2.1-2.1c5.2,0.1,10.3,0.1,15.5,0c1.6,0,2,0.4,2,2c0,12.7,0,25.5,0,38.2c0,5.4,0,10.9,0.1,16.3c0,1.4-0.2,2-1.8,2
			c-5.4-0.1-10.7-0.1-16.1,0c-1.3,0-1.7-0.4-1.7-1.7c0.1-5,0-9.9,0.1-14.9c0-1.5-0.4-1.8-1.8-1.7c-2.9,0.1-5.8,0.1-8.7,0
			c-1.4-0.1-1.7,0.4-1.6,1.7c0.1,4.9,0,9.8,0.1,14.7c0,1.4-0.2,2-1.8,1.9c-5.3-0.1-10.6-0.1-15.9,0c-1.4,0-1.8-0.3-1.8-1.8
			C8.9,384.6,8.9,375.4,8.9,366.2C8.9,366.2,8.9,366.2,8.9,366.2z"/>
		<path class="st2" d="M93.4,366.4c0-6.6,0-13.3,0-19.9c0-5.8,3.6-9.4,9.4-9.4c10.7,0,21.3,0,32,0c6,0,9.3,3.3,9.5,9.3
			c0.1,2.1,0,4.3,0.1,6.4c0.1,1.1-0.3,1.4-1.4,1.4c-5.6,0-11.1,0-16.7,0c-1.1,0-1.5-0.3-1.5-1.5c0.1-2.3,0-4.6,0-6.8
			c0-1-0.2-1.4-1.3-1.4c-3.1,0.1-6.2,0.1-9.3,0c-1.1,0-1.5,0.3-1.5,1.5c0,13.5,0,27.1,0,40.6c0,1.3,0.4,1.6,1.6,1.5
			c3-0.1,6-0.1,9.1,0c1.2,0,1.4-0.4,1.4-1.5c-0.1-3.1-0.1-6.2,0-9.3c0-1.2-0.4-1.6-1.5-1.4c-0.2,0-0.4,0-0.6,0
			c-1.7-0.1-4.4,0.7-4.9-0.4c-0.9-1.6-0.3-4-0.3-6.1c0-0.8,0.4-0.8,1-0.8c8.2,0,16.5,0,24.7,0c0.8,0,1.1,0.2,1.1,1
			c-0.1,6.1,0.4,12.2-0.2,18.3c-0.5,4.4-3.7,7.3-8.2,7.3c-11.4,0.1-22.8,0.1-34.2,0c-5-0.1-8.3-3.6-8.4-8.7
			C93.4,380,93.4,373.2,93.4,366.4C93.4,366.4,93.4,366.4,93.4,366.4z"/>
		<path class="st3" d="M251.1,395.5c-5.2,0-10.5,0-15.7,0c-6.2,0-9.5-3.3-9.5-9.6c0-2.1,0-4.2,0-6.2c0-0.9,0.3-1.1,1.1-1.1
			c5.7,0,11.4,0,17.1,0c1.1,0,1.2,0.5,1.1,1.3c0,2.3,0,4.7,0,7c0,1.1,0.3,1.4,1.3,1.4c3.2-0.1,6.3-0.1,9.5,0c1.1,0,1.3-0.3,1.3-1.4
			c0-5.2-0.1-10.3,0-15.5c0-1.3-0.5-1.4-1.5-1.4c-6.7,0-13.4,0-20.1,0c-6.5,0-9.8-3.3-9.8-9.7c0-4.4,0-8.9,0-13.3
			c0-6.4,3.3-9.8,9.8-9.8c9.4,0,18.8,0,28.2,0c1.9,0,3.8-0.1,5.6,0.2c4.2,0.7,7,3.7,7.2,7.9c0.1,2.5,0,5,0.1,7.4
			c0,1-0.2,1.4-1.3,1.4c-5.6-0.1-11.1-0.1-16.7,0c-1.2,0-1.4-0.5-1.4-1.5c0.1-2.3,0-4.6,0-6.8c0-0.9-0.2-1.3-1.2-1.3
			c-3.2,0.1-6.4,0.1-9.7,0c-1,0-1.2,0.4-1.2,1.3c0,5.2,0.1,10.5,0,15.7c0,1.4,0.8,1.3,1.7,1.3c7.1,0,14.2,0,21.3,0
			c4.2,0.1,7.3,2.5,8.2,6.4c0.2,0.8,0.2,1.6,0.3,2.4c0,4.8,0.1,9.7,0.1,14.5c0,6.1-3.3,9.4-9.5,9.5c-0.1,0-0.3,0-0.4,0
			C261.6,395.5,256.3,395.5,251.1,395.5z"/>
		<path class="st3" d="M447.2,366.4c0-6.5,0-13,0-19.5c0-6.5,3.3-9.8,9.8-9.8c9.9,0,19.7,0,29.6,0c1.4,0,1.9,0.4,1.8,1.8
			c-0.2,1.8,0.7,4.1-0.3,5.2c-1,1.1-3.3,0.3-5,0.3c-4.9,0-9.8,0-14.7,0c-1.2,0-1.8,0.1-1.8,1.6c0.1,5,0.1,10.1,0,15.1
			c0,1.4,0.5,1.6,1.8,1.6c4.5-0.1,9,0,13.5-0.1c1.5,0,1.9,0.4,1.7,1.8c-0.1,1.2-0.1,2.4,0,3.6c0.2,1.7-0.5,2-2,1.9
			c-4.5-0.1-9,0-13.5-0.1c-1.1,0-1.5,0.3-1.5,1.4c0.1,5.1,0.1,10.2,0,15.3c0,1.3,0.5,1.5,1.6,1.5c6.1-0.1,12.2,0,18.3-0.1
			c1.7,0,2.1,0.5,1.9,2c-0.1,1.3-0.1,2.7,0,4c0.1,1.1-0.4,1.3-1.4,1.3c-10.4,0-20.8,0-31.2-0.1c-5.2,0-8.5-3.4-8.6-8.6
			C447.2,380,447.3,373.2,447.2,366.4C447.2,366.4,447.2,366.4,447.2,366.4z"/>
		<path class="st3" d="M283.9,366.3c0-6.4,0-12.9,0-19.3c0-6.4,3.4-9.8,9.8-9.8c9.9,0,19.7,0,29.6,0c1.4,0,2,0.3,1.8,1.8
			c-0.1,1.3-0.1,2.6,0,3.8c0.1,1.4-0.4,1.8-1.8,1.8c-6-0.1-12.1,0-18.1-0.1c-1.4,0-2,0.2-2,1.8c-0.1,13.3-0.2,26.7-0.4,40
			c0,1.5,0.3,1.9,1.8,1.9c6.2-0.1,12.5,0,18.7-0.1c1.3,0,1.9,0.3,1.8,1.7c-0.1,1.8,0.8,4.1-0.3,5.2c-1,1.1-3.3,0.3-5,0.3
			c-8.7,0-17.3,0-26,0c-6.8,0-9.9-3.2-9.9-10c0-3.2,0-6.4,0-9.7C283.9,372.6,283.9,369.5,283.9,366.3
			C283.9,366.3,283.9,366.3,283.9,366.3z"/>
		<path class="st2" d="M86.3,366.2c0,9.1,0,18.2,0,27.4c0,1.4-0.2,2-1.8,1.9c-5.4-0.1-10.7-0.1-16.1,0c-1.2,0-1.6-0.3-1.6-1.6
			c0-18.5,0-36.9,0-55.4c0-1.3,0.4-1.6,1.6-1.5c5.4,0.1,10.7,0.1,16.1,0c1.5,0,1.7,0.5,1.7,1.8C86.2,348,86.2,357.1,86.3,366.2
			C86.2,366.2,86.3,366.2,86.3,366.2z"/>
		<path class="st2" d="M238.4,83.8c0-6.9,0-13.8,0-20.7c0-1.3,0.3-1.7,1.6-1.7c5.8,0.1,11.5,0.1,17.3,0c1.4,0,1.6,0.5,1.6,1.7
			c0,13.8,0,27.5,0,41.3c0,1.2-0.3,1.6-1.5,1.6c-5.8-0.1-11.7-0.1-17.5,0c-1.3,0-1.5-0.4-1.5-1.6C238.4,97.4,238.4,90.6,238.4,83.8z
			"/>
		<path class="st4" d="M154.9,430.4c6.3-4.8,10.5-4.7,13.6,0.5c2.3-2.7,5.1-4.3,8.7-3.9c2.9,0.3,4.5,1.9,5.2,4.8c0.7,3,0.3,6,0.4,9
			c0.1,2.7,0,5.5,0,8.3c0,0.9,0,1.5-1.2,1.5c-1.2,0-1.3-0.5-1.3-1.4c0-4.2,0-8.3,0-12.5c0-1,0-2-0.2-3c-0.6-3.8-3-5.2-6.6-3.8
			c-3.3,1.3-4.8,3.5-4.8,6.9c0,4.1,0,8.2,0,12.3c0,1-0.2,1.5-1.4,1.5c-1.4,0-1.1-0.8-1.1-1.6c-0.1-5.2,0.3-10.3-0.2-15.5
			c-0.4-3.6-2.9-5-6.3-3.7c-3.2,1.2-4.8,3.5-4.8,7c0,4.1,0,8.2,0,12.3c0,0.9,0.1,1.5-1.2,1.5c-1.3,0-1.4-0.5-1.4-1.6
			c0-6.6,0-13.1,0-19.7c0-0.9-0.2-1.8,1.3-1.8c1.6,0,1.2,1,1.2,1.9C154.9,429.7,154.9,429.9,154.9,430.4z"/>
		<path class="st4" d="M142.2,447.9c-2.6,2.1-5.3,3.2-8.3,3.3c-3.6,0.1-6.6-1.8-7.4-4.7c-0.9-3.4,0.5-6.7,3.8-8.4
			c1.9-1,4-1.5,6.1-1.7c1.2-0.1,2.4-0.2,3.6-0.1c1.9,0.2,2.4-0.4,2.2-2.3c-0.4-2.7-1.8-4.3-4.5-4.5c-1.3-0.1-2.7-0.1-4,0
			c-1.9,0.2-3.6,0.9-4.1,2.9c-0.4,1.4-1.5,1.1-2.3,0.9c-1-0.3-0.2-1.2-0.1-1.7c0.5-2.1,2-3.5,4-4.1c2.7-0.9,5.4-1,8.1-0.3
			c3.6,0.9,5.3,3.5,5.4,8.1c0.1,4.5,0,9,0,13.5c0,0.9,0.1,1.7-1.3,1.7c-1.3,0-1.4-0.7-1.3-1.6C142.3,448.8,142.2,448.5,142.2,447.9z
			"/>
		<path class="st1" d="M381.3,438c0.4,1.3-0.2,1.7-1.6,1.7c-5-0.1-9.9,0-14.9-0.1c-1.1,0-1.4,0.2-1.3,1.3c0.5,5.9,6.2,9.4,11.7,7.1
			c1.2-0.5,2.4-1.3,2.9-2.6c0.4-1.3,1.4-1.3,2.2-0.9c1,0.4,0.2,1.3-0.1,1.8c-2.6,5.9-12.1,6.8-16.5,1.6c-3.8-4.5-3.8-13.1,0-17.6
			c4.4-5.2,13.3-4.1,16.2,2C380.8,434,381.3,435.9,381.3,438z"/>
		<path class="st1" d="M309.8,439.7c-2.6,0-5.2,0-7.8,0c-1,0-1.2,0.3-1.1,1.3c0.6,5.9,5.8,9.3,11.3,7.3c1.5-0.5,2.8-1.3,3.4-2.9
			c0.5-1.3,1.6-1.1,2.3-0.8c0.9,0.4,0.1,1.2-0.2,1.7c-1.6,3.4-4.5,4.9-8.1,5c-3.9,0.2-7.4-1.1-9.4-4.7c-2.7-4.9-2.7-10,0-15
			c2-3.8,6.4-5.3,11-4.3c3.9,0.9,6.9,4.5,7.4,9c0.4,3.4,0.4,3.4-3.1,3.4C313.5,439.7,311.6,439.7,309.8,439.7z"/>
		<path class="st4" d="M202.7,430.8c2.3-2.5,4.7-3.7,7.6-3.9c4.3-0.2,7.4,2.2,7.5,6.5c0.2,5.4,0.1,10.7,0.1,16.1
			c0,0.9-0.4,1.1-1.2,1.1c-0.9,0-1.3-0.2-1.3-1.2c0.1-4.6,0-9.3,0-13.9c0-2.1-0.1-4.3-2.3-5.4c-2.2-1.1-4.6-0.8-6.7,0.4
			c-2.5,1.5-4.2,3.2-3.9,6.5c0.4,4,0.1,8,0.1,12.1c0,0.9,0,1.5-1.2,1.5c-1.1,0-1.3-0.5-1.3-1.4c0-6.7,0-13.4,0-20.1
			c0-0.8-0.1-1.5,1.2-1.5c1.3,0,1.5,0.5,1.3,1.5C202.6,429.5,202.7,429.9,202.7,430.8z"/>
		<path class="st1" d="M327,430.8c2.2-2.4,4.5-3.6,7.3-3.9c4.6-0.4,7.7,2.2,7.8,6.8c0.1,5.2,0,10.5,0.1,15.7c0,1.1-0.4,1.2-1.3,1.2
			c-1.1,0-1.2-0.5-1.2-1.3c0-4.6,0-9.2,0-13.9c0-5.4-4-7.6-8.7-5c-2.6,1.5-4.5,3.3-4.2,6.8c0.3,3.9,0.1,7.8,0.1,11.6
			c0,0.9,0.3,1.9-1.3,1.8c-1.5,0-1.2-0.9-1.2-1.7c0-6.6,0-13.1,0-19.7c0-0.9-0.2-1.7,1.2-1.7c1.4,0,1.3,0.7,1.3,1.6
			C327,429.6,327,429.9,327,430.8z"/>
		<path class="st1" d="M275.8,439c-0.1-2.2,0.3-4.3,1.2-6.4c2.3-5.1,8.5-7.2,13.4-4.6c1.8,0.9,3,2.4,3.7,4.3
			c0.2,0.5,0.7,1.3-0.2,1.5c-0.6,0.2-1.4,0.4-2-0.5c-2.3-3.6-4.1-4.4-7.9-3.7c-2.9,0.6-4.9,2.8-5.6,6.3c-0.6,2.7-0.5,5.3,0.5,7.9
			c1.5,4.2,6.4,6.1,10.4,4.1c1.1-0.5,2.1-1.3,2.4-2.6c0.3-1.4,1.4-1.3,2.2-1c0.9,0.4,0.2,1.3-0.1,1.9c-2.5,5.9-11.4,6.7-15.6,1.4
			C276.3,445.2,275.7,442.2,275.8,439z"/>
		<path class="st4" d="M350.6,439c0-2.5-0.1-5,0-7.4c0-1.2-0.2-1.8-1.5-1.6c-0.8,0.1-1.5,0.2-1.6-1.1c0-1.4,0.7-1.4,1.6-1.3
			c1.1,0.1,1.6-0.3,1.5-1.4c-0.1-1.1,0-2.1,0-3.2c0-0.9,0.1-1.5,1.3-1.4c1.2,0,1.2,0.7,1.2,1.5c0,0.5,0,1.1,0,1.6
			c0,2.7,0,2.8,2.7,2.9c1,0.1,1,0.6,1,1.3c0,0.8-0.1,1.3-1.1,1.2c-0.5-0.1-1.1,0-1.6,0c-0.8-0.1-1,0.2-1,1c0,4.8,0,9.7,0.1,14.5
			c0,1.9,1,3,3,3c0.8,0,1.4,0,1.4,1.1c0,1.2-0.6,1.3-1.5,1.3c-3.7,0.1-5.2-1.2-5.3-4.9C350.6,443.7,350.7,441.4,350.6,439
			C350.7,439,350.7,439,350.6,439z"/>
		<path class="st5" d="M389.9,430.4c2-1.7,3.8-3.2,6.3-3.3c0.8,0,1.9-0.6,2,1c0.1,1.4-0.6,1.4-1.7,1.4c-3.6,0.1-6.6,3.3-6.6,6.9
			c0,4.2,0,8.3,0,12.5c0,0.8,0.3,1.7-1.2,1.7c-1.4,0-1.3-0.7-1.3-1.7c0-6.5,0-13,0-19.5c0-0.8-0.5-1.9,1.2-1.9
			c1.6,0,1.2,0.9,1.3,1.8C389.9,429.6,389.9,429.8,389.9,430.4z"/>
		<path class="st6" d="M192.8,439.2c0,3.3,0,6.7,0,10c0,1-0.3,1.4-1.3,1.4c-1,0-1.2-0.4-1.2-1.3c0-6.8,0-13.7,0-20.5
			c0-0.9,0.2-1.3,1.2-1.3c1.1,0,1.3,0.4,1.3,1.4C192.8,432.4,192.8,435.8,192.8,439.2z"/>
		<path class="st7" d="M230.7,167.2c0-14.3-0.1-28.6-0.1-42.8c0-26.1,0-52.3-0.1-78.4c0-1.1,0.4-2.3-0.4-3.3
			c0.1-0.3,0.2-0.7,0.4-1.2c0.6,0.6,0.4,1.4,0.4,2c0.1,32.9,0.1,65.8,0.1,98.7c0,7.6,0,15.3,0,22.9
			C231.1,165.8,231.5,166.6,230.7,167.2z"/>
		<path class="st8" d="M192.8,420c0,0.9,0.3,1.9-1.2,1.9c-1.8,0-1.2-1.2-1.2-2c0-0.9-0.4-2,1.3-2C193.5,418.1,192.6,419.4,192.8,420
			z"/>
		<path class="st9" d="M117.3,438.5c0,0.9,0,1.9,0,2.8c0,3.8-2.6,6.8-6.2,7.3c-3.9,0.5-6.5-1.3-7.4-5.6c-0.7-3-0.6-6,0.4-8.9
			c0.8-2.4,2.3-4.1,4.9-4.5c3.1-0.5,5.8,0.5,8,2.8c0.4,0.4,0.3,1,0.3,1.5C117.3,435.4,117.3,437,117.3,438.5z"/>
		<path class="st9" d="M240.4,438.5c0,0.9,0,1.9,0,2.8c0,3.8-2.6,6.8-6.1,7.3c-3.9,0.5-6.5-1.4-7.4-5.6c-0.6-2.9-0.6-5.9,0.3-8.7
			c0.8-2.4,2.2-4.3,4.9-4.7c3.1-0.5,5.8,0.6,8,2.8c0.5,0.5,0.3,1,0.3,1.5C240.4,435.4,240.4,437,240.4,438.5z"/>
		<path class="st9" d="M408.5,357.1c0-3.7,0-7.4,0-11c0-1.2,0.2-1.7,1.5-1.6c2.9,0.1,5.9,0.1,8.8,0c1.2,0,1.6,0.2,1.6,1.5
			c-0.1,7.5-0.1,15,0,22.5c0,1.3-0.5,1.6-1.6,1.5c-2.8-0.1-5.6-0.1-8.4,0c-1.5,0.1-2-0.3-1.9-1.8
			C408.6,364.5,408.6,360.8,408.5,357.1C408.6,357.1,408.5,357.1,408.5,357.1z"/>
		<path class="st9" d="M350.4,366.4c0-6.7,0-13.4,0-20.1c0-1.4,0.3-1.9,1.7-1.8c2.9,0.1,5.9,0.1,8.8,0c1.3,0,1.5,0.4,1.5,1.6
			c0,13.6,0,27.2,0,40.8c0,0.9-0.2,1.3-1.2,1.3c-3.2-0.1-6.4-0.1-9.7,0c-1.4,0-1.3-0.8-1.3-1.7C350.4,379.8,350.4,373.1,350.4,366.4
			z"/>
		<path class="st9" d="M142.3,442c0,3.4-2.4,5.9-6.1,6.6c-1.3,0.2-2.6,0.2-3.8-0.1c-1.7-0.4-3.2-1.1-3.6-3.1c-0.4-2,0.2-3.7,2-4.9
			c1.8-1.2,3.8-1.5,5.9-1.7c0.8-0.1,1.6,0,2.4,0C142.3,438.8,142.3,438.8,142.3,442z"/>
		<path class="st10" d="M379,437.2c-5,0-9.8,0-14.6,0c-1,0-0.8-0.6-0.8-1.2c0.5-3.4,3.3-6.2,6.4-6.5c4-0.4,6.8,1.3,8.1,5
			C378.5,435.4,378.7,436.2,379,437.2z"/>
		<path class="st10" d="M308.4,437.2c-2.2,0-4.4,0-6.6,0c-0.9,0-1.1-0.3-1-1.2c0.8-4,3.6-6.5,7.4-6.6c4,0,6.8,2.4,7.7,6.5
			c0.2,1.1-0.2,1.2-1.1,1.2C312.7,437.2,310.6,437.2,308.4,437.2z"/>
	</g>
</g>
</svg>
