<?xml version="1.0" encoding="utf-8"?>
<!-- Generator: Adobe Illustrator 22.1.0, SVG Export Plug-In . SVG Version: 6.00 Build 0)  -->
<svg version="1.1" id="Layer_1" xmlns="http://www.w3.org/2000/svg" xmlns:xlink="http://www.w3.org/1999/xlink" x="0px" y="0px"
	 viewBox="0 0 500 500" style="enable-background:new 0 0 500 500;" xml:space="preserve">
<g>
	<g>
		<path d="M234.4,239.6c0-15.8,0-31.6,0-47.6c5.5,0,10.8,0,16.3,0c0,31.1,0,62.2,0,93.6c-0.6-0.6-1.1-1-1.6-1.5
			c-2.4-3-4.8-5.9-7.1-8.9c-2-2.6-4-5.3-6.1-7.9c-2.1-2.6-4.3-5.2-6.5-7.8c-1.4-1.7-2.8-3.5-4.1-5.2c-1.6-2-3.1-4-4.7-6
			c-2.2-2.7-4.3-5.5-6.5-8.2c-1.5-1.9-3.1-3.8-4.7-5.7c-0.9-1.1-1.8-2.3-2.7-3.5c-0.2-0.2-0.5-0.4-1-0.8c-0.1,1-0.2,1.7-0.2,2.4
			c0,14.3,0,28.5,0,42.8c0,0.7,0,1.5,0,2.3c-0.6,0.1-1.1,0.2-1.5,0.2c-4.2,0-8.4,0-12.5-0.1c-1.7,0-1.8,0-1.8,1.7
			c0,3.8,0,7.6,0,11.3c0,0.7,0,1.4,0,2.2c-18.8,0-37.4,0-56.1,0c0-0.3-0.1-0.7-0.1-1.1c0-4.7,0-9.4,0-14.1c0-1.9,0-1.9-1.9-1.9
			c-4.4,0-8.7,0-13.1,0c-1.3,0-2.2-0.4-2.9-1.6c-4.4-6.8-8.8-13.6-13.2-20.5c-0.6-0.9-1.2-1.4-2.3-1.3c-3.6,0.1-7.1,0-10.7,0
			c-2,0-2,0-2,2.1c0,6,0,11.9,0,17.9c0,1,0,2,0,3.2c-5.6,0-11.1,0-16.6,0c0-25.6,0-51,0-76.7c13.2,0,26.4,0,39.7,0
			c0-0.6,0.1-1.1,0.1-1.6c0.1-5,1.4-9.7,4.4-13.8c2.1-2.9,4.7-5.3,8-6.6c0.7-0.3,1.4-0.4,2.1-0.6c0-0.2,0-0.4-0.1-0.5
			c-1.5-2.3-1.6-5-1.2-7.6c0.3-2.1,1-4.1,2.2-6c1.9-3.1,4.1-5.9,6.7-8.3c1.1-1,2.1-2.3,3.4-2.7c1.3-0.5,3-0.4,4.3-0.1
			c1.9,0.4,3.7,1.3,5.5,2.1c3.5,1.6,5.8,4.4,6.7,8c0.5,2.1,1.2,4.5,0.1,6.8c-0.1,0.1,0.1,0.3,0.2,0.7c1.1-0.7,2.2-1.4,3.3-2.1
			c3.7-2.2,7.4-4.5,11.2-6.5c2.8-1.4,5.8-2.4,8.8-3.5c3.7-1.2,7.4-2.4,11.1-3.3c2.2-0.6,4.6-0.7,6.9-0.9c2.9-0.3,5.7-0.7,8.6-0.9
			c2.5-0.1,5.1-0.6,7.6,0.4c0.4,2.5,0,4.7-0.6,7c-1,4.1-2.8,7.8-5.4,11c-3.3,4.1-6.9,7.7-11.5,10.4c-4.8,2.8-9.8,5.2-15.1,6.8
			c-2.6,0.8-5.4,1.3-8.1,1.9c-0.9,0.2-1.8,0.3-2.7,0.5c-0.8,0.2-1.2,0.7-1,1.6c0.3,1.6,0.6,3.2,0.6,4.9c0.1,3-0.8,5.8-2.2,8.3
			c-1.6,2.8-3.7,5.2-6.5,6.9c-2.6,1.7-5.3,3.2-8.1,4.7c-0.5,0.3-1.2,0.3-1.7,0.1c-5.7-2.6-8.9-7.4-10.7-13.1c-0.8-2.4-0.7-5.1-1-7.7
			c-0.1-0.6-0.2-1.3-0.3-2.3c-6,4-12.3,6-19.1,6.6c0,0.1,0,0.3,0,0.4c0.5,0.2,1.1,0.4,1.6,0.6c1.7,0.8,3.5,1.4,5,2.5
			c2.1,1.6,4.1,3.3,5.7,5.3c2.4,2.9,4.1,6.2,4.9,10c0.1,0.4,0.7,0.8,1.2,1c0.5,0.2,1.1,0.1,1.7,0.1c15.4,0,30.8,0,46.2,0
			c0.7,0,1.5,0,2.3,0c0,5.2,0,10.2,0,15.4c-12,0-23.9,0-36.1,0c0,4.2,0,8.2,0,12.5c9.3,0,18.7,0,28.2,0c0,5.4,0,10.5,0,15.9
			c-9.4,0-18.7,0-28.1,0c-0.1,0.6-0.2,1-0.2,1.3c0,3.8,0,7.7,0,11.5c0,1.1,0.3,1.6,1.6,1.6c12.3,0,24.5,0,36.8,0
			c2.2,0,2.2,0,2.2-2.3c0-12.5,0-25,0-37.5c0-6.7-0.1-13.4-0.1-20.1c0-9.7,0.1-19.5,0.1-29.2c0-1.1,0-2.3,0.2-3.5
			c14.8,18.2,29.3,36.6,43.8,55C234,239.7,234.2,239.7,234.4,239.6z M153.7,185.2c1.2-0.2,2.2-0.4,3.1-0.5c0.5-0.1,1,0,1.5-0.1
			c2.1-0.4,4.1-0.8,6.2-1.3c2.7-0.6,5.4-1,8-1.9c4.7-1.6,9.4-3.3,13.8-5.9c3.7-2.2,7-4.6,9.9-7.8c2.1-2.3,3.6-4.8,4.6-7.7
			c0.2-0.5,0.4-1,0.7-1.8c-2.6,0.2-4.7,0.4-6.8,0.6c-2.7,0.3-5.4,0.6-8,1c-0.8,0.1-1.5,0.2-2.3,0.4c-2.7,0.8-5.5,1.7-8.2,2.5
			c-5,1.5-9.7,3.7-14,6.6c-3.2,2.2-6.4,4.5-9.3,7c-3.3,2.9-6.1,6.2-8.3,10c-1.5,2.6-2.5,5.3-2.4,8.2c0,1.9,0.4,3.9,1.1,5.6
			c1.1,3,3,5.4,5.4,7.5c0.3,0.2,1.1,0.2,1.5,0c2.1-1.7,4.3-3.4,6.2-5.3c3.3-3.1,3.3-9.4,0.9-12.6C156.3,188.3,155.1,187,153.7,185.2
			z M87.4,235.9c0.9,0.1,1.8,0.2,2.7,0.2c5.5,0,11,0,16.5,0c2.2,0,4.3-0.6,6.2-1.6c1.9-1,3.3-2.4,4.3-4.4c0.9-1.9,1-3.9,0.7-5.9
			c-0.2-1.7-0.7-3.6-1.7-4.9c-2.2-3.1-5.5-4.5-9.3-4.6c-6-0.1-12,0-18,0c-1.6,0-1.6,0-1.6,1.6c0,6,0,12,0,18
			C87.3,234.8,87.3,235.3,87.4,235.9z M135.2,179.3c0,0.1-0.1,0.2-0.1,0.3c-0.4,0-0.9,0-1.3,0.1c-2.3,0.3-4.8,0.4-7,1.1
			c-2.2,0.7-4.1,2.2-5.8,3.9c-1.8,1.9-2.5,4.2-3.4,6.4c-0.6,1.4,0,2.1,1.3,1.9c2.4-0.3,4.8-0.8,7-1.6c2.2-0.8,4.3-2,6.4-3.1
			c3.8-2,6.7-5.2,9.1-8.6c2.6-3.8,4.5-8,5.2-12.6c0.3-1.7,0-3.3-0.7-4.8c-1.3-3-3.6-4.7-6.6-5.8c-0.9-0.3-1.4-0.3-2.2,0.3
			c-2.4,1.8-4.6,3.9-6.3,6.4c-2,2.9-2.9,6-1.8,9.5c0.6,1.7,1.7,3,3.1,4.1C133.2,177.7,134.2,178.5,135.2,179.3z M133.2,235.3
			c-4.5,6-2.9,5.5-14.4,13c0.3,0.6,0.6,1.3,1,1.9c1,1.5,2,2.9,3,4.3c0.9,1.4,1.8,2.9,2.8,4.2c1.8,2.6,3.7,5.2,5.6,7.8
			c0.5,0.7,1.1,1.3,1.7,2c0.1-0.1,0.2-0.1,0.3-0.2C133.2,257.3,133.2,246.3,133.2,235.3z"/>
		<path d="M402.2,289.4c-1.6-2.2-3.2-4.4-4.8-6.6c-2.4-3.2-4.7-6.5-7.1-9.7c-1.7-2.3-3.3-4.7-5-7.1c-1.9-2.7-3.9-5.3-5.8-7.9
			c-1.7-2.3-3.3-4.6-4.9-6.9c-1.9-2.6-3.8-5.2-5.7-7.8c-1.3-1.7-2.4-3.5-3.7-5.3c-2.1-3-4.3-6-6.4-9c-0.1-0.2-0.4-0.3-1-0.6
			c0,17.6,0,35,0,52.5c-5.4,0-10.5,0-15.8,0c0-34.4,0-68.8,0-103.4c14.8,20.4,29.2,40.9,43.9,61.2c0.2-0.1,0.4-0.1,0.5-0.2
			c0-14.3,0-28.6,0-43c5.4,0,10.4,0,15.8,0c0,4.5,0.1,8.9,0.1,13.2c0.1,0,0.3,0,0.4,0.1c0.2-0.2,0.4-0.3,0.5-0.6
			c1.6-4.3,4-8.2,7-11.8c2.5-3,5.6-5.5,8.7-7.7c1.6-1.2,3.5-2,5.4-2.7c2.3-1,4.7-1.9,7.1-2.6c1.8-0.5,3.8-0.8,5.7-0.9
			c2.3-0.1,4.6,0,6.9,0c3.1,0,6.2,0.2,9.2,1.4c2.3,0.9,4.9,1.3,7.1,2.4c3.3,1.7,6.5,3.4,9.1,6.1c0.9,0.9,1.7,1.8,2.6,2.6
			c4.1,3.9,6.8,8.8,8.7,14c0.9,2.3,1.2,4.6,1.7,7c0.7,3.1,0.4,6.3,0.4,9.4c0,5.5-1.5,10.6-4,15.5c-1.2,2.3-2.6,4.6-4.1,6.8
			c-2,2.7-4.3,5.1-7.1,7c-2.4,1.6-4.6,3.3-7.1,4.5c-3.6,1.7-7.4,3.2-11.5,3.4c-4.2,0.2-8.3,0.6-12.5,0.5c-2.5-0.1-5.1-1-7.5-1.7
			c-5.5-1.4-10.2-4.4-14.5-8c-4.1-3.5-7.3-7.5-9.6-12.4c-0.7-1.4-1.4-2.8-2.4-4.3c-0.1,0.5-0.2,1-0.2,1.4c0,16.8,0,33.6,0,50.4
			c0,0.3,0,0.6,0,0.9C402.4,289.3,402.3,289.4,402.2,289.4z M442.1,246.7c0,0.1,0,0.3,0,0.4c2.2-0.4,4.5-0.5,6.6-1.2
			c2.5-0.9,4.9-2.2,7-3.7c3-2.1,5.5-4.8,7.1-8.1c1.3-2.6,2.1-5.3,2.7-8.2c0.6-3.5,0.1-6.8-0.9-10c-1.7-5.2-4.7-9.5-9.2-12.7
			c-3-2.2-6.3-3.8-9.9-4.1c-3.8-0.3-7.6-0.3-11.4,1.2c-4.8,1.9-8.4,5-11.3,9c-3.2,4.3-4.5,9.2-4.5,14.5c0,1.4,0.4,2.9,0.7,4.3
			c1.3,5.9,4.5,10.6,9.1,14.2C432.2,245.1,436.7,247.3,442.1,246.7z"/>
		<path d="M40.2,275.5c0-28.9,0-57.8,0-86.9c-7.7,0-15.2,0-22.8,0c0-5.9,0-11.6,0-17.3c21,0,41.8,0,62.8,0c0,5.7,0,11.3,0,17.2
			c-3.7,0.2-7.3,0.1-10.9,0.1c-3.7,0-7.3,0-11.2,0c0,29,0,57.9,0,86.9C52.1,275.5,46.4,275.5,40.2,275.5z"/>
		<path d="M293.4,293.8c-5.7,0-11.2,0-16.9,0c0-0.8-0.1-1.6-0.1-2.5c0-23.4,0-46.8,0-70.3c0-0.5,0-0.9,0-1.4c0.1-1-0.4-1.4-1.3-1.3
			c-0.5,0-1,0-1.5,0c-5.7,0-11.5,0-17.2,0c-0.5,0-1,0-1.6,0c-0.1-0.5-0.2-0.8-0.2-1.2c0-4.4,0-8.7,0-13.1c0-2.1,0-2.1,2.1-2.1
			c8.8,0,17.5,0,26.3,0c10.2,0,20.4,0,30.6,0c2,0,2,0,2,2c0,4.2,0,8.5,0,12.7c0,0.5-0.1,1-0.2,1.7c-1.3,0-2.6,0-3.8,0
			c-5.3,0-10.7,0-16,0c-1.9,0-2,0.1-2,2.1c0,23.8,0,47.5,0,71.3C293.5,292.3,293.5,293,293.4,293.8z"/>
		<path d="M335,281.1c-5.3,0-10.5,0-15.8,0c0-26.4,0-52.6,0-79.1c5.2,0,10.5,0,15.8,0C335,228.4,335,254.7,335,281.1z"/>
		<path d="M130.8,343.6c-2.6,0-5,0-7.8,0c0-7,0-13.9,0-20.8c-0.2,0-0.3,0-0.5-0.1c-0.2,0.3-0.3,0.6-0.5,0.9c-1.7,3-3.4,6.1-5,9.1
			c-0.5,0.9-1,1.5-2.1,1.1c-0.1,0-0.1,0-0.2,0c-2.9,0.8-4-1.2-5-3.2c-1.4-2.7-2.7-5.3-4.1-8c-0.1,0-0.3,0-0.4,0
			c-0.1,0.5-0.3,1-0.2,1.4c0.1,0.9,0.4,1.7,0.4,2.6c0,5,0,10,0,14.9c0,0.6-0.1,1.2-0.1,1.9c-2.8,0-5.4,0-8.2,0c0-11.1,0-22.2,0-33.4
			c2.6,0,5.1,0,7.6,0c0.4,0,0.9,0.4,1.1,0.8c2,3.5,3.9,7.1,5.9,10.6c0.5,1,1.1,2,1.7,2.9c0.5,0.7,1,0.6,1.4-0.2c1-1.9,2-3.8,3-5.7
			c1.4-2.6,2.8-5.2,4.3-7.7c0.2-0.3,0.7-0.7,1-0.7c2.5-0.1,5,0,7.7,0C130.8,321.3,130.8,332.4,130.8,343.6z"/>
		<path d="M256.2,343.6c-2.6,0-5.1,0-7.9,0c0-6.8,0-13.6,0-20.3c-0.2-0.1-0.4-0.1-0.6-0.2c-0.9,1.7-1.8,3.3-2.7,5
			c-0.9,1.7-1.8,3.4-2.8,5.1c-0.7,1.2-5.2,0.9-5.9-0.4c-1.6-3.1-3.2-6.2-4.8-9.2c-0.1-0.2-0.2-0.3-0.3-0.4c-0.1,0-0.3,0-0.4,0
			c-0.1,0.4-0.3,0.8-0.3,1.3c0,5.8,0,11.6,0,17.4c0,0.6-0.1,1.1-0.1,1.8c-2.8,0-5.4,0-8.2,0c0-0.9,0-1.8,0-2.7c0-9.5,0-19,0-28.5
			c0-2.2,0-2.2,2.2-2.2c1.7,0,3.4,0,5.2,0c0.9,0,1.4,0.2,1.9,1.1c2.3,4.4,4.7,8.8,7,13.2c0.2,0.4,0.5,0.7,1,1.3
			c0.4-0.8,0.6-1.4,0.9-2c2.1-3.9,4.3-7.9,6.4-11.8c0.6-1.2,1.4-1.9,2.9-1.8c2,0.1,4.1,0,6.3,0C256.2,321.3,256.2,332.4,256.2,343.6
			z"/>
		<path d="M267.1,310.2c2.9,0,5.4,0,8,0c0.4,0,0.9,0.5,1.1,0.9c1.3,2.4,2.5,5,3.9,7.4c1.3,2.3,2.6,4.6,4.1,7.2
			c0.9-1.7,1.6-3.2,2.4-4.5c1-1.5,1.7-3.1,2.6-4.7c0.9-1.6,1.7-3.2,2.5-4.9c0.6-1.1,1.4-1.6,2.7-1.5c2.1,0.1,4.2,0,6.4,0
			c0,11.2,0,22.2,0,33.4c-2.5,0-5,0-7.7,0c-0.1-0.5-0.2-1-0.2-1.6c0-5.9,0-11.8,0-17.7c0-0.5-0.1-1.1-0.2-1.6c-0.1,0-0.2,0-0.4,0
			c-1,1.9-1.9,3.8-2.9,5.7c-0.8,1.6-1.7,3.1-2.6,4.6c-0.2,0.3-0.5,0.8-0.8,0.8c-1.4,0.1-2.7,0.2-4.1,0.1c-0.5,0-1-0.7-1.2-1.2
			c-1.6-3-3.1-6.1-4.7-9.1c-0.1-0.1-0.3-0.2-0.7-0.4c-0.6,1.4-0.1,2.7-0.2,4c-0.1,1.4,0,2.7,0,4.1c0,1.3,0,2.6,0,4
			c0,1.4,0,2.7,0,4.1c0,1.4,0,2.7,0,4.4c-2.6,0-5,0-7.4,0c-0.3,0-0.6-0.4-0.7-0.8c-0.1-0.4-0.1-0.9-0.1-1.4c0-9.7,0-19.5,0-29.2
			C267.1,311.7,267.1,311.1,267.1,310.2z"/>
		<path d="M460.5,322.7c-0.6,1.2-0.2,2.6-0.2,3.9c-0.1,1.4,0,2.9,0,4.3c0,1.4,0,2.7,0,4.1c0,1.4,0,2.9,0,4.3c0,1.4,0,2.7,0,4.2
			c-2.5,0-4.8,0-7.3,0c0-11,0-22.1,0-33.4c2.7,0,5.3,0,8,0c0.3,0,0.8,0.5,1,0.8c1.1,1.7,2.1,3.5,3.1,5.2c1.8,3.1,3.6,6.1,5.3,9.2
			c1,1.8,1.9,3.6,2.9,5.5c0.8-0.8,0.5-1.8,0.4-2.7c-0.1-0.9-0.3-1.8-0.3-2.7c0-4.4,0-8.8,0-13.2c0-0.6,0-1.3,0-2.2
			c2.4,0,4.8,0,7.1,0c0.3,0,0.6,0.4,0.7,0.7c0.1,0.4,0.1,0.8,0.1,1.2c0,9.9,0,19.7,0,29.6c0,0.6,0,1.1,0,2c-1,0-1.9,0-2.7,0
			c-1.4,0-2.8-0.1-4.1,0c-1.7,0.2-2.4-0.6-3.1-2c-1.7-3.1-3.6-6.2-5.3-9.3c-1.5-2.7-2.9-5.5-4.3-8.3c-0.3-0.5-0.5-1-0.7-1.5
			C460.8,322.7,460.7,322.7,460.5,322.7z"/>
		<path d="M414.5,327.1c0.2-2.4,0-4.9,0.6-7.3c0.6-2.3,1.2-4.6,3-6.5c1.8-1.8,3.9-3,6.3-3.6c1.9-0.5,4-0.8,6-0.6
			c3.6,0.4,7.3,0.9,10,3.9c1.9,2.1,2.6,4.6,3.3,7.4c0.8,3.5,0.5,6.9,0.4,10.3c-0.1,3.6-0.9,7.1-3.6,9.9c-1.8,1.9-4.1,2.9-6.7,3.4
			c-1.4,0.3-2.9,0.7-4.3,0.6c-3.6-0.2-7.2-0.8-10.1-3.1c-1.8-1.4-2.7-3.5-3.5-5.6C414.5,333.1,414.6,330.1,414.5,327.1z
			 M435.8,326.9c-0.2-2.1-0.3-4.2-0.6-6.3c-0.4-2.7-1.9-4.4-4.6-4.7c-2.8-0.4-5.6,0.5-6.7,3.8c-0.7,2.2-0.8,4.5-0.7,6.7
			c0.1,2.2,0.1,4.3,0.4,6.4c0.4,2.7,3,5,5.6,5.2c2.5,0.2,5.6-2.2,6-4.9C435.5,331.1,435.6,329,435.8,326.9z"/>
		<path d="M185.4,326.6c0-1.2,0-2.4,0-3.6c0.2-4.1,1.4-7.8,4.5-10.8c1.5-1.4,3.3-2,5.1-2.5c1.9-0.5,3.9-0.8,5.9-0.6
			c2.4,0.2,5,0.7,7.2,1.7c2.5,1.1,4.3,3.4,5.3,6.1c1.4,4,1.7,8.1,1.4,12.2c-0.3,3.3-0.4,6.8-2.6,9.7c-1.2,1.5-2.4,2.9-4.2,3.8
			c-2.7,1.4-5.6,2.1-8.5,1.9c-3.9-0.3-7.9-1-10.7-4.3c-1.4-1.6-2.4-3.5-2.7-5.6c-0.5-2.7-0.6-5.4-0.9-8.1
			C185.2,326.7,185.3,326.6,185.4,326.6z M206.7,326.3c-0.2-1.3-0.6-3-0.7-4.7c-0.3-3.5-2.7-6-6.1-5.8c-3.7,0.1-5.7,2.4-5.9,6.2
			c-0.2,3.1-0.1,6.2,0,9.3c0,3.2,1.9,5.6,4.9,6.4c2.4,0.7,5.1-0.4,6.2-2.6C206.3,332.5,206.3,329.6,206.7,326.3z"/>
		<path d="M330.9,343.6c0-1.9,0-3.6,0-5.5c2.5,0.1,5-0.4,7.5,0.4c1.3,0.4,2.8-0.2,4.2-0.3c0.6-0.1,1.2-0.1,1.8-0.3
			c1.3-0.6,2.1-1.7,2-3.1c-0.1-1.4-0.8-2.6-2.2-3.2c-2.7-1.2-5.4-2.4-8.1-3.6c-3.2-1.4-5.2-3.6-6.3-6.9c-1.4-4.3,1.2-9.3,5.5-10.7
			c3.4-1.1,6.8-1.5,10.2-1.2c2.5,0.2,5,0.8,7.6,1.2c0,1.8,0,3.5,0,5.4c-1.6-0.1-3.1,0.5-4.6-0.4c-0.2-0.1-0.6-0.2-0.8-0.2
			c-2.6,0.2-5.2-0.5-7.7,0.6c-1.1,0.4-1.6,1-1.7,2c-0.2,1.2,0.1,2.4,1.3,2.9c2.3,1,4.8,1.8,7,3c2.5,1.4,5.4,2.3,7.1,5
			c2.9,4.6,1.5,13.5-5.8,14.9c-2.4,0.5-4.8,1.3-7.3,1c-2.5-0.3-4.9-0.6-7.4-0.9C332.5,343.7,331.7,343.6,330.9,343.6z"/>
		<path d="M385.2,310.3c0,1.9,0,3.6,0,5.5c-1.6-0.1-3,0.3-4.5-0.4c-0.9-0.4-2.1-0.2-3.2-0.2c-1.8,0-3.5-0.1-5.3,0.7
			c-1.1,0.5-1.6,1.1-1.7,2.2c-0.1,1.1,0,2.1,1.1,2.6c1.9,0.9,3.8,1.7,5.8,2.5c2.6,1.2,5.3,2.1,7.3,4.2c2.2,2.3,3.3,6.2,2.2,9.5
			c-0.4,1-0.5,2.1-1.2,3.1c-1.8,2.8-4.5,3.7-7.6,4.2c-1.3,0.2-2.7,0.6-4,0.5c-3-0.2-5.9-0.6-8.9-0.9c-0.7-0.1-1.4-0.1-2.2-0.1
			c0-1.8,0-3.6,0-5.6c2.5,0.3,4.9-0.3,7.4,0.4c2.4,0.6,5.1,0.4,7.2-1.4c2-1.7,1.2-4.4-0.9-5.2c-3-1.3-6.1-2.6-9-4
			c-2.7-1.3-4.9-3.3-5.5-6.4c-0.6-3-0.3-6,1.5-8.6c1.4-1.9,3.6-2.6,5.8-3c2.5-0.5,5.2-0.7,7.7-0.6
			C379.8,309.3,382.4,309.9,385.2,310.3z"/>
		<path d="M40,316.2c-1,0-2,0-3,0c-3.3,0-6.5,0.1-9.8,0c-1.2,0-1.6,0.5-1.5,1.6c0.1,1.8,0,3.6,0,5.7c4.6,0,9,0,13.5,0
			c0,2,0,3.8,0,5.8c-1.9,0-3.6,0-5.4,0c-2,0-4,0-6,0c-2.1,0-2.1,0-2.1,2.1c0,3.4,0,6.9,0,10.3c0,0.6,0,1.2,0,2c-2.8,0-5.5,0-8.3,0
			c0-11.1,0-22.1,0-33.3c7.5,0,15,0,22.6,0C40,312.1,40,314,40,316.2z"/>
		<path d="M178.4,316.3c-1.6-0.1-3.1-0.4-4.7-0.4c-3.3-0.1-6.8-0.9-9.4,2.2c-0.3,0.4-0.6,0.9-0.8,1.5c-1.4,3.6-1,7.4-0.9,11.1
			c0,1.3,0.6,2.7,1.2,4c0.8,1.8,2.3,2.6,4.3,3.1c2.8,0.6,5.4-0.4,8.2-0.1c2,0.2,2,0,2,2c0,1.3,0,2.5,0,4c-1.4,0.2-2.9,0.3-4.4,0.5
			c-1.8,0.2-3.6,0.7-5.4,0.5c-3.6-0.4-7.3-0.7-10.2-3.1c-1.6-1.3-2.7-3.1-3.2-5.1c-1.5-5-0.9-10.2-0.7-15.3c0.1-3.2,1.1-6.3,3.7-8.7
			c1.7-1.5,3.7-2.4,5.8-2.7c2.4-0.4,4.9-0.6,7.4-0.5c2,0,4,0.7,6,0.9c1,0.1,1.2,0.7,1.2,1.5C178.4,313,178.4,314.5,178.4,316.3z"/>
		<path d="M88.5,343.6c-7.3,0-14.4,0-21.6,0c0-11.1,0-22.1,0-33.3c2.7,0,5.4,0,8.2,0c0,8.9,0,17.7,0,26.9c4.6,0,8.9,0,13.4,0
			C88.5,339.4,88.5,341.4,88.5,343.6z"/>
		<path d="M312.7,310.2c2.7,0,5.4,0,8.2,0c0,11.1,0,22.2,0,33.3c-2.8,0-5.4,0-8.2,0C312.7,332.5,312.7,321.5,312.7,310.2z"/>
		<path d="M396.5,310.2c2.8,0,5.4,0,8.2,0c0,11.1,0,22.1,0,33.3c-2.7,0-5.4,0-8.2,0C396.5,332.5,396.5,321.5,396.5,310.2z"/>
		<path d="M47.8,310.2c2.7,0,5.3,0,8,0c0,11.1,0,22.2,0,33.3c-2.7,0-5.3,0-7.9,0C47.5,342.3,47.4,312.5,47.8,310.2z"/>
		<path d="M156.7,160c-0.3-3.2,0.2-6.3-1.4-9.3c6.2,0,12.3,0,18.3,0C167.7,153.1,161.7,155.6,156.7,160z"/>
	</g>
</g>
</svg>
