<?xml version="1.0" encoding="utf-8"?>
<!-- Generator: Adobe Illustrator 22.1.0, SVG Export Plug-In . SVG Version: 6.00 Build 0)  -->
<svg version="1.1" id="Layer_1" xmlns="http://www.w3.org/2000/svg" xmlns:xlink="http://www.w3.org/1999/xlink" x="0px" y="0px"
	 viewBox="0 0 500 500" style="enable-background:new 0 0 500 500;" xml:space="preserve">
<g>
	<g>
		<path d="M30.2,148.9c0.6-0.4,1.2-0.7,1.7-1.2c6.3-6.1,12.6-12.3,18.9-18.4c8.1-7.9,16.2-15.7,24.3-23.6c0.8-0.8,1.6-1.1,2.7-1.1
			c5.2,0.1,10.4,0.1,15.6,0.2c1.2,0,1.9-0.3,2.5-1.4c2.5-4.4,5.1-8.8,7.6-13.2c0.6-1,1.3-1.5,2.4-1.8c19.7-5.1,39.3-10.2,58.9-15.4
			c0.6-0.2,1.2-0.3,1.9-0.5c0.2,0.4,0.4,0.9,0.5,1.3c5.4,19.4,10.7,38.8,16.1,58.2c0.3,0.9,0.2,1.7-0.4,2.6
			c-2.6,4.2-5.1,8.4-7.7,12.7c-0.3,0.6-0.7,1.2-1.1,1.8c0.3,0.5,0.6,1.1,0.9,1.6c2.6,4.2,5.1,8.5,7.7,12.7c0.6,1,0.8,1.9,0.5,3.1
			c-5.3,19.1-10.6,38.2-15.8,57.3c-0.2,0.6-0.3,1.1-0.6,1.8c-0.6-0.1-1-0.1-1.5-0.3c-19.9-5.2-39.8-10.4-59.7-15.5
			c-1-0.3-1.7-0.8-2.2-1.7c-2.5-4.4-5.1-8.7-7.6-13.1c-0.6-1-1.2-1.4-2.5-1.4c-5.2,0.1-10.4,0-15.6,0.1c-1.1,0-1.9-0.3-2.7-1.1
			c-14.5-14.1-29-28.2-43.5-42.3c-0.4-0.4-1-0.7-1.4-1C30.2,149.1,30.2,149,30.2,148.9z M62.8,156.6c-0.1,0.1-0.1,0.2-0.2,0.4
			c0.4,0.5,0.9,0.9,1.3,1.4c10.4,10.4,20.9,20.7,31.3,31.1c0.9,0.9,2,1.5,3.3,1.8c14.6,3.6,29.2,7.3,43.8,10.9
			c0.5,0.1,1,0.1,1.7,0.3c-0.4-0.8-0.7-1.3-1-1.8c-8.4-14.1-16.8-28.2-25.1-42.4c-0.7-1.3-1.5-1.7-3-1.7c-16.8,0.1-33.6,0-50.4,0
			C64,156.6,63.4,156.6,62.8,156.6z M144.2,95.6c-0.9,0.1-1.2,0.2-1.6,0.2c-14.8,3.7-29.7,7.4-44.5,11.1c-1,0.2-1.8,0.7-2.5,1.4
			c-10.7,10.6-21.4,21.2-32.1,31.9c-0.3,0.3-0.6,0.7-1,1.2c18.3,0,36.3,0,54.4,0C126,126.3,135,111.1,144.2,95.6z M157.7,195
			c0.3-0.7,0.4-1.1,0.5-1.4c4.2-14.5,8.3-29,12.5-43.4c0.3-0.9,0.2-1.7-0.1-2.5c-4.1-14.2-8.1-28.4-12.2-42.6
			c-0.2-0.6-0.4-1.1-0.7-2c-9.2,15.5-18.2,30.7-27.3,45.9C139.5,164.3,148.5,179.5,157.7,195z"/>
		<path d="M400.7,200.5c0-4.3,0-8.4,0-12.6c0.5-0.1,1-0.1,1.4-0.2c1.5,0,3.1,0,4.6,0c0.8,0,1.6-0.1,2.4-0.2c4.1-0.8,6.3-3.3,6.3-7.5
			c0-2-0.3-4.2-0.9-6.1c-2-6.2-4.2-12.3-6.5-18.4c-4.2-11.4-8.6-22.7-12.9-34.1c-0.2-0.6-0.4-1.2-0.6-2c5.4,0,10.6,0,16,0
			c2.4,6.6,4.8,13.4,7.3,20.1c2.5,6.7,4.7,13.5,6.7,20.4c3.4-13.8,8.5-27,12.6-40.5c5.4,0,10.6,0,16.1,0c-0.2,0.7-0.4,1.2-0.5,1.8
			c-7,20.5-14.1,40.9-21.1,61.4c-1,2.9-2.3,5.8-3.6,8.6c-3.1,6.2-8.3,9.3-15.1,9.4c-3.7,0.1-7.3,0.1-11,0.1
			C401.4,200.6,401.1,200.6,400.7,200.5z"/>
		<path d="M329.7,180.5c-5.2,0-10,0-15.1,0c0-0.8,0-1.5,0-2.2c0-11.7,0-23.4,0-35.2c0-1.3-0.1-2.6-0.5-3.8c-1.3-4.2-4.3-6.6-8.6-7.3
			c-7.7-1.3-13.8,3.3-14.8,11c-0.2,1.3-0.3,2.7-0.3,4c0,10.4,0,20.8,0,31.1c0,0.7,0,1.4,0,2.3c-5.1,0-10,0-15,0
			c0-20.4,0-40.7,0-61.1c4.9,0,9.7,0,14.6,0c0,2.7,0,5.3,0,7.8c0.1,0,0.2,0.1,0.3,0.1c0.3-0.4,0.7-0.8,1-1.2c4-5.5,9.3-8.2,16-8.5
			c11.4-0.4,19.9,6.5,21.8,17.7c0.3,1.7,0.4,3.4,0.4,5.1c0,12.7,0,25.4,0,38.1C329.7,179.2,329.7,179.8,329.7,180.5z"/>
		<path d="M214.2,119.3c5.1,0,9.9,0,15,0c0,0.7,0.1,1.4,0.1,2.1c0,11.8,0,23.6,0,35.4c0,1.2,0.1,2.3,0.3,3.5
			c0.8,4.3,3.4,6.9,7.7,7.8c2.4,0.5,4.9,0.5,7.2-0.3c4.6-1.5,6.9-5,7.8-9.5c0.3-1.4,0.4-2.8,0.4-4.2c0-10.8,0-21.6,0-32.4
			c0-0.7,0-1.4,0-2.3c5,0,9.9,0,14.7,0c0.4,1.3,0.6,56.6,0.2,60.8c-1.3,0.4-12,0.5-14.3,0.1c0-2.1,0-4.3,0-6.9
			c-0.6,0.6-1,0.9-1.3,1.2c-5.1,6.5-12,8.2-19.8,7.4c-2.4-0.2-4.7-0.8-6.9-1.8c-6.3-2.9-9.6-8.1-10.8-14.7c-0.3-1.8-0.4-3.6-0.4-5.5
			c0-12.9,0-25.9,0-38.8C214.2,120.7,214.2,120.1,214.2,119.3z"/>
		<path d="M251.3,267.6c0.1-2.3,0.3-4.3,0.4-6.5c2.6,0,5.2,0,7.9,0c0,1.7,0,3.3,0,5c0,1.2-0.2,2.3-0.2,3.5c0,11.4,0,22.8,0,34.3
			c0,3.8-0.3,7.5-1.2,11.2c-1.2,5.2-3.7,9.5-8.3,12.5c-3,1.9-6.2,3-9.7,3.5c-5.7,0.8-11.3,0.5-16.8-1.1c-1.9-0.6-3.8-1.3-5.5-2.6
			c0.8-2.3,1.5-4.5,2.3-6.9c1.4,0.6,2.6,1.3,3.9,1.8c4.8,1.9,9.8,2.6,14.9,1.6c6-1.1,9.5-4.9,10.9-10.7c0.3-1.4,0.5-2.8,0.6-4.1
			c0.1-2.1,0-4.1,0-6.5c-0.5,0.5-0.8,0.7-1,1c-3.4,4.3-7.9,6.3-13.3,6.5c-3.4,0.1-6.7-0.2-9.8-1.7c-4.7-2.3-8.2-5.8-10.2-10.6
			c-3.9-9.6-3.4-19,2-27.9c3.1-5.1,7.8-8.5,13.7-9.5c5.7-1,11.2-0.4,15.9,3.5C248.9,264.7,249.9,266.1,251.3,267.6z M250.5,284.8
			c-0.1-2-0.3-3.9-0.3-5.9c-0.2-4.6-3.6-9.8-8.9-11.4c-6.4-2-13.2,1-16.1,7.4c-2.9,6.4-3.2,13-0.5,19.5c2.2,5.3,6.2,8.2,12.1,8.4
			c6.4,0.3,12.2-4.4,13.3-11.2C250.4,289.4,250.4,287.1,250.5,284.8z"/>
		<path d="M365.5,100.3c5.1,0,9.9,0,14.9,0c0,6.3,0,12.5,0,18.9c3.2,0,6.3,0,9.5,0c0,3.7,0,7.2,0,10.9c-3.1,0-6.1,0-9.3,0
			c-0.1,0.6-0.2,1.1-0.2,1.5c0,10.2,0,20.4,0,30.6c0,0.5,0,1,0.1,1.5c0.2,2.7,1.7,4.3,4.3,4.7c1.7,0.2,3.5,0.2,5.4,0.3
			c0,3.9,0,7.7,0,11.8c-1.6,0.1-3.2,0.2-4.8,0.2c-3.1,0.1-6.2,0.1-9.3-0.7c-6.8-1.7-10.7-6.4-10.7-13.4c-0.1-11.4,0-22.7,0-34.1
			c0-0.7,0-1.4,0-2.4c-2.8,0-5.5,0-8.4,0c0-3.7,0-7.2,0-10.9c2.8,0,5.4,0,8.3,0C365.5,112.9,365.5,106.6,365.5,100.3z"/>
		<path d="M416.9,261c2.7,0,5.2,0,8,0c0.2,2.6,0.3,5.1,0.5,7.9c0.4-0.4,0.7-0.6,0.9-0.9c7.1-10.8,26.2-11.9,33.9,2.1
			c3.1,5.6,3.9,11.6,3.4,17.9c-0.3,3.5-1,6.9-2.4,10.1c-3.8,8.6-11.6,13.5-21,13.1c-5.4-0.3-10-2.3-13.3-6.7
			c-0.1-0.2-0.3-0.3-0.7-0.8c0,9.1,0,17.7,0,26.5c-3,0-5.8,0-8.9,0c0-0.7-0.1-1.4-0.1-2.1c0-15.5,0-30.9,0-46.4
			c0-5.7-0.2-11.5-0.3-17.2C416.9,263.4,416.9,262.3,416.9,261z M454.7,286.2c0-5.3-0.9-9.8-3.7-13.6c-4.5-6.2-13.1-7.4-19.1-2.6
			c-3.2,2.6-5.2,6-5.5,10c-0.3,4-0.2,8-0.1,12c0.1,3.5,1.9,6.4,4.5,8.7c5.8,5.3,17.1,4.9,21.6-4.6
			C454.1,292.8,454.7,289.2,454.7,286.2z"/>
		<path d="M364.3,377.3c8,0,14.7,2.7,19.6,9.1c2.8,3.6,4.3,7.8,5,12.2c0.8,5.4,0.5,10.9-1.3,16.1c-3.2,8.9-9.5,14.1-18.6,16
			c-5.1,1.1-10.1,0.8-14.9-1.1c-7-2.8-11.7-7.9-14-15c-2.3-7.1-2.2-14.4,0.4-21.4c3.8-9.9,11.2-15.1,21.6-16
			C362.8,377.3,363.6,377.3,364.3,377.3z M348,403.3c0.1,1.5,0.1,3,0.3,4.6c0.5,4.1,1.8,7.8,4.5,11c2.8,3.4,6.4,5.3,10.8,5.3
			c4.8,0.1,8.6-2,11.5-5.7c2.5-3.2,3.8-6.9,4.2-11c0.6-5.7-0.2-11.2-3.2-16.2c-2.1-3.5-5.1-5.9-9.2-6.6c-7-1.3-13.1,1.8-16.3,8.3
			C349,396.3,348.3,399.7,348,403.3z"/>
		<path d="M236.5,406.1c-12.2,0-24.2,0-36.4,0c0.1,1,0.1,1.7,0.1,2.5c0.8,9,7.2,15.1,16.3,15.4c5.3,0.2,10.5-0.4,15.4-2.5
			c0.7,1.1,1.6,4.4,1.8,6.7c-1.9,1.1-4.1,1.6-6.3,2.1c-5.4,1.2-10.9,1.6-16.4,0.6c-9.8-1.7-16.2-7.3-18.8-16.9
			c-2.1-7.7-1.6-15.3,1.6-22.6c3.4-7.6,9.1-12.4,17.4-13.8c3.8-0.6,7.7-0.5,11.4,0.7c4.4,1.4,7.9,4.2,10.2,8.1
			C236.4,392.4,237.4,398.9,236.5,406.1z M227.5,399.2c0.3-3.7-1-8-3-10.7c-4.2-5.4-13.2-6.1-18.5-1.2c-3.4,3-5,7-5.6,11.4
			c0,0.1,0.1,0.3,0.2,0.5C209.5,399.2,218.4,399.2,227.5,399.2z"/>
		<path d="M292.6,430.3c-2.8,0-5.4,0-8,0c-0.4,0-0.8-0.1-1.4-0.1c0-0.7,0-1.4,0-2c0-9.1,0-18.2,0-27.3c0-2.1-0.2-4.3-0.7-6.3
			c-2.3-11.1-14.1-11.2-19.7-6c-3.4,3.1-4.8,6.9-4.8,11.4c0,9.3,0,18.7,0,28c0,0.7,0,1.4,0,2.3c-3.2,0-6.2,0-9.4,0
			c-0.2-17.2,0.2-34.3-0.3-51.5c1.3-0.4,2.7-0.2,4.1-0.2c1.3,0,2.7,0,4.2,0c0.2,2.7,0.4,5.4,0.6,8c0.1,0,0.2,0,0.3,0.1
			c0.2-0.3,0.5-0.7,0.7-1c5.6-8.1,15.9-9.8,23.3-6.8c5.8,2.4,9,6.9,10.4,12.8c0.5,2.1,0.8,4.3,0.8,6.5c0.1,10.3,0,20.6,0,31
			C292.6,429.2,292.6,429.6,292.6,430.3z"/>
		<path d="M301.9,285.8c0.1-5.6,1.3-10.9,4.4-15.7c4.1-6.2,10-9.5,17.4-10.2c3-0.3,6-0.2,8.9,0.5c7.5,1.9,12.8,6.5,15.6,13.7
			c2.8,7.4,2.8,15-0.1,22.4c-3.2,8.2-9.5,12.8-18,14.3c-4.5,0.8-9,0.5-13.3-1.2c-8.1-3.2-12.5-9.4-14.1-17.8
			C302.2,289.8,302.1,287.8,301.9,285.8z M311.1,285.4c0.1,1,0.1,2.1,0.2,3.1c0.5,4.3,1.9,8.2,4.8,11.4c4.1,4.5,10.4,5.7,15.7,3.1
			c3-1.6,5.2-4,6.7-7c2.4-4.9,2.9-10,1.9-15.3c-0.6-3.3-1.8-6.3-3.8-9c-2.6-3.3-6-5-10.1-5c-6.4-0.1-10.7,3.1-13.3,8.8
			C311.7,278.6,311.2,281.9,311.1,285.4z"/>
		<path d="M348.7,235.4c0.5,2.2,1,4.3,1.5,6.4c-2.2,1.2-4.5,1.8-6.8,2.2c-4.9,1-9.9,1.4-14.9,0.5c-9.7-1.9-15.8-7.6-17.9-17.2
			c-1.6-7-1-13.9,2-20.4c5.3-11.6,16.4-14.8,26.1-12.4c3.5,0.9,6.4,2.7,8.8,5.3c5.1,5.6,6.7,15.9,5.3,21.4c-11.3,0-22.7,0-34,0
			c-0.9,7.3,4.1,14.4,11.2,16.1c5.8,1.4,11.5,0.7,17.1-1.1C347.4,235.9,347.9,235.7,348.7,235.4z M344.3,214.4c0-0.6,0-1,0-1.5
			c-0.1-0.9-0.2-1.8-0.4-2.7c-1.7-8.7-10.5-12.8-18-8.5c-4.8,2.8-6.6,7.4-7.5,12.7C327.2,214.4,335.7,214.4,344.3,214.4z"/>
		<path d="M158,358.1c0,2.6,0,5.1,0,7.9c-7.3,0-14.5,0-22,0c0,21.5,0,42.8,0,64.1c-3.2,0-6.2,0-9.5,0c0-21.4,0-42.6,0-64.1
			c-7.4,0-14.5,0-21.8,0c0-2.7,0-5.3,0-7.9C122.4,358.1,140.2,358.1,158,358.1z"/>
		<path d="M217.2,194.8c3,0,5.8,0,8.7,0c0,0.7,0.1,1.4,0.1,2c0,8.1,0,16.1,0,24.2c0,2.9,0.1,5.7,0.9,8.5c2,7,8.1,9.9,14.7,7
			c4.9-2.2,7.7-6,7.7-11.4c0.1-9.3,0-18.7,0-28c0-0.7,0-1.3,0-2.1c1.5-0.4,2.9-0.2,4.4-0.2c1.5,0,2.9,0,4.6,0c0,0.8,0.1,1.5,0.1,2.2
			c0,9.6,0,19.3,0,28.9c0,5.7,0.2,11.5,0.3,17.2c0,0.2,0,0.4-0.1,0.7c-2.6,0-5.2,0-7.9,0c-0.2-2.5-0.4-4.9-0.6-7.7
			c-0.6,0.8-0.9,1.2-1.3,1.7c-5.1,6.6-12.8,8.5-20.1,6.6c-4.5-1.2-7.6-4.1-9.5-8.2c-1.6-3.4-2.3-7.1-2.3-10.8c0-9.8,0-19.5,0-29.3
			C217.1,195.6,217.1,195.3,217.2,194.8z"/>
		<path d="M402.8,310c-2.6,0-5.2,0-7.9,0c-0.2-2.5-0.4-4.9-0.6-7.7c-0.5,0.7-0.9,1-1.2,1.5c-4.6,6.2-12.4,8.9-19.9,6.9
			c-4.3-1.1-7.5-3.7-9.6-7.7c-1.9-3.6-2.6-7.5-2.6-11.5c-0.1-9.8,0-19.7,0-29.5c0-0.2,0-0.5,0.1-0.7c1.3-0.4,6.8-0.5,8.9-0.1
			c0,0.6,0,1.3,0,1.9c0,8.1,0,16.1,0,24.2c0,3.1,0.2,6.1,1.1,9.1c1.1,3.6,3.3,6.2,7.2,7.1c7.3,1.6,14.8-4.1,15.1-11.6
			c0-0.7,0-1.5,0-2.2c0-8.8,0-17.6,0-26.4c0-0.7,0-1.3,0-2.1c3,0,5.9,0,9.1,0c0,0.7,0,1.4,0,2.1c0,13.2,0,26.4,0.1,39.6
			c0,1.9,0.2,3.8,0.2,5.7C402.8,309,402.8,309.4,402.8,310z"/>
		<path d="M337.8,119.4c4.8,0,9.7,0,14.5,0c0.4,1.3,0.6,57.7,0.2,60.9c-1.2,0.4-12.1,0.6-14.7,0.2
			C337.4,179.2,337.3,121.2,337.8,119.4z"/>
		<path d="M318.8,385.6c0,1,0,1.6,0,2.2c0,8.2,0,16.4,0,24.5c0,2,0.1,4,0.5,6c0.8,3.7,2.9,5.3,6.6,5.3c1.2,0,2.4-0.2,3.6-0.3
			c0.5,0,1.1-0.1,1.7-0.1c0.2,2.4,0.3,4.6,0.5,7c-1.2,0.3-2.4,0.7-3.6,0.8c-2.6,0.2-5.3,0.4-7.8,0.1c-5.3-0.6-9-4.2-10.1-9.5
			c-0.5-2.3-0.7-4.7-0.8-7.1c-0.1-8.9,0-17.8,0-26.7c0-0.7,0-1.3,0-2.2c-2.7,0-5.2,0-8,0c0-1.3-0.1-2.4-0.1-3.6c0-1.1,0-2.3,0-3.7
			c2.7,0,5.3,0,8,0c0-4.3,0-8.3,0-12.4c3.1-0.8,6.1-1.6,9.3-2.5c0,5,0,9.8,0,14.8c4.6,0,8.9,0,13.4,0c0,2.5,0,4.8,0,7.3
			C327.8,385.6,323.4,385.6,318.8,385.6z"/>
		<path d="M298.1,203c-2.4-0.8-4.6-1.6-6.8-2.2c-2.3-0.5-4.6-0.6-6.9,0.2c-3,1-4.8,3.5-4.6,6.5c0.1,2,1,3.5,2.6,4.6
			c1.5,1,3.2,1.8,4.8,2.5c2.1,1,4.3,1.8,6.3,2.8c2,1,3.8,2.4,5.3,4.1c4.2,4.7,4.2,14.5-1.8,19.3c-2.4,1.9-5.1,3.1-8.1,3.6
			c-5.8,1.1-11.5,0.5-17.1-1.7c-0.6-0.2-1.1-0.5-1.6-0.8c-0.2-0.1-0.3-0.2-0.6-0.5c0.7-2.1,1.4-4.3,2.2-6.6c0.6,0.3,1.1,0.5,1.5,0.7
			c4,2,8.2,3.2,12.7,2.5c1-0.1,1.9-0.4,2.8-0.8c4.8-2.1,5.8-8.2,1.8-11.6c-1.3-1.1-3-1.9-4.5-2.7c-2-1-4.1-1.6-6-2.6
			c-1.3-0.6-2.6-1.4-3.7-2.3c-8.3-6.1-6.1-16.7,0.4-21.2c2.7-1.9,5.8-2.9,9.1-3.1c4.5-0.4,8.9,0.4,13,2.3c0.4,0.2,0.7,0.4,1.2,0.7
			C299.5,198.9,298.8,201,298.1,203z"/>
		<path d="M160.8,378.5c2.6,0,5.2,0,8,0c0.1,3.2,0.3,6.4,0.4,9.6c0.1,0,0.2,0.1,0.2,0.1c0.2-0.4,0.5-0.9,0.7-1.3
			c1-2.3,2.4-4.3,4.2-5.9c3.4-3.1,7.5-4.2,12.2-3.5c0.1,3,0,5.9,0,8.9c-0.5,0-0.8,0-1.1-0.1c-5.9-0.8-10.6,1.7-13.2,7
			c-1.6,3.2-2,6.6-2.1,10.1c0,8.2,0,16.4,0,24.5c0,0.7,0,1.3,0,2.1c-0.7,0-1.3,0.1-1.8,0.1c-2.4,0-4.9,0-7.4,0
			C161,412.9,160.9,395.8,160.8,378.5z"/>
		<path d="M273.5,310.1c-0.1-16.5-0.1-32.7-0.2-49c2.4,0,4.9,0,7.6,0c0.1,3,0.3,6,0.4,9c2.1-4.2,4.8-7.7,9.2-9.5
			c2.4-0.9,4.7-1.1,7.1-0.4c0,2.7,0,5.4,0,8.2c-0.7,0-1.4-0.1-2.1-0.1c-5-0.2-8.6,2-10.9,6.3c-1.6,3-2.2,6.2-2.2,9.5
			c0,7.9,0,15.8,0,23.6c0,0.7,0,1.3,0,2.1c-1.5,0.5-3,0.2-4.4,0.2C276.6,310.1,275.2,310.1,273.5,310.1z"/>
		<path d="M373.2,243.8c-3,0-5.9,0-8.9,0c-0.1-16.4-0.1-32.6-0.2-49c2.5,0,4.9,0,7.6,0c0.1,3.1,0.3,6.1,0.4,9.1
			c0.1,0,0.2,0.1,0.3,0.1c0.3-0.6,0.6-1.1,0.8-1.7c2.3-4.6,5.8-7.7,11-8.5c1.4-0.2,2.9-0.4,4.4,0.3c0,2.7,0,5.4,0,8.1
			c-0.6,0-1.1,0-1.6,0c-4.5-0.4-8.1,1.2-10.7,4.9c-2.2,3.2-3,6.8-3,10.6c0,7.9,0,15.9,0,23.8C373.2,242.2,373.2,242.9,373.2,243.8z"
			/>
		<path d="M337.6,112.5c0-4,0-8,0-12.1c5,0,9.9,0,14.9,0c0,4,0,8,0,12.1C347.5,112.5,342.6,112.5,337.6,112.5z"/>
	</g>
</g>
</svg>
